{"glyphs":{"0":{"ha":844,"x_min":63,"x_max":782,"o":"m 422 -17 q 157 108 251 -17 q 63 458 63 232 q 157 809 63 685 q 422 933 251 933 q 688 809 593 933 q 782 458 782 685 q 688 108 782 232 q 422 -17 593 -17 m 422 29 q 493 64 465 29 q 535 192 521 99 q 550 456 550 285 q 535 717 550 622 q 494 849 521 811 q 422 888 467 888 q 351 849 378 888 q 309 717 324 811 q 294 456 294 622 q 309 192 294 285 q 351 64 324 99 q 422 29 379 29 z "},"1":{"ha":683,"x_min":90,"x_max":614,"o":"m 151 46 l 240 46 q 262 56 257 46 q 267 99 267 65 l 267 771 l 210 744 q 90 694 129 706 l 90 763 q 332 917 186 799 l 488 917 l 488 99 q 493 56 488 65 q 519 46 499 46 l 614 46 l 614 0 l 151 0 l 151 46 z "},"2":{"ha":794,"x_min":56,"x_max":725,"o":"m 56 11 q 83 153 56 93 q 153 257 110 213 q 279 371 196 301 q 391 474 350 431 q 458 573 432 517 q 485 704 485 629 q 453 838 485 788 q 365 888 422 888 q 315 875 336 888 q 294 839 294 863 q 303 808 294 831 q 317 750 317 778 q 288 673 317 704 q 208 642 260 642 q 131 672 158 642 q 103 754 103 701 q 187 890 103 846 q 401 933 271 933 q 635 876 549 933 q 722 696 722 819 q 692 577 722 629 q 602 478 663 525 q 436 371 542 431 l 369 333 q 219 244 271 282 q 156 161 167 206 l 567 161 q 644 184 619 161 q 679 257 669 207 l 725 257 l 690 0 l 56 0 l 56 11 z "},"3":{"ha":783,"x_min":49,"x_max":693,"o":"m 331 -17 q 124 25 200 -17 q 49 140 49 67 q 81 217 49 189 q 158 246 113 246 q 233 217 204 246 q 263 153 263 189 q 260 131 263 142 q 256 117 257 121 q 249 82 249 99 q 268 42 249 56 q 319 29 288 29 q 424 91 388 29 q 461 261 461 153 q 315 475 461 475 l 222 471 l 222 524 l 301 521 q 431 708 431 521 q 406 844 431 800 q 328 888 382 888 q 278 873 294 888 q 263 836 263 858 q 271 808 263 822 q 282 767 282 789 q 253 698 282 724 q 179 672 225 672 q 99 700 131 672 q 68 775 68 728 q 145 891 68 849 q 343 933 222 933 q 511 906 439 933 q 623 831 583 879 q 663 721 663 783 q 590 576 663 635 q 401 504 517 518 l 401 501 q 546 465 479 496 q 653 378 613 435 q 693 244 693 322 q 651 108 693 167 q 526 16 608 49 q 331 -17 444 -17 z "},"4":{"ha":782,"x_min":35,"x_max":740,"o":"m 303 46 l 372 46 q 390 55 383 46 q 397 89 397 64 l 397 235 l 35 235 l 35 336 q 223 609 124 472 q 458 928 322 746 l 610 928 l 610 369 l 740 369 l 740 235 l 610 235 l 610 89 q 616 54 610 63 q 639 46 622 46 l 711 46 l 711 0 l 303 0 l 303 46 m 397 369 l 397 753 l 394 753 l 363 708 q 128 369 181 461 l 397 369 z "},"5":{"ha":778,"x_min":63,"x_max":701,"o":"m 335 -17 q 139 27 215 -17 q 63 146 63 71 q 91 222 63 192 q 168 251 119 251 q 244 224 214 251 q 275 158 275 197 q 261 115 275 138 q 250 82 250 96 q 270 44 250 58 q 322 29 290 29 q 424 99 388 29 q 461 297 461 168 q 427 472 461 419 q 322 524 393 524 q 231 499 272 524 q 153 422 190 475 l 97 422 l 149 917 l 569 917 q 615 923 603 917 q 633 953 628 929 l 679 953 l 638 760 l 186 760 l 160 503 l 163 501 q 361 569 229 569 q 533 535 456 569 q 656 438 611 501 q 701 288 701 374 q 657 133 701 203 q 530 24 613 64 q 335 -17 447 -17 z "},"6":{"ha":846,"x_min":63,"x_max":776,"o":"m 429 -17 q 157 85 251 -17 q 63 388 63 186 q 133 690 63 561 q 339 888 204 818 q 663 958 474 958 l 663 913 q 497 867 581 913 q 355 724 413 822 q 297 481 297 626 l 299 479 q 379 552 333 525 q 499 579 425 579 q 644 542 582 579 q 742 438 707 504 q 776 286 776 372 q 684 64 776 144 q 429 -17 592 -17 m 426 29 q 523 94 492 29 q 554 263 554 160 q 519 440 554 375 q 424 506 485 506 q 332 445 365 506 q 299 271 299 385 q 329 97 299 165 q 426 29 360 29 z "},"7":{"ha":771,"x_min":42,"x_max":694,"o":"m 304 -17 q 210 18 242 -17 q 179 113 179 53 q 234 289 179 192 q 394 522 289 386 q 572 756 536 704 l 199 756 q 133 747 156 756 q 97 704 111 738 l 88 681 l 42 681 l 65 917 l 694 917 l 694 807 q 535 585 607 690 q 424 250 424 421 q 429 165 424 213 q 432 115 432 126 q 398 17 432 50 q 304 -17 364 -17 z "},"8":{"ha":783,"x_min":56,"x_max":714,"o":"m 365 -17 q 218 7 289 -17 q 101 82 147 31 q 56 213 56 133 q 100 344 56 290 q 225 439 144 399 q 83 664 83 521 q 127 806 83 744 q 244 901 171 868 q 401 933 317 933 q 533 913 468 933 q 643 846 599 892 q 688 731 688 800 q 642 615 688 658 q 518 533 597 572 q 662 422 610 486 q 714 267 714 358 q 665 115 714 179 q 537 17 617 50 q 365 -17 457 -17 m 475 556 q 537 633 517 585 q 557 728 557 682 q 512 842 557 797 q 399 888 467 888 q 293 851 336 888 q 250 758 250 814 q 276 683 250 715 q 338 628 303 650 q 431 578 374 607 l 475 556 m 364 29 q 492 69 438 29 q 546 172 546 110 q 488 285 546 239 q 332 379 431 331 q 265 414 278 407 q 206 333 224 375 q 188 238 188 292 q 231 89 188 149 q 364 29 275 29 z "},"9":{"ha":846,"x_min":69,"x_max":783,"o":"m 183 4 q 349 49 265 4 q 491 192 433 94 q 549 436 549 290 l 547 438 q 467 365 513 392 q 347 338 421 338 q 201 375 264 338 q 104 478 139 413 q 69 631 69 544 q 162 853 69 772 q 417 933 254 933 q 689 832 594 933 q 783 529 783 731 q 713 227 783 356 q 507 28 642 99 q 183 -42 372 -42 l 183 4 m 422 411 q 514 472 481 411 q 547 646 547 532 q 517 819 547 751 q 419 888 486 888 q 323 822 354 888 q 292 654 292 757 q 326 476 292 542 q 422 411 361 411 z "}," ":{"ha":297,"x_min":0,"x_max":0,"o":""},"A":{"ha":1021,"x_min":13,"x_max":1003,"o":"m 894 115 q 917 67 907 81 q 944 50 926 54 q 1003 46 963 46 l 1003 0 l 558 0 l 558 46 l 626 46 q 664 75 664 46 q 657 104 664 86 l 578 317 l 293 317 l 213 100 q 207 74 207 85 q 249 46 207 46 l 301 46 l 301 0 l 13 0 l 13 46 q 76 51 54 46 q 112 72 97 56 q 140 122 126 88 l 457 917 l 600 917 l 894 115 m 558 371 l 438 697 l 433 697 l 313 371 l 558 371 z "},"Á":{"ha":1021,"x_min":13,"x_max":1003,"o":"m 894 115 q 917 67 907 81 q 944 50 926 54 q 1003 46 963 46 l 1003 0 l 558 0 l 558 46 l 626 46 q 664 75 664 46 q 657 104 664 86 l 578 317 l 293 317 l 213 100 q 207 74 207 85 q 249 46 207 46 l 301 46 l 301 0 l 13 0 l 13 46 q 76 51 54 46 q 112 72 97 56 q 140 122 126 88 l 457 917 l 600 917 l 894 115 m 558 371 l 438 697 l 433 697 l 313 371 l 558 371 m 496 1244 q 575 1294 519 1294 q 621 1276 601 1294 q 640 1233 640 1258 q 634 1205 640 1218 q 607 1167 628 1192 l 463 1010 l 388 1010 l 496 1244 z "},"Ă":{"ha":1021,"x_min":13,"x_max":1003,"o":"m 894 115 q 917 67 907 81 q 944 50 926 54 q 1003 46 963 46 l 1003 0 l 558 0 l 558 46 l 626 46 q 664 75 664 46 q 657 104 664 86 l 578 317 l 293 317 l 213 100 q 207 74 207 85 q 249 46 207 46 l 301 46 l 301 0 l 13 0 l 13 46 q 76 51 54 46 q 112 72 97 56 q 140 122 126 88 l 457 917 l 600 917 l 894 115 m 558 371 l 438 697 l 433 697 l 313 371 l 558 371 m 514 1003 q 399 1034 446 1003 q 328 1116 351 1065 q 304 1225 304 1167 l 374 1225 q 419 1152 378 1178 q 514 1126 461 1126 q 608 1152 565 1126 q 654 1225 650 1178 l 724 1225 q 700 1116 724 1167 q 629 1034 676 1065 q 514 1003 582 1003 z "},"Â":{"ha":1021,"x_min":13,"x_max":1003,"o":"m 894 115 q 917 67 907 81 q 944 50 926 54 q 1003 46 963 46 l 1003 0 l 558 0 l 558 46 l 626 46 q 664 75 664 46 q 657 104 664 86 l 578 317 l 293 317 l 213 100 q 207 74 207 85 q 249 46 207 46 l 301 46 l 301 0 l 13 0 l 13 46 q 76 51 54 46 q 112 72 97 56 q 140 122 126 88 l 457 917 l 600 917 l 894 115 m 558 371 l 438 697 l 433 697 l 313 371 l 558 371 m 446 1243 l 581 1243 l 736 1006 l 661 1006 l 514 1126 l 365 1006 l 290 1006 l 446 1243 z "},"Ä":{"ha":1021,"x_min":13,"x_max":1003,"o":"m 894 115 q 917 67 907 81 q 944 50 926 54 q 1003 46 963 46 l 1003 0 l 558 0 l 558 46 l 626 46 q 664 75 664 46 q 657 104 664 86 l 578 317 l 293 317 l 213 100 q 207 74 207 85 q 249 46 207 46 l 301 46 l 301 0 l 13 0 l 13 46 q 76 51 54 46 q 112 72 97 56 q 140 122 126 88 l 457 917 l 600 917 l 894 115 m 558 371 l 438 697 l 433 697 l 313 371 l 558 371 m 372 1017 q 299 1047 329 1017 q 269 1119 269 1078 q 299 1193 269 1163 q 372 1224 329 1224 q 445 1193 415 1224 q 475 1119 475 1163 q 445 1047 475 1078 q 372 1017 415 1017 m 656 1017 q 583 1047 613 1017 q 553 1119 553 1078 q 583 1193 553 1163 q 656 1224 613 1224 q 728 1193 699 1224 q 758 1119 758 1163 q 728 1047 758 1078 q 656 1017 699 1017 z "},"À":{"ha":1021,"x_min":13,"x_max":1003,"o":"m 894 115 q 917 67 907 81 q 944 50 926 54 q 1003 46 963 46 l 1003 0 l 558 0 l 558 46 l 626 46 q 664 75 664 46 q 657 104 664 86 l 578 317 l 293 317 l 213 100 q 207 74 207 85 q 249 46 207 46 l 301 46 l 301 0 l 13 0 l 13 46 q 76 51 54 46 q 112 72 97 56 q 140 122 126 88 l 457 917 l 600 917 l 894 115 m 558 371 l 438 697 l 433 697 l 313 371 l 558 371 m 421 1163 q 394 1201 400 1188 q 388 1229 388 1214 q 407 1272 388 1254 q 453 1290 426 1290 q 532 1240 508 1290 l 640 1006 l 565 1006 l 421 1163 z "},"Ą":{"ha":1021,"x_min":13,"x_max":1003,"o":"m 907 0 q 822 -60 854 -28 q 789 -139 789 -93 q 807 -189 789 -172 q 856 -206 825 -206 q 890 -197 876 -206 q 919 -168 904 -189 l 950 -193 q 790 -289 894 -289 q 691 -255 724 -289 q 658 -175 658 -221 q 705 -78 658 -117 q 831 0 751 -39 l 558 0 l 558 46 l 626 46 q 664 75 664 46 q 657 104 664 86 l 578 317 l 293 317 l 213 100 q 207 74 207 85 q 249 46 207 46 l 301 46 l 301 0 l 13 0 l 13 46 q 76 51 54 46 q 112 72 97 56 q 140 122 126 88 l 457 917 l 600 917 l 894 115 q 917 67 907 81 q 944 50 926 54 q 1003 46 963 46 l 1003 0 l 907 0 m 558 371 l 438 697 l 433 697 l 313 371 l 558 371 z "},"Å":{"ha":1021,"x_min":13,"x_max":1003,"o":"m 894 115 q 917 67 907 81 q 944 50 926 54 q 1003 46 963 46 l 1003 0 l 558 0 l 558 46 l 626 46 q 664 75 664 46 q 657 104 664 86 l 578 317 l 293 317 l 213 100 q 207 74 207 85 q 249 46 207 46 l 301 46 l 301 0 l 13 0 l 13 46 q 76 51 54 46 q 112 72 97 56 q 140 122 126 88 l 457 917 l 600 917 l 894 115 m 558 371 l 438 697 l 433 697 l 313 371 l 558 371 m 514 982 q 412 1024 454 982 q 369 1126 369 1067 q 411 1229 369 1188 q 514 1271 453 1271 q 616 1228 574 1271 q 658 1126 658 1186 q 616 1024 658 1067 q 514 982 574 982 m 514 1056 q 563 1076 543 1056 q 583 1126 583 1096 q 563 1177 583 1157 q 514 1197 543 1197 q 465 1177 485 1197 q 444 1126 444 1157 q 465 1076 444 1096 q 514 1056 485 1056 z "},"Ã":{"ha":1021,"x_min":13,"x_max":1003,"o":"m 894 115 q 917 67 907 81 q 944 50 926 54 q 1003 46 963 46 l 1003 0 l 558 0 l 558 46 l 626 46 q 664 75 664 46 q 657 104 664 86 l 578 317 l 293 317 l 213 100 q 207 74 207 85 q 249 46 207 46 l 301 46 l 301 0 l 13 0 l 13 46 q 76 51 54 46 q 112 72 97 56 q 140 122 126 88 l 457 917 l 600 917 l 894 115 m 558 371 l 438 697 l 433 697 l 313 371 l 558 371 m 603 1022 q 549 1031 574 1022 q 488 1057 524 1040 q 433 1081 456 1072 q 389 1089 411 1089 q 337 1072 356 1089 q 311 1029 318 1056 l 264 1029 q 315 1163 276 1108 q 426 1218 354 1218 q 481 1209 456 1218 q 538 1183 507 1200 q 594 1158 569 1167 q 647 1150 619 1150 q 696 1165 681 1150 q 715 1211 711 1179 l 764 1211 q 713 1078 753 1135 q 603 1022 674 1022 z "},"Æ":{"ha":1285,"x_min":13,"x_max":1251,"o":"m 1251 242 l 1235 0 l 500 0 l 500 46 q 564 51 544 46 q 590 72 583 57 q 596 124 596 88 l 596 444 l 394 444 l 215 100 q 207 72 207 83 q 251 46 207 46 l 315 46 l 315 0 l 13 0 l 13 46 q 78 51 57 46 q 114 71 99 56 q 149 122 129 86 l 490 776 q 508 833 508 808 q 463 871 508 871 l 401 871 l 401 917 l 1221 917 l 1221 699 l 1164 699 q 1122 805 1146 769 q 1059 853 1097 840 q 954 865 1021 865 l 886 865 q 847 855 858 865 q 835 818 835 844 l 835 507 l 972 507 q 1029 517 1010 507 q 1058 555 1049 528 q 1075 635 1068 582 l 1121 635 l 1121 322 l 1075 322 q 1059 404 1069 376 q 1029 442 1049 432 q 972 453 1010 453 l 835 453 l 835 143 q 842 85 835 103 q 874 59 849 67 q 960 51 900 51 q 1076 65 1032 51 q 1149 120 1119 79 q 1194 242 1178 161 l 1251 242 m 596 499 l 596 818 l 589 818 l 422 499 l 596 499 z "},"B":{"ha":914,"x_min":46,"x_max":882,"o":"m 46 46 q 108 52 88 46 q 135 74 128 58 q 142 124 142 90 l 142 790 q 135 845 142 829 q 110 866 129 861 q 46 871 92 871 l 46 917 l 494 917 q 755 863 667 917 q 843 706 843 810 q 789 571 843 624 q 629 496 735 518 l 629 494 q 882 246 882 450 q 510 0 882 0 l 46 0 l 46 46 m 444 515 q 615 693 615 515 q 446 864 615 864 q 401 860 414 864 q 385 846 389 857 q 381 808 381 835 l 381 515 l 444 515 m 472 53 q 639 244 639 53 q 589 405 639 349 q 447 461 539 461 l 381 461 l 381 142 q 400 72 381 90 q 472 53 419 53 z "},"C":{"ha":933,"x_min":47,"x_max":896,"o":"m 525 -17 q 176 103 304 -17 q 47 449 47 222 q 106 710 47 601 q 276 876 165 819 q 536 933 386 933 q 652 923 607 933 q 740 896 697 913 q 788 882 772 882 q 810 888 800 882 q 825 904 821 893 l 829 917 l 869 917 l 883 654 l 831 654 q 742 825 811 763 q 572 888 674 888 q 356 753 414 888 q 299 453 299 619 q 369 143 299 257 q 575 29 439 29 q 749 86 676 29 q 854 238 821 143 l 896 221 q 768 45 854 107 q 525 -17 682 -17 z "},"Ć":{"ha":933,"x_min":47,"x_max":896,"o":"m 525 -17 q 176 103 304 -17 q 47 449 47 222 q 106 710 47 601 q 276 876 165 819 q 536 933 386 933 q 652 923 607 933 q 740 896 697 913 q 788 882 772 882 q 810 888 800 882 q 825 904 821 893 l 829 917 l 869 917 l 883 654 l 831 654 q 742 825 811 763 q 572 888 674 888 q 356 753 414 888 q 299 453 299 619 q 369 143 299 257 q 575 29 439 29 q 749 86 676 29 q 854 238 821 143 l 896 221 q 768 45 854 107 q 525 -17 682 -17 m 450 1244 q 529 1294 474 1294 q 575 1276 556 1294 q 594 1233 594 1258 q 588 1205 594 1218 q 561 1167 582 1192 l 417 1010 l 342 1010 l 450 1244 z "},"Č":{"ha":933,"x_min":47,"x_max":896,"o":"m 525 -17 q 176 103 304 -17 q 47 449 47 222 q 106 710 47 601 q 276 876 165 819 q 536 933 386 933 q 652 923 607 933 q 740 896 697 913 q 788 882 772 882 q 810 888 800 882 q 825 904 821 893 l 829 917 l 869 917 l 883 654 l 831 654 q 742 825 811 763 q 572 888 674 888 q 356 753 414 888 q 299 453 299 619 q 369 143 299 257 q 575 29 439 29 q 749 86 676 29 q 854 238 821 143 l 896 221 q 768 45 854 107 q 525 -17 682 -17 m 246 1243 l 321 1243 l 469 1122 l 617 1243 l 692 1243 l 536 1006 l 401 1006 l 246 1243 z "},"Ç":{"ha":933,"x_min":47,"x_max":896,"o":"m 525 -17 q 489 -15 501 -17 l 461 -79 q 487 -74 471 -76 q 519 -72 503 -72 q 593 -97 563 -72 q 624 -165 624 -121 q 568 -255 624 -228 q 438 -282 513 -282 q 311 -261 360 -282 l 336 -208 q 415 -229 383 -229 q 462 -216 442 -229 q 482 -175 482 -203 q 469 -140 482 -153 q 433 -126 457 -126 q 410 -131 419 -126 q 400 -137 401 -136 l 376 -126 l 432 -11 q 149 131 251 14 q 47 449 47 247 q 106 710 47 601 q 276 876 165 819 q 536 933 386 933 q 652 923 607 933 q 740 896 697 913 q 788 882 772 882 q 810 888 800 882 q 825 904 821 893 l 829 917 l 869 917 l 883 654 l 831 654 q 742 825 811 763 q 572 888 674 888 q 356 753 414 888 q 299 453 299 619 q 369 143 299 257 q 575 29 439 29 q 749 86 676 29 q 854 238 821 143 l 896 221 q 768 45 854 107 q 525 -17 682 -17 z "},"D":{"ha":1056,"x_min":46,"x_max":1008,"o":"m 46 46 q 124 51 103 46 q 150 70 144 56 q 156 124 156 85 l 156 792 q 149 844 156 829 q 120 865 142 860 q 46 871 99 871 l 46 917 l 513 917 q 883 806 758 914 q 1008 471 1008 697 q 871 112 1008 224 q 467 0 733 0 l 46 0 l 46 46 m 474 51 q 688 152 619 51 q 757 467 757 253 q 688 765 757 665 q 482 865 618 865 q 413 857 431 865 q 394 813 394 849 l 394 133 q 402 80 394 97 q 426 57 410 63 q 474 51 442 51 z "},"Ð":{"ha":1082,"x_min":46,"x_max":1035,"o":"m 539 917 q 910 806 785 914 q 1035 471 1035 697 q 897 112 1035 224 q 493 0 760 0 l 72 0 l 72 46 q 150 51 129 46 q 176 70 171 56 q 182 124 182 85 l 182 425 l 46 425 l 46 508 l 182 508 l 182 792 q 175 844 182 829 q 147 865 168 860 q 72 871 125 871 l 72 917 l 539 917 m 500 51 q 715 152 646 51 q 783 467 783 253 q 714 765 783 665 q 508 865 644 865 q 439 857 457 865 q 421 813 421 849 l 421 508 l 600 508 l 600 425 l 421 425 l 421 133 q 428 80 421 97 q 452 57 436 63 q 500 51 468 51 z "},"Ď":{"ha":1056,"x_min":46,"x_max":1008,"o":"m 46 46 q 124 51 103 46 q 150 70 144 56 q 156 124 156 85 l 156 792 q 149 844 156 829 q 120 865 142 860 q 46 871 99 871 l 46 917 l 513 917 q 883 806 758 914 q 1008 471 1008 697 q 871 112 1008 224 q 467 0 733 0 l 46 0 l 46 46 m 474 51 q 688 152 619 51 q 757 467 757 253 q 688 765 757 665 q 482 865 618 865 q 413 857 431 865 q 394 813 394 849 l 394 133 q 402 80 394 97 q 426 57 410 63 q 474 51 442 51 m 314 1243 l 389 1243 l 538 1122 l 685 1243 l 760 1243 l 604 1006 l 469 1006 l 314 1243 z "},"Đ":{"ha":1082,"x_min":46,"x_max":1035,"o":"m 539 917 q 910 806 785 914 q 1035 471 1035 697 q 897 112 1035 224 q 493 0 760 0 l 72 0 l 72 46 q 150 51 129 46 q 176 70 171 56 q 182 124 182 85 l 182 425 l 46 425 l 46 508 l 182 508 l 182 792 q 175 844 182 829 q 147 865 168 860 q 72 871 125 871 l 72 917 l 539 917 m 500 51 q 715 152 646 51 q 783 467 783 253 q 714 765 783 665 q 508 865 644 865 q 439 857 457 865 q 421 813 421 849 l 421 508 l 600 508 l 600 425 l 421 425 l 421 133 q 428 80 421 97 q 452 57 436 63 q 500 51 468 51 z "},"E":{"ha":860,"x_min":46,"x_max":825,"o":"m 46 46 q 110 51 90 46 q 135 72 129 57 q 142 124 142 88 l 142 792 q 135 844 142 828 q 110 865 129 860 q 46 871 90 871 l 46 917 l 794 917 l 794 699 l 738 699 q 695 805 719 769 q 633 853 671 840 q 528 865 594 865 l 432 865 q 392 855 404 865 q 381 818 381 844 l 381 510 l 546 510 q 603 520 583 510 q 632 557 622 531 q 649 638 642 583 l 694 638 l 694 319 l 649 319 q 633 402 643 375 q 603 439 622 429 q 546 449 583 449 l 381 449 l 381 143 q 388 83 381 100 q 424 58 396 65 q 521 51 453 51 q 641 67 593 51 q 721 124 689 82 q 768 242 753 165 l 825 242 l 808 0 l 46 0 l 46 46 z "},"É":{"ha":860,"x_min":46,"x_max":825,"o":"m 46 46 q 110 51 90 46 q 135 72 129 57 q 142 124 142 88 l 142 792 q 135 844 142 828 q 110 865 129 860 q 46 871 90 871 l 46 917 l 794 917 l 794 699 l 738 699 q 695 805 719 769 q 633 853 671 840 q 528 865 594 865 l 432 865 q 392 855 404 865 q 381 818 381 844 l 381 510 l 546 510 q 603 520 583 510 q 632 557 622 531 q 649 638 642 583 l 694 638 l 694 319 l 649 319 q 633 402 643 375 q 603 439 622 429 q 546 449 583 449 l 381 449 l 381 143 q 388 83 381 100 q 424 58 396 65 q 521 51 453 51 q 641 67 593 51 q 721 124 689 82 q 768 242 753 165 l 825 242 l 808 0 l 46 0 l 46 46 m 432 1244 q 511 1294 456 1294 q 557 1276 538 1294 q 576 1233 576 1258 q 570 1205 576 1218 q 543 1167 564 1192 l 399 1010 l 324 1010 l 432 1244 z "},"Ě":{"ha":860,"x_min":46,"x_max":825,"o":"m 46 46 q 110 51 90 46 q 135 72 129 57 q 142 124 142 88 l 142 792 q 135 844 142 828 q 110 865 129 860 q 46 871 90 871 l 46 917 l 794 917 l 794 699 l 738 699 q 695 805 719 769 q 633 853 671 840 q 528 865 594 865 l 432 865 q 392 855 404 865 q 381 818 381 844 l 381 510 l 546 510 q 603 520 583 510 q 632 557 622 531 q 649 638 642 583 l 694 638 l 694 319 l 649 319 q 633 402 643 375 q 603 439 622 429 q 546 449 583 449 l 381 449 l 381 143 q 388 83 381 100 q 424 58 396 65 q 521 51 453 51 q 641 67 593 51 q 721 124 689 82 q 768 242 753 165 l 825 242 l 808 0 l 46 0 l 46 46 m 228 1243 l 303 1243 l 451 1122 l 599 1243 l 674 1243 l 518 1006 l 383 1006 l 228 1243 z "},"Ê":{"ha":860,"x_min":46,"x_max":825,"o":"m 46 46 q 110 51 90 46 q 135 72 129 57 q 142 124 142 88 l 142 792 q 135 844 142 828 q 110 865 129 860 q 46 871 90 871 l 46 917 l 794 917 l 794 699 l 738 699 q 695 805 719 769 q 633 853 671 840 q 528 865 594 865 l 432 865 q 392 855 404 865 q 381 818 381 844 l 381 510 l 546 510 q 603 520 583 510 q 632 557 622 531 q 649 638 642 583 l 694 638 l 694 319 l 649 319 q 633 402 643 375 q 603 439 622 429 q 546 449 583 449 l 381 449 l 381 143 q 388 83 381 100 q 424 58 396 65 q 521 51 453 51 q 641 67 593 51 q 721 124 689 82 q 768 242 753 165 l 825 242 l 808 0 l 46 0 l 46 46 m 382 1243 l 517 1243 l 672 1006 l 597 1006 l 450 1126 l 301 1006 l 226 1006 l 382 1243 z "},"Ë":{"ha":860,"x_min":46,"x_max":825,"o":"m 46 46 q 110 51 90 46 q 135 72 129 57 q 142 124 142 88 l 142 792 q 135 844 142 828 q 110 865 129 860 q 46 871 90 871 l 46 917 l 794 917 l 794 699 l 738 699 q 695 805 719 769 q 633 853 671 840 q 528 865 594 865 l 432 865 q 392 855 404 865 q 381 818 381 844 l 381 510 l 546 510 q 603 520 583 510 q 632 557 622 531 q 649 638 642 583 l 694 638 l 694 319 l 649 319 q 633 402 643 375 q 603 439 622 429 q 546 449 583 449 l 381 449 l 381 143 q 388 83 381 100 q 424 58 396 65 q 521 51 453 51 q 641 67 593 51 q 721 124 689 82 q 768 242 753 165 l 825 242 l 808 0 l 46 0 l 46 46 m 308 1017 q 235 1047 265 1017 q 206 1119 206 1078 q 235 1193 206 1163 q 308 1224 265 1224 q 381 1193 351 1224 q 411 1119 411 1163 q 381 1047 411 1078 q 308 1017 351 1017 m 592 1017 q 519 1047 549 1017 q 489 1119 489 1078 q 519 1193 489 1163 q 592 1224 549 1224 q 665 1193 635 1224 q 694 1119 694 1163 q 665 1047 694 1078 q 592 1017 635 1017 z "},"Ė":{"ha":860,"x_min":46,"x_max":825,"o":"m 46 46 q 110 51 90 46 q 135 72 129 57 q 142 124 142 88 l 142 792 q 135 844 142 828 q 110 865 129 860 q 46 871 90 871 l 46 917 l 794 917 l 794 699 l 738 699 q 695 805 719 769 q 633 853 671 840 q 528 865 594 865 l 432 865 q 392 855 404 865 q 381 818 381 844 l 381 510 l 546 510 q 603 520 583 510 q 632 557 622 531 q 649 638 642 583 l 694 638 l 694 319 l 649 319 q 633 402 643 375 q 603 439 622 429 q 546 449 583 449 l 381 449 l 381 143 q 388 83 381 100 q 424 58 396 65 q 521 51 453 51 q 641 67 593 51 q 721 124 689 82 q 768 242 753 165 l 825 242 l 808 0 l 46 0 l 46 46 m 450 1017 q 377 1047 407 1017 q 347 1119 347 1078 q 377 1193 347 1163 q 450 1224 407 1224 q 523 1193 493 1224 q 553 1119 553 1163 q 523 1047 553 1078 q 450 1017 493 1017 z "},"È":{"ha":860,"x_min":46,"x_max":825,"o":"m 46 46 q 110 51 90 46 q 135 72 129 57 q 142 124 142 88 l 142 792 q 135 844 142 828 q 110 865 129 860 q 46 871 90 871 l 46 917 l 794 917 l 794 699 l 738 699 q 695 805 719 769 q 633 853 671 840 q 528 865 594 865 l 432 865 q 392 855 404 865 q 381 818 381 844 l 381 510 l 546 510 q 603 520 583 510 q 632 557 622 531 q 649 638 642 583 l 694 638 l 694 319 l 649 319 q 633 402 643 375 q 603 439 622 429 q 546 449 583 449 l 381 449 l 381 143 q 388 83 381 100 q 424 58 396 65 q 521 51 453 51 q 641 67 593 51 q 721 124 689 82 q 768 242 753 165 l 825 242 l 808 0 l 46 0 l 46 46 m 357 1163 q 330 1201 336 1188 q 324 1229 324 1214 q 343 1272 324 1254 q 389 1290 363 1290 q 468 1240 444 1290 l 576 1006 l 501 1006 l 357 1163 z "},"Ē":{"ha":860,"x_min":46,"x_max":825,"o":"m 46 46 q 110 51 90 46 q 135 72 129 57 q 142 124 142 88 l 142 792 q 135 844 142 828 q 110 865 129 860 q 46 871 90 871 l 46 917 l 794 917 l 794 699 l 738 699 q 695 805 719 769 q 633 853 671 840 q 528 865 594 865 l 432 865 q 392 855 404 865 q 381 818 381 844 l 381 510 l 546 510 q 603 520 583 510 q 632 557 622 531 q 649 638 642 583 l 694 638 l 694 319 l 649 319 q 633 402 643 375 q 603 439 622 429 q 546 449 583 449 l 381 449 l 381 143 q 388 83 381 100 q 424 58 396 65 q 521 51 453 51 q 641 67 593 51 q 721 124 689 82 q 768 242 753 165 l 825 242 l 808 0 l 46 0 l 46 46 m 246 1181 l 653 1181 l 653 1057 l 246 1057 l 246 1181 z "},"Ę":{"ha":860,"x_min":46,"x_max":825,"o":"m 758 0 q 673 -60 706 -28 q 640 -139 640 -93 q 658 -189 640 -172 q 707 -206 676 -206 q 742 -197 728 -206 q 771 -168 756 -189 l 801 -193 q 642 -289 746 -289 q 542 -255 575 -289 q 510 -175 510 -221 q 556 -78 510 -117 q 682 0 603 -39 l 46 0 l 46 46 q 110 51 90 46 q 135 72 129 57 q 142 124 142 88 l 142 792 q 135 844 142 828 q 110 865 129 860 q 46 871 90 871 l 46 917 l 794 917 l 794 699 l 738 699 q 695 805 719 769 q 633 853 671 840 q 528 865 594 865 l 432 865 q 392 855 404 865 q 381 818 381 844 l 381 510 l 546 510 q 603 520 583 510 q 632 557 622 531 q 649 638 642 583 l 694 638 l 694 319 l 649 319 q 633 402 643 375 q 603 439 622 429 q 546 449 583 449 l 381 449 l 381 143 q 388 83 381 100 q 424 58 396 65 q 521 51 453 51 q 641 67 593 51 q 721 124 689 82 q 768 242 753 165 l 825 242 l 808 0 l 758 0 z "},"F":{"ha":799,"x_min":46,"x_max":767,"o":"m 46 46 q 110 51 90 46 q 135 72 129 57 q 142 124 142 88 l 142 792 q 135 844 142 828 q 110 865 129 860 q 46 871 90 871 l 46 917 l 767 917 l 767 699 l 710 699 q 667 805 692 769 q 605 853 643 840 q 500 865 567 865 l 432 865 q 392 855 404 865 q 381 818 381 844 l 381 496 l 525 496 q 582 506 563 496 q 611 543 601 517 q 628 624 621 569 l 674 624 l 674 306 l 628 306 q 612 388 622 361 q 582 425 601 415 q 525 435 563 435 l 381 435 l 381 124 q 387 74 381 89 q 413 52 393 58 q 476 46 432 46 l 476 0 l 46 0 l 46 46 z "},"G":{"ha":1024,"x_min":47,"x_max":1003,"o":"m 525 -17 q 176 103 304 -17 q 47 449 47 222 q 106 710 47 601 q 276 876 165 819 q 536 933 386 933 q 652 923 607 933 q 740 896 697 913 q 788 882 772 882 q 810 888 800 882 q 825 904 821 893 l 829 917 l 875 917 l 883 654 l 831 654 q 742 825 811 763 q 572 888 674 888 q 356 753 414 888 q 299 453 299 619 q 368 143 299 257 q 575 29 438 29 q 634 36 613 29 q 685 58 656 43 l 685 289 q 678 342 685 325 q 659 365 672 360 q 621 369 646 369 l 600 369 l 600 415 l 1003 415 l 1003 369 l 978 369 q 933 352 949 369 q 917 289 917 335 l 917 0 l 871 0 q 850 19 861 13 q 817 25 839 25 q 767 15 806 25 q 655 -8 710 1 q 525 -17 600 -17 z "},"Ğ":{"ha":1024,"x_min":47,"x_max":1003,"o":"m 525 -17 q 176 103 304 -17 q 47 449 47 222 q 106 710 47 601 q 276 876 165 819 q 536 933 386 933 q 652 923 607 933 q 740 896 697 913 q 788 882 772 882 q 810 888 800 882 q 825 904 821 893 l 829 917 l 875 917 l 883 654 l 831 654 q 742 825 811 763 q 572 888 674 888 q 356 753 414 888 q 299 453 299 619 q 368 143 299 257 q 575 29 438 29 q 634 36 613 29 q 685 58 656 43 l 685 289 q 678 342 685 325 q 659 365 672 360 q 621 369 646 369 l 600 369 l 600 415 l 1003 415 l 1003 369 l 978 369 q 933 352 949 369 q 917 289 917 335 l 917 0 l 871 0 q 850 19 861 13 q 817 25 839 25 q 767 15 806 25 q 655 -8 710 1 q 525 -17 600 -17 m 508 1003 q 393 1034 440 1003 q 322 1116 346 1065 q 299 1225 299 1167 l 368 1225 q 414 1152 372 1178 q 508 1126 456 1126 q 602 1152 560 1126 q 649 1225 644 1178 l 718 1225 q 694 1116 718 1167 q 624 1034 671 1065 q 508 1003 576 1003 z "},"Ģ":{"ha":1024,"x_min":47,"x_max":1003,"o":"m 525 -17 q 176 103 304 -17 q 47 449 47 222 q 106 710 47 601 q 276 876 165 819 q 536 933 386 933 q 652 923 607 933 q 740 896 697 913 q 788 882 772 882 q 810 888 800 882 q 825 904 821 893 l 829 917 l 875 917 l 883 654 l 831 654 q 742 825 811 763 q 572 888 674 888 q 356 753 414 888 q 299 453 299 619 q 368 143 299 257 q 575 29 438 29 q 634 36 613 29 q 685 58 656 43 l 685 289 q 678 342 685 325 q 659 365 672 360 q 621 369 646 369 l 600 369 l 600 415 l 1003 415 l 1003 369 l 978 369 q 933 352 949 369 q 917 289 917 335 l 917 0 l 871 0 q 850 19 861 13 q 817 25 839 25 q 767 15 806 25 q 655 -8 710 1 q 525 -17 600 -17 z "},"H":{"ha":1099,"x_min":46,"x_max":1053,"o":"m 46 46 q 113 52 93 46 q 136 72 132 58 q 140 124 140 86 l 140 790 q 135 844 140 829 q 112 865 131 858 q 46 871 93 871 l 46 917 l 474 917 l 474 871 q 407 865 426 871 q 383 844 388 858 q 379 790 379 829 l 379 507 l 721 507 l 721 790 q 716 844 721 829 q 692 865 711 858 q 626 871 674 871 l 626 917 l 1053 917 l 1053 871 q 987 865 1006 871 q 964 844 968 858 q 960 790 960 829 l 960 124 q 965 72 960 88 q 988 51 969 57 q 1053 46 1007 46 l 1053 0 l 626 0 l 626 46 q 694 52 675 46 q 717 72 713 58 q 721 124 721 86 l 721 453 l 379 453 l 379 124 q 384 72 379 88 q 408 51 389 57 q 474 46 426 46 l 474 0 l 46 0 l 46 46 z "},"I":{"ha":521,"x_min":46,"x_max":475,"o":"m 46 46 q 112 51 93 46 q 136 72 131 57 q 142 124 142 86 l 142 790 q 135 844 142 828 q 109 865 128 860 q 46 871 90 871 l 46 917 l 475 917 l 475 871 q 412 865 431 871 q 387 844 393 860 q 381 790 381 828 l 381 124 q 387 71 381 86 q 411 51 393 56 q 475 46 429 46 l 475 0 l 46 0 l 46 46 z "},"Í":{"ha":521,"x_min":46,"x_max":475,"o":"m 46 46 q 112 51 93 46 q 136 72 131 57 q 142 124 142 86 l 142 790 q 135 844 142 828 q 109 865 128 860 q 46 871 90 871 l 46 917 l 475 917 l 475 871 q 412 865 431 871 q 387 844 393 860 q 381 790 381 828 l 381 124 q 387 71 381 86 q 411 51 393 56 q 475 46 429 46 l 475 0 l 46 0 l 46 46 m 243 1244 q 322 1294 267 1294 q 368 1276 349 1294 q 388 1233 388 1258 q 381 1205 388 1218 q 354 1167 375 1192 l 210 1010 l 135 1010 l 243 1244 z "},"Î":{"ha":521,"x_min":38,"x_max":483,"o":"m 46 46 q 112 51 93 46 q 136 72 131 57 q 142 124 142 86 l 142 790 q 135 844 142 828 q 109 865 128 860 q 46 871 90 871 l 46 917 l 475 917 l 475 871 q 412 865 431 871 q 387 844 393 860 q 381 790 381 828 l 381 124 q 387 71 381 86 q 411 51 393 56 q 475 46 429 46 l 475 0 l 46 0 l 46 46 m 193 1243 l 328 1243 l 483 1006 l 408 1006 l 261 1126 l 113 1006 l 38 1006 l 193 1243 z "},"Ï":{"ha":521,"x_min":17,"x_max":506,"o":"m 46 46 q 112 51 93 46 q 136 72 131 57 q 142 124 142 86 l 142 790 q 135 844 142 828 q 109 865 128 860 q 46 871 90 871 l 46 917 l 475 917 l 475 871 q 412 865 431 871 q 387 844 393 860 q 381 790 381 828 l 381 124 q 387 71 381 86 q 411 51 393 56 q 475 46 429 46 l 475 0 l 46 0 l 46 46 m 119 1017 q 47 1047 76 1017 q 17 1119 17 1078 q 47 1193 17 1163 q 119 1224 76 1224 q 192 1193 163 1224 q 222 1119 222 1163 q 192 1047 222 1078 q 119 1017 163 1017 m 403 1017 q 330 1047 360 1017 q 300 1119 300 1078 q 330 1193 300 1163 q 403 1224 360 1224 q 476 1193 446 1224 q 506 1119 506 1163 q 476 1047 506 1078 q 403 1017 446 1017 z "},"Ì":{"ha":521,"x_min":46,"x_max":475,"o":"m 46 46 q 112 51 93 46 q 136 72 131 57 q 142 124 142 86 l 142 790 q 135 844 142 828 q 109 865 128 860 q 46 871 90 871 l 46 917 l 475 917 l 475 871 q 412 865 431 871 q 387 844 393 860 q 381 790 381 828 l 381 124 q 387 71 381 86 q 411 51 393 56 q 475 46 429 46 l 475 0 l 46 0 l 46 46 m 168 1163 q 141 1201 147 1188 q 135 1229 135 1214 q 154 1272 135 1254 q 200 1290 174 1290 q 279 1240 256 1290 l 388 1006 l 313 1006 l 168 1163 z "},"Ī":{"ha":521,"x_min":46,"x_max":475,"o":"m 46 46 q 112 51 93 46 q 136 72 131 57 q 142 124 142 86 l 142 790 q 135 844 142 828 q 109 865 128 860 q 46 871 90 871 l 46 917 l 475 917 l 475 871 q 412 865 431 871 q 387 844 393 860 q 381 790 381 828 l 381 124 q 387 71 381 86 q 411 51 393 56 q 475 46 429 46 l 475 0 l 46 0 l 46 46 m 57 1181 l 464 1181 l 464 1057 l 57 1057 l 57 1181 z "},"Į":{"ha":521,"x_min":46,"x_max":475,"o":"m 475 871 q 412 865 431 871 q 387 844 393 860 q 381 790 381 828 l 381 124 q 387 71 381 86 q 411 51 393 56 q 475 46 429 46 l 475 0 l 431 0 q 345 -60 378 -28 q 313 -139 313 -93 q 331 -189 313 -172 q 379 -206 349 -206 q 414 -197 400 -206 q 443 -168 428 -189 l 474 -193 q 314 -289 418 -289 q 215 -255 247 -289 q 182 -175 182 -221 q 228 -78 182 -117 q 354 0 275 -39 l 46 0 l 46 46 q 112 51 93 46 q 136 72 131 57 q 142 124 142 86 l 142 790 q 135 844 142 828 q 109 865 128 860 q 46 871 90 871 l 46 917 l 475 917 l 475 871 z "},"J":{"ha":538,"x_min":-118,"x_max":500,"o":"m 99 -294 q -118 -156 -118 -294 q -87 -73 -118 -101 q -14 -44 -56 -44 q 56 -72 25 -44 q 88 -146 88 -99 q 82 -181 88 -167 q 66 -211 76 -196 q 56 -233 56 -226 q 82 -247 56 -247 q 165 -110 165 -247 l 165 790 q 160 844 165 828 q 135 865 154 860 q 71 871 115 871 l 71 917 l 500 917 l 500 871 q 435 865 454 871 q 410 844 417 860 q 404 790 404 828 l 404 99 q 377 -124 404 -39 q 283 -251 350 -208 q 99 -294 217 -294 z "},"K":{"ha":1039,"x_min":46,"x_max":1032,"o":"m 819 257 q 863 196 853 208 q 928 105 906 133 q 976 61 951 76 q 1032 46 1000 46 l 1032 0 l 582 0 l 582 46 l 629 46 q 664 68 664 46 q 640 121 664 86 l 415 438 l 381 406 l 381 124 q 385 71 381 86 q 409 51 390 56 q 475 46 428 46 l 475 0 l 46 0 l 46 46 q 112 51 93 46 q 136 71 131 56 q 142 124 142 86 l 142 790 q 136 844 142 829 q 111 865 131 860 q 46 871 92 871 l 46 917 l 475 917 l 475 871 q 412 865 431 871 q 387 844 393 860 q 381 790 381 828 l 381 476 l 714 803 q 733 842 733 822 q 723 863 733 854 q 692 871 713 871 l 656 871 l 656 917 l 928 917 l 928 871 q 848 847 883 871 q 753 763 813 822 l 708 719 l 579 596 l 819 257 z "},"Ķ":{"ha":1039,"x_min":46,"x_max":1032,"o":"m 819 257 q 863 196 853 208 q 928 105 906 133 q 976 61 951 76 q 1032 46 1000 46 l 1032 0 l 582 0 l 582 46 l 629 46 q 664 68 664 46 q 640 121 664 86 l 415 438 l 381 406 l 381 124 q 385 71 381 86 q 409 51 390 56 q 475 46 428 46 l 475 0 l 46 0 l 46 46 q 112 51 93 46 q 136 71 131 56 q 142 124 142 86 l 142 790 q 136 844 142 829 q 111 865 131 860 q 46 871 92 871 l 46 917 l 475 917 l 475 871 q 412 865 431 871 q 387 844 393 860 q 381 790 381 828 l 381 476 l 714 803 q 733 842 733 822 q 723 863 733 854 q 692 871 713 871 l 656 871 l 656 917 l 928 917 l 928 871 q 848 847 883 871 q 753 763 813 822 l 708 719 l 579 596 l 819 257 m 444 -307 q 506 -285 479 -303 q 532 -246 532 -268 q 526 -235 532 -237 q 503 -232 521 -233 q 440 -206 461 -229 q 419 -149 419 -182 q 444 -87 419 -112 q 511 -62 468 -62 q 587 -95 560 -62 q 614 -179 614 -128 q 567 -290 614 -249 q 449 -342 521 -331 l 444 -307 z "},"L":{"ha":825,"x_min":46,"x_max":799,"o":"m 46 46 q 112 51 93 46 q 136 71 131 56 q 142 124 142 86 l 142 790 q 136 844 142 829 q 111 865 131 860 q 46 871 92 871 l 46 917 l 475 917 l 475 871 q 412 865 431 871 q 387 844 393 860 q 381 790 381 828 l 381 129 q 385 77 381 92 q 408 57 390 63 q 467 51 425 51 q 653 92 586 51 q 742 242 719 133 l 799 242 l 782 0 l 46 0 l 46 46 z "},"Ĺ":{"ha":825,"x_min":46,"x_max":799,"o":"m 46 46 q 112 51 93 46 q 136 71 131 56 q 142 124 142 86 l 142 790 q 136 844 142 829 q 111 865 131 860 q 46 871 92 871 l 46 917 l 475 917 l 475 871 q 412 865 431 871 q 387 844 393 860 q 381 790 381 828 l 381 129 q 385 77 381 92 q 408 57 390 63 q 467 51 425 51 q 653 92 586 51 q 742 242 719 133 l 799 242 l 782 0 l 46 0 l 46 46 m 322 1244 q 401 1294 346 1294 q 447 1276 428 1294 q 467 1233 467 1258 q 460 1205 467 1218 q 433 1167 454 1192 l 289 1010 l 214 1010 l 322 1244 z "},"Ľ":{"ha":825,"x_min":46,"x_max":799,"o":"m 46 46 q 112 51 93 46 q 136 71 131 56 q 142 124 142 86 l 142 790 q 136 844 142 829 q 111 865 131 860 q 46 871 92 871 l 46 917 l 475 917 l 475 871 q 412 865 431 871 q 387 844 393 860 q 381 790 381 828 l 381 129 q 385 77 381 92 q 408 57 390 63 q 467 51 425 51 q 653 92 586 51 q 742 242 719 133 l 799 242 l 782 0 l 46 0 l 46 46 m 531 689 q 592 710 565 693 q 618 750 618 728 q 613 760 618 758 q 589 764 607 763 q 526 790 547 767 q 506 847 506 814 q 530 908 506 883 q 597 933 554 933 q 673 901 646 933 q 700 817 700 868 q 653 706 700 747 q 535 654 607 665 l 531 689 z "},"Ļ":{"ha":825,"x_min":46,"x_max":799,"o":"m 46 46 q 112 51 93 46 q 136 71 131 56 q 142 124 142 86 l 142 790 q 136 844 142 829 q 111 865 131 860 q 46 871 92 871 l 46 917 l 475 917 l 475 871 q 412 865 431 871 q 387 844 393 860 q 381 790 381 828 l 381 129 q 385 77 381 92 q 408 57 390 63 q 467 51 425 51 q 653 92 586 51 q 742 242 719 133 l 799 242 l 782 0 l 46 0 l 46 46 m 350 -307 q 411 -285 385 -303 q 438 -246 438 -268 q 432 -235 438 -237 q 408 -232 426 -233 q 346 -206 367 -229 q 325 -149 325 -182 q 349 -87 325 -112 q 417 -62 374 -62 q 492 -95 465 -62 q 519 -179 519 -128 q 473 -290 519 -249 q 354 -342 426 -331 l 350 -307 z "},"Ł":{"ha":832,"x_min":43,"x_max":806,"o":"m 806 242 l 789 0 l 53 0 l 53 46 q 119 51 100 46 q 143 71 138 56 q 149 124 149 86 l 149 329 l 43 258 l 43 347 l 149 418 l 149 790 q 143 844 149 829 q 118 865 138 860 q 53 871 99 871 l 53 917 l 482 917 l 482 871 q 419 865 438 871 q 394 844 400 860 q 388 790 388 828 l 388 578 l 565 696 l 565 607 l 388 489 l 388 129 q 392 77 388 92 q 415 57 397 63 q 474 51 432 51 q 660 92 593 51 q 749 242 726 133 l 806 242 z "},"M":{"ha":1200,"x_min":25,"x_max":1154,"o":"m 26 46 l 44 46 q 96 53 79 46 q 118 74 113 60 q 124 119 124 89 l 124 792 q 117 843 124 828 q 91 864 111 858 q 25 871 71 869 l 25 917 l 363 917 l 600 317 l 601 317 l 832 917 l 1154 917 l 1154 871 q 1090 864 1110 869 q 1065 843 1071 858 q 1060 792 1060 828 l 1060 124 q 1066 73 1060 89 q 1092 51 1072 57 q 1154 46 1111 46 l 1154 0 l 735 0 l 735 46 q 792 52 775 46 q 815 74 810 58 q 821 124 821 89 l 821 750 l 818 750 l 549 32 l 460 32 l 182 736 l 181 736 l 181 119 q 195 60 181 74 q 260 46 210 46 l 288 46 l 288 0 l 26 0 l 26 46 z "},"N":{"ha":976,"x_min":39,"x_max":936,"o":"m 196 736 l 194 736 l 194 118 q 209 62 194 78 q 264 46 224 46 l 301 46 l 301 0 l 40 0 l 40 46 l 72 46 q 122 63 106 46 q 138 118 138 81 l 138 792 q 131 843 138 828 q 105 864 125 858 q 39 871 85 869 l 39 917 l 367 917 l 785 264 l 789 264 l 789 804 q 718 871 789 871 l 679 871 l 679 917 l 936 917 l 936 871 l 910 871 q 846 804 846 871 l 846 -10 l 685 -10 l 196 736 z "},"Ń":{"ha":976,"x_min":39,"x_max":936,"o":"m 196 736 l 194 736 l 194 118 q 209 62 194 78 q 264 46 224 46 l 301 46 l 301 0 l 40 0 l 40 46 l 72 46 q 122 63 106 46 q 138 118 138 81 l 138 792 q 131 843 138 828 q 105 864 125 858 q 39 871 85 869 l 39 917 l 367 917 l 785 264 l 789 264 l 789 804 q 718 871 789 871 l 679 871 l 679 917 l 936 917 l 936 871 l 910 871 q 846 804 846 871 l 846 -10 l 685 -10 l 196 736 m 465 1244 q 544 1294 489 1294 q 590 1276 571 1294 q 610 1233 610 1258 q 603 1205 610 1218 q 576 1167 597 1192 l 432 1010 l 357 1010 l 465 1244 z "},"Ň":{"ha":976,"x_min":39,"x_max":936,"o":"m 196 736 l 194 736 l 194 118 q 209 62 194 78 q 264 46 224 46 l 301 46 l 301 0 l 40 0 l 40 46 l 72 46 q 122 63 106 46 q 138 118 138 81 l 138 792 q 131 843 138 828 q 105 864 125 858 q 39 871 85 869 l 39 917 l 367 917 l 785 264 l 789 264 l 789 804 q 718 871 789 871 l 679 871 l 679 917 l 936 917 l 936 871 l 910 871 q 846 804 846 871 l 846 -10 l 685 -10 l 196 736 m 261 1243 l 336 1243 l 485 1122 l 632 1243 l 707 1243 l 551 1006 l 417 1006 l 261 1243 z "},"Ņ":{"ha":976,"x_min":39,"x_max":936,"o":"m 196 736 l 194 736 l 194 118 q 209 62 194 78 q 264 46 224 46 l 301 46 l 301 0 l 40 0 l 40 46 l 72 46 q 122 63 106 46 q 138 118 138 81 l 138 792 q 131 843 138 828 q 105 864 125 858 q 39 871 85 869 l 39 917 l 367 917 l 785 264 l 789 264 l 789 804 q 718 871 789 871 l 679 871 l 679 917 l 936 917 l 936 871 l 910 871 q 846 804 846 871 l 846 -10 l 685 -10 l 196 736 m 411 -307 q 472 -285 446 -303 q 499 -246 499 -268 q 493 -235 499 -237 q 469 -232 488 -233 q 407 -206 428 -229 q 386 -149 386 -182 q 410 -87 386 -112 q 478 -62 435 -62 q 553 -95 526 -62 q 581 -179 581 -128 q 534 -290 581 -249 q 415 -342 488 -331 l 411 -307 z "},"Ñ":{"ha":976,"x_min":39,"x_max":936,"o":"m 196 736 l 194 736 l 194 118 q 209 62 194 78 q 264 46 224 46 l 301 46 l 301 0 l 40 0 l 40 46 l 72 46 q 122 63 106 46 q 138 118 138 81 l 138 792 q 131 843 138 828 q 105 864 125 858 q 39 871 85 869 l 39 917 l 367 917 l 785 264 l 789 264 l 789 804 q 718 871 789 871 l 679 871 l 679 917 l 936 917 l 936 871 l 910 871 q 846 804 846 871 l 846 -10 l 685 -10 l 196 736 m 572 1022 q 518 1031 543 1022 q 457 1057 493 1040 q 403 1081 425 1072 q 358 1089 381 1089 q 306 1072 325 1089 q 281 1029 288 1056 l 233 1029 q 285 1163 246 1108 q 396 1218 324 1218 q 451 1209 425 1218 q 507 1183 476 1200 q 564 1158 539 1167 q 617 1150 589 1150 q 665 1165 650 1150 q 685 1211 681 1179 l 733 1211 q 683 1078 722 1135 q 572 1022 643 1022 z "},"O":{"ha":1039,"x_min":47,"x_max":992,"o":"m 519 -14 q 170 108 293 -14 q 47 460 47 231 q 170 811 47 689 q 519 933 293 933 q 869 811 746 933 q 992 460 992 689 q 869 108 992 231 q 519 -14 746 -14 m 519 32 q 691 135 642 32 q 740 460 740 239 q 687 781 740 675 q 519 888 633 888 q 348 784 397 888 q 299 460 299 681 q 348 135 299 239 q 519 32 397 32 z "},"Ó":{"ha":1039,"x_min":47,"x_max":992,"o":"m 519 -14 q 170 108 293 -14 q 47 460 47 231 q 170 811 47 689 q 519 933 293 933 q 869 811 746 933 q 992 460 992 689 q 869 108 992 231 q 519 -14 746 -14 m 519 32 q 691 135 642 32 q 740 460 740 239 q 687 781 740 675 q 519 888 633 888 q 348 784 397 888 q 299 460 299 681 q 348 135 299 239 q 519 32 397 32 m 501 1244 q 581 1294 525 1294 q 626 1276 607 1294 q 646 1233 646 1258 q 640 1205 646 1218 q 613 1167 633 1192 l 468 1010 l 393 1010 l 501 1244 z "},"Ô":{"ha":1039,"x_min":47,"x_max":992,"o":"m 519 -14 q 170 108 293 -14 q 47 460 47 231 q 170 811 47 689 q 519 933 293 933 q 869 811 746 933 q 992 460 992 689 q 869 108 992 231 q 519 -14 746 -14 m 519 32 q 691 135 642 32 q 740 460 740 239 q 687 781 740 675 q 519 888 633 888 q 348 784 397 888 q 299 460 299 681 q 348 135 299 239 q 519 32 397 32 m 451 1243 l 586 1243 l 742 1006 l 667 1006 l 519 1126 l 371 1006 l 296 1006 l 451 1243 z "},"Ö":{"ha":1039,"x_min":47,"x_max":992,"o":"m 519 -14 q 170 108 293 -14 q 47 460 47 231 q 170 811 47 689 q 519 933 293 933 q 869 811 746 933 q 992 460 992 689 q 869 108 992 231 q 519 -14 746 -14 m 519 32 q 691 135 642 32 q 740 460 740 239 q 687 781 740 675 q 519 888 633 888 q 348 784 397 888 q 299 460 299 681 q 348 135 299 239 q 519 32 397 32 m 378 1017 q 305 1047 335 1017 q 275 1119 275 1078 q 305 1193 275 1163 q 378 1224 335 1224 q 451 1193 421 1224 q 481 1119 481 1163 q 451 1047 481 1078 q 378 1017 421 1017 m 661 1017 q 588 1047 618 1017 q 558 1119 558 1078 q 588 1193 558 1163 q 661 1224 618 1224 q 734 1193 704 1224 q 764 1119 764 1163 q 734 1047 764 1078 q 661 1017 704 1017 z "},"Ò":{"ha":1039,"x_min":47,"x_max":992,"o":"m 519 -14 q 170 108 293 -14 q 47 460 47 231 q 170 811 47 689 q 519 933 293 933 q 869 811 746 933 q 992 460 992 689 q 869 108 992 231 q 519 -14 746 -14 m 519 32 q 691 135 642 32 q 740 460 740 239 q 687 781 740 675 q 519 888 633 888 q 348 784 397 888 q 299 460 299 681 q 348 135 299 239 q 519 32 397 32 m 426 1163 q 399 1201 406 1188 q 393 1229 393 1214 q 413 1272 393 1254 q 458 1290 432 1290 q 538 1240 514 1290 l 646 1006 l 571 1006 l 426 1163 z "},"Ō":{"ha":1039,"x_min":47,"x_max":992,"o":"m 519 -14 q 170 108 293 -14 q 47 460 47 231 q 170 811 47 689 q 519 933 293 933 q 869 811 746 933 q 992 460 992 689 q 869 108 992 231 q 519 -14 746 -14 m 519 32 q 691 135 642 32 q 740 460 740 239 q 687 781 740 675 q 519 888 633 888 q 348 784 397 888 q 299 460 299 681 q 348 135 299 239 q 519 32 397 32 m 315 1181 l 722 1181 l 722 1057 l 315 1057 l 315 1181 z "},"Ø":{"ha":1039,"x_min":47,"x_max":992,"o":"m 858 821 q 992 460 992 699 q 869 108 992 231 q 519 -14 746 -14 q 221 67 338 -14 l 157 -8 l 69 -8 l 169 110 q 47 460 47 229 q 170 811 47 689 q 519 933 293 933 q 807 861 692 933 l 861 925 l 947 925 l 858 821 m 299 460 q 310 275 299 346 l 704 740 q 519 888 651 888 q 348 784 397 888 q 299 460 299 681 m 519 32 q 691 135 642 32 q 740 460 740 239 q 725 663 740 574 l 326 192 q 397 72 350 111 q 519 32 443 32 z "},"Õ":{"ha":1039,"x_min":47,"x_max":992,"o":"m 519 -14 q 170 108 293 -14 q 47 460 47 231 q 170 811 47 689 q 519 933 293 933 q 869 811 746 933 q 992 460 992 689 q 869 108 992 231 q 519 -14 746 -14 m 519 32 q 691 135 642 32 q 740 460 740 239 q 687 781 740 675 q 519 888 633 888 q 348 784 397 888 q 299 460 299 681 q 348 135 299 239 q 519 32 397 32 m 608 1022 q 554 1031 579 1022 q 493 1057 529 1040 q 439 1081 461 1072 q 394 1089 417 1089 q 342 1072 361 1089 q 317 1029 324 1056 l 269 1029 q 321 1163 282 1108 q 432 1218 360 1218 q 487 1209 461 1218 q 543 1183 513 1200 q 600 1158 575 1167 q 653 1150 625 1150 q 701 1165 686 1150 q 721 1211 717 1179 l 769 1211 q 719 1078 758 1135 q 608 1022 679 1022 z "},"Œ":{"ha":1383,"x_min":47,"x_max":1350,"o":"m 561 0 q 180 116 313 0 q 47 460 47 232 q 180 802 47 688 q 561 917 313 917 l 1319 917 l 1319 699 l 1263 699 q 1220 805 1244 769 q 1158 853 1196 840 q 1053 865 1119 865 l 971 865 q 931 855 943 865 q 919 818 919 844 l 919 510 l 1071 510 q 1128 520 1108 510 q 1157 557 1147 531 q 1174 638 1167 583 l 1219 638 l 1219 319 l 1174 319 q 1158 402 1168 375 q 1128 439 1147 429 q 1071 449 1108 449 l 919 449 l 919 143 q 929 84 919 103 q 966 58 939 65 q 1053 51 993 51 q 1215 91 1158 51 q 1293 242 1272 131 l 1350 242 l 1333 0 l 561 0 m 604 54 q 677 70 658 54 q 696 132 696 86 l 696 783 q 690 835 696 818 q 665 857 683 851 q 610 863 647 863 q 372 755 446 863 q 297 472 297 647 q 372 174 297 293 q 604 54 447 54 z "},"P":{"ha":867,"x_min":46,"x_max":843,"o":"m 46 46 q 112 51 93 46 q 136 72 131 57 q 142 124 142 86 l 142 792 q 135 844 142 828 q 110 865 129 860 q 46 871 90 871 l 46 917 l 472 917 q 747 849 650 917 q 843 653 843 781 q 733 432 843 500 q 418 364 624 364 l 381 364 l 381 124 q 387 72 381 88 q 411 51 393 57 q 471 46 429 46 l 471 0 l 46 0 l 46 46 m 419 419 q 552 476 501 419 q 603 649 603 532 q 559 810 603 756 q 431 865 515 865 q 390 857 399 865 q 381 817 381 849 l 381 419 l 419 419 z "},"Þ":{"ha":847,"x_min":46,"x_max":822,"o":"m 46 46 q 112 51 93 46 q 136 72 131 56 q 142 126 142 88 l 142 790 q 137 844 142 829 q 113 865 132 858 q 46 871 94 871 l 46 917 l 476 917 l 476 871 q 414 865 433 871 q 388 844 394 860 q 381 790 381 828 l 381 725 l 456 725 q 728 664 635 725 q 822 485 822 603 q 703 287 822 342 q 415 232 583 232 l 381 232 l 381 126 q 385 73 381 88 q 409 52 390 58 q 474 46 428 46 l 474 0 l 46 0 l 46 46 m 408 288 q 585 479 585 288 q 544 622 585 574 q 433 669 504 669 q 391 661 401 669 q 381 626 381 653 l 381 288 l 408 288 z "},"Q":{"ha":1039,"x_min":47,"x_max":992,"o":"m 992 460 q 900 144 992 263 q 636 -4 808 25 q 660 -116 638 -81 q 714 -151 683 -151 q 811 -112 757 -151 l 842 -169 q 768 -215 818 -192 q 654 -237 718 -237 q 467 -178 532 -237 q 400 -4 403 -118 q 138 144 229 26 q 47 460 47 263 q 170 811 47 689 q 519 933 293 933 q 869 811 746 933 q 992 460 992 689 m 519 32 q 691 135 642 32 q 740 460 740 239 q 687 781 740 675 q 519 888 633 888 q 348 784 397 888 q 299 460 299 681 q 348 135 299 239 q 519 32 397 32 z "},"R":{"ha":926,"x_min":46,"x_max":921,"o":"m 46 46 q 112 51 93 46 q 136 72 131 57 q 142 124 142 86 l 142 792 q 135 844 142 828 q 110 865 129 860 q 46 871 90 871 l 46 917 l 472 917 q 746 859 658 917 q 833 692 833 801 q 768 535 833 592 q 597 461 703 478 l 597 458 q 720 405 682 444 q 778 271 758 365 l 794 193 q 819 103 807 133 q 855 60 832 74 q 921 46 878 46 l 921 0 l 647 0 q 610 50 628 14 q 582 128 592 86 l 540 319 q 507 399 529 372 q 438 425 485 425 l 381 425 l 381 124 q 387 72 381 88 q 411 51 393 57 q 471 46 429 46 l 471 0 l 46 0 l 46 46 m 419 481 q 556 526 513 481 q 599 675 599 572 q 559 819 599 772 q 432 865 519 865 q 390 856 400 865 q 381 817 381 847 l 381 481 l 419 481 z "},"Ŕ":{"ha":926,"x_min":46,"x_max":921,"o":"m 46 46 q 112 51 93 46 q 136 72 131 57 q 142 124 142 86 l 142 792 q 135 844 142 828 q 110 865 129 860 q 46 871 90 871 l 46 917 l 472 917 q 746 859 658 917 q 833 692 833 801 q 768 535 833 592 q 597 461 703 478 l 597 458 q 720 405 682 444 q 778 271 758 365 l 794 193 q 819 103 807 133 q 855 60 832 74 q 921 46 878 46 l 921 0 l 647 0 q 610 50 628 14 q 582 128 592 86 l 540 319 q 507 399 529 372 q 438 425 485 425 l 381 425 l 381 124 q 387 72 381 88 q 411 51 393 57 q 471 46 429 46 l 471 0 l 46 0 l 46 46 m 419 481 q 556 526 513 481 q 599 675 599 572 q 559 819 599 772 q 432 865 519 865 q 390 856 400 865 q 381 817 381 847 l 381 481 l 419 481 m 460 1244 q 539 1294 483 1294 q 585 1276 565 1294 q 604 1233 604 1258 q 598 1205 604 1218 q 571 1167 592 1192 l 426 1010 l 351 1010 l 460 1244 z "},"Ř":{"ha":926,"x_min":46,"x_max":921,"o":"m 46 46 q 112 51 93 46 q 136 72 131 57 q 142 124 142 86 l 142 792 q 135 844 142 828 q 110 865 129 860 q 46 871 90 871 l 46 917 l 472 917 q 746 859 658 917 q 833 692 833 801 q 768 535 833 592 q 597 461 703 478 l 597 458 q 720 405 682 444 q 778 271 758 365 l 794 193 q 819 103 807 133 q 855 60 832 74 q 921 46 878 46 l 921 0 l 647 0 q 610 50 628 14 q 582 128 592 86 l 540 319 q 507 399 529 372 q 438 425 485 425 l 381 425 l 381 124 q 387 72 381 88 q 411 51 393 57 q 471 46 429 46 l 471 0 l 46 0 l 46 46 m 419 481 q 556 526 513 481 q 599 675 599 572 q 559 819 599 772 q 432 865 519 865 q 390 856 400 865 q 381 817 381 847 l 381 481 l 419 481 m 256 1243 l 331 1243 l 479 1122 l 626 1243 l 701 1243 l 546 1006 l 411 1006 l 256 1243 z "},"Ŗ":{"ha":926,"x_min":46,"x_max":921,"o":"m 46 46 q 112 51 93 46 q 136 72 131 57 q 142 124 142 86 l 142 792 q 135 844 142 828 q 110 865 129 860 q 46 871 90 871 l 46 917 l 472 917 q 746 859 658 917 q 833 692 833 801 q 768 535 833 592 q 597 461 703 478 l 597 458 q 720 405 682 444 q 778 271 758 365 l 794 193 q 819 103 807 133 q 855 60 832 74 q 921 46 878 46 l 921 0 l 647 0 q 610 50 628 14 q 582 128 592 86 l 540 319 q 507 399 529 372 q 438 425 485 425 l 381 425 l 381 124 q 387 72 381 88 q 411 51 393 57 q 471 46 429 46 l 471 0 l 46 0 l 46 46 m 419 481 q 556 526 513 481 q 599 675 599 572 q 559 819 599 772 q 432 865 519 865 q 390 856 400 865 q 381 817 381 847 l 381 481 l 419 481 m 406 -307 q 467 -285 440 -303 q 493 -246 493 -268 q 488 -235 493 -237 q 464 -232 482 -233 q 401 -206 422 -229 q 381 -149 381 -182 q 405 -87 381 -112 q 472 -62 429 -62 q 548 -95 521 -62 q 575 -179 575 -128 q 528 -290 575 -249 q 410 -342 482 -331 l 406 -307 z "},"S":{"ha":736,"x_min":47,"x_max":696,"o":"m 47 249 l 104 249 q 148 144 113 197 q 240 56 183 92 q 363 21 296 21 q 488 60 435 21 q 540 176 540 99 q 503 271 540 235 q 390 333 467 307 l 292 368 q 113 475 171 410 q 56 647 56 540 q 96 799 56 735 q 208 899 136 864 q 372 933 279 933 q 494 910 429 933 q 520 902 500 908 q 560 896 540 896 q 587 903 579 896 q 599 922 594 910 l 644 922 l 658 685 l 601 685 q 517 838 581 781 q 367 896 453 896 q 246 857 294 896 q 197 757 197 818 q 224 683 197 713 q 280 640 251 653 q 363 608 308 628 l 486 564 q 696 294 696 488 q 649 122 696 192 q 526 17 601 51 q 369 -17 451 -17 q 214 11 303 -17 q 186 19 207 13 q 151 25 165 25 q 110 0 121 25 l 64 0 l 47 249 z "},"Ś":{"ha":736,"x_min":47,"x_max":696,"o":"m 47 249 l 104 249 q 148 144 113 197 q 240 56 183 92 q 363 21 296 21 q 488 60 435 21 q 540 176 540 99 q 503 271 540 235 q 390 333 467 307 l 292 368 q 113 475 171 410 q 56 647 56 540 q 96 799 56 735 q 208 899 136 864 q 372 933 279 933 q 494 910 429 933 q 520 902 500 908 q 560 896 540 896 q 587 903 579 896 q 599 922 594 910 l 644 922 l 658 685 l 601 685 q 517 838 581 781 q 367 896 453 896 q 246 857 294 896 q 197 757 197 818 q 224 683 197 713 q 280 640 251 653 q 363 608 308 628 l 486 564 q 696 294 696 488 q 649 122 696 192 q 526 17 601 51 q 369 -17 451 -17 q 214 11 303 -17 q 186 19 207 13 q 151 25 165 25 q 110 0 121 25 l 64 0 l 47 249 m 353 1244 q 432 1294 376 1294 q 478 1276 458 1294 q 497 1233 497 1258 q 491 1205 497 1218 q 464 1167 485 1192 l 319 1010 l 244 1010 l 353 1244 z "},"Š":{"ha":736,"x_min":47,"x_max":696,"o":"m 47 249 l 104 249 q 148 144 113 197 q 240 56 183 92 q 363 21 296 21 q 488 60 435 21 q 540 176 540 99 q 503 271 540 235 q 390 333 467 307 l 292 368 q 113 475 171 410 q 56 647 56 540 q 96 799 56 735 q 208 899 136 864 q 372 933 279 933 q 494 910 429 933 q 520 902 500 908 q 560 896 540 896 q 587 903 579 896 q 599 922 594 910 l 644 922 l 658 685 l 601 685 q 517 838 581 781 q 367 896 453 896 q 246 857 294 896 q 197 757 197 818 q 224 683 197 713 q 280 640 251 653 q 363 608 308 628 l 486 564 q 696 294 696 488 q 649 122 696 192 q 526 17 601 51 q 369 -17 451 -17 q 214 11 303 -17 q 186 19 207 13 q 151 25 165 25 q 110 0 121 25 l 64 0 l 47 249 m 149 1243 l 224 1243 l 372 1122 l 519 1243 l 594 1243 l 439 1006 l 304 1006 l 149 1243 z "},"Ş":{"ha":736,"x_min":47,"x_max":696,"o":"m 696 294 q 653 129 696 197 q 540 25 610 61 q 392 -17 471 -11 l 364 -79 q 390 -74 374 -76 q 422 -72 406 -72 q 496 -97 465 -72 q 526 -165 526 -121 q 471 -255 526 -228 q 340 -282 415 -282 q 214 -261 263 -282 l 239 -208 q 318 -229 286 -229 q 365 -216 344 -229 q 385 -175 385 -203 q 372 -140 385 -153 q 336 -126 360 -126 q 313 -131 322 -126 q 303 -137 304 -136 l 279 -126 l 332 -15 q 214 11 288 -11 q 186 19 207 13 q 151 25 165 25 q 110 0 121 25 l 64 0 l 47 249 l 104 249 q 148 144 113 197 q 240 56 183 92 q 363 21 296 21 q 488 60 435 21 q 540 176 540 99 q 503 271 540 235 q 390 333 467 307 l 292 368 q 113 475 171 410 q 56 647 56 540 q 96 799 56 735 q 208 899 136 864 q 372 933 279 933 q 494 910 429 933 q 520 902 500 908 q 560 896 540 896 q 587 903 579 896 q 599 922 594 910 l 644 922 l 658 685 l 601 685 q 517 838 581 781 q 367 896 453 896 q 246 857 294 896 q 197 757 197 818 q 224 683 197 713 q 280 640 251 653 q 363 608 308 628 l 486 564 q 696 294 696 488 z "},"Ș":{"ha":736,"x_min":47,"x_max":696,"o":"m 47 249 l 104 249 q 148 144 113 197 q 240 56 183 92 q 363 21 296 21 q 488 60 435 21 q 540 176 540 99 q 503 271 540 235 q 390 333 467 307 l 292 368 q 113 475 171 410 q 56 647 56 540 q 96 799 56 735 q 208 899 136 864 q 372 933 279 933 q 494 910 429 933 q 520 902 500 908 q 560 896 540 896 q 587 903 579 896 q 599 922 594 910 l 644 922 l 658 685 l 601 685 q 517 838 581 781 q 367 896 453 896 q 246 857 294 896 q 197 757 197 818 q 224 683 197 713 q 280 640 251 653 q 363 608 308 628 l 486 564 q 696 294 696 488 q 649 122 696 192 q 526 17 601 51 q 369 -17 451 -17 q 214 11 303 -17 q 186 19 207 13 q 151 25 165 25 q 110 0 121 25 l 64 0 l 47 249 m 299 -307 q 360 -285 333 -303 q 386 -246 386 -268 q 381 -235 386 -237 q 357 -232 375 -233 q 294 -206 315 -229 q 274 -149 274 -182 q 298 -87 274 -112 q 365 -62 322 -62 q 441 -95 414 -62 q 468 -179 468 -128 q 422 -290 468 -249 q 303 -342 375 -331 l 299 -307 z "},"T":{"ha":899,"x_min":28,"x_max":871,"o":"m 239 46 q 301 51 283 46 q 325 72 319 57 q 331 122 331 86 l 331 872 l 268 872 q 145 820 196 872 q 86 668 94 768 l 28 668 l 29 917 l 871 917 l 871 668 l 815 668 q 622 872 788 872 l 571 872 l 571 122 q 576 72 571 86 q 600 51 582 57 q 661 46 618 46 l 661 0 l 239 0 l 239 46 z "},"Ť":{"ha":899,"x_min":28,"x_max":871,"o":"m 239 46 q 301 51 283 46 q 325 72 319 57 q 331 122 331 86 l 331 872 l 268 872 q 145 820 196 872 q 86 668 94 768 l 28 668 l 29 917 l 871 917 l 871 668 l 815 668 q 622 872 788 872 l 571 872 l 571 122 q 576 72 571 86 q 600 51 582 57 q 661 46 618 46 l 661 0 l 239 0 l 239 46 m 228 1243 l 303 1243 l 451 1122 l 599 1243 l 674 1243 l 518 1006 l 383 1006 l 228 1243 z "},"Ţ":{"ha":899,"x_min":28,"x_max":871,"o":"m 871 917 l 871 668 l 815 668 q 622 872 788 872 l 571 872 l 571 122 q 576 72 571 86 q 600 51 582 57 q 661 46 618 46 l 661 0 l 479 0 l 443 -79 q 469 -74 453 -76 q 501 -72 485 -72 q 575 -97 544 -72 q 606 -165 606 -121 q 550 -255 606 -228 q 419 -282 494 -282 q 293 -261 342 -282 l 318 -208 q 397 -229 365 -229 q 444 -216 424 -229 q 464 -175 464 -203 q 451 -140 464 -153 q 415 -126 439 -126 q 392 -131 401 -126 q 382 -137 383 -136 l 358 -126 l 419 0 l 239 0 l 239 46 q 301 51 283 46 q 325 72 319 57 q 331 122 331 86 l 331 872 l 268 872 q 145 820 196 872 q 86 668 94 768 l 28 668 l 29 917 l 871 917 z "},"Ț":{"ha":899,"x_min":28,"x_max":871,"o":"m 239 46 q 301 51 283 46 q 325 72 319 57 q 331 122 331 86 l 331 872 l 268 872 q 145 820 196 872 q 86 668 94 768 l 28 668 l 29 917 l 871 917 l 871 668 l 815 668 q 622 872 788 872 l 571 872 l 571 122 q 576 72 571 86 q 600 51 582 57 q 661 46 618 46 l 661 0 l 239 0 l 239 46 m 378 -307 q 439 -285 413 -303 q 465 -246 465 -268 q 460 -235 465 -237 q 436 -232 454 -233 q 374 -206 394 -229 q 353 -149 353 -182 q 377 -87 353 -112 q 444 -62 401 -62 q 520 -95 493 -62 q 547 -179 547 -128 q 501 -290 547 -249 q 382 -342 454 -331 l 378 -307 z "},"U":{"ha":1068,"x_min":40,"x_max":1032,"o":"m 536 -17 q 230 61 325 -17 q 135 307 135 139 l 135 792 q 129 844 135 829 q 105 865 124 860 q 40 871 86 871 l 40 917 l 469 917 l 469 871 q 405 866 424 871 q 380 845 386 861 q 374 792 374 829 l 374 299 q 409 106 374 165 q 536 46 444 46 q 665 106 628 46 q 703 299 703 167 l 703 792 q 697 845 703 829 q 672 866 690 861 q 607 871 653 871 l 607 917 l 1032 917 l 1032 871 q 967 865 986 871 q 943 844 949 860 q 938 792 938 829 l 938 307 q 842 61 938 139 q 536 -17 747 -17 z "},"Ú":{"ha":1068,"x_min":40,"x_max":1032,"o":"m 536 -17 q 230 61 325 -17 q 135 307 135 139 l 135 792 q 129 844 135 829 q 105 865 124 860 q 40 871 86 871 l 40 917 l 469 917 l 469 871 q 405 866 424 871 q 380 845 386 861 q 374 792 374 829 l 374 299 q 409 106 374 165 q 536 46 444 46 q 665 106 628 46 q 703 299 703 167 l 703 792 q 697 845 703 829 q 672 866 690 861 q 607 871 653 871 l 607 917 l 1032 917 l 1032 871 q 967 865 986 871 q 943 844 949 860 q 938 792 938 829 l 938 307 q 842 61 938 139 q 536 -17 747 -17 m 518 1244 q 597 1294 542 1294 q 643 1276 624 1294 q 663 1233 663 1258 q 656 1205 663 1218 q 629 1167 650 1192 l 485 1010 l 410 1010 l 518 1244 z "},"Û":{"ha":1068,"x_min":40,"x_max":1032,"o":"m 536 -17 q 230 61 325 -17 q 135 307 135 139 l 135 792 q 129 844 135 829 q 105 865 124 860 q 40 871 86 871 l 40 917 l 469 917 l 469 871 q 405 866 424 871 q 380 845 386 861 q 374 792 374 829 l 374 299 q 409 106 374 165 q 536 46 444 46 q 665 106 628 46 q 703 299 703 167 l 703 792 q 697 845 703 829 q 672 866 690 861 q 607 871 653 871 l 607 917 l 1032 917 l 1032 871 q 967 865 986 871 q 943 844 949 860 q 938 792 938 829 l 938 307 q 842 61 938 139 q 536 -17 747 -17 m 468 1243 l 603 1243 l 758 1006 l 683 1006 l 536 1126 l 388 1006 l 313 1006 l 468 1243 z "},"Ü":{"ha":1068,"x_min":40,"x_max":1032,"o":"m 536 -17 q 230 61 325 -17 q 135 307 135 139 l 135 792 q 129 844 135 829 q 105 865 124 860 q 40 871 86 871 l 40 917 l 469 917 l 469 871 q 405 866 424 871 q 380 845 386 861 q 374 792 374 829 l 374 299 q 409 106 374 165 q 536 46 444 46 q 665 106 628 46 q 703 299 703 167 l 703 792 q 697 845 703 829 q 672 866 690 861 q 607 871 653 871 l 607 917 l 1032 917 l 1032 871 q 967 865 986 871 q 943 844 949 860 q 938 792 938 829 l 938 307 q 842 61 938 139 q 536 -17 747 -17 m 394 1017 q 322 1047 351 1017 q 292 1119 292 1078 q 322 1193 292 1163 q 394 1224 351 1224 q 467 1193 438 1224 q 497 1119 497 1163 q 467 1047 497 1078 q 394 1017 438 1017 m 678 1017 q 605 1047 635 1017 q 575 1119 575 1078 q 605 1193 575 1163 q 678 1224 635 1224 q 751 1193 721 1224 q 781 1119 781 1163 q 751 1047 781 1078 q 678 1017 721 1017 z "},"Ù":{"ha":1068,"x_min":40,"x_max":1032,"o":"m 536 -17 q 230 61 325 -17 q 135 307 135 139 l 135 792 q 129 844 135 829 q 105 865 124 860 q 40 871 86 871 l 40 917 l 469 917 l 469 871 q 405 866 424 871 q 380 845 386 861 q 374 792 374 829 l 374 299 q 409 106 374 165 q 536 46 444 46 q 665 106 628 46 q 703 299 703 167 l 703 792 q 697 845 703 829 q 672 866 690 861 q 607 871 653 871 l 607 917 l 1032 917 l 1032 871 q 967 865 986 871 q 943 844 949 860 q 938 792 938 829 l 938 307 q 842 61 938 139 q 536 -17 747 -17 m 443 1163 q 416 1201 422 1188 q 410 1229 410 1214 q 429 1272 410 1254 q 475 1290 449 1290 q 554 1240 531 1290 l 663 1006 l 588 1006 l 443 1163 z "},"Ū":{"ha":1068,"x_min":40,"x_max":1032,"o":"m 536 -17 q 230 61 325 -17 q 135 307 135 139 l 135 792 q 129 844 135 829 q 105 865 124 860 q 40 871 86 871 l 40 917 l 469 917 l 469 871 q 405 866 424 871 q 380 845 386 861 q 374 792 374 829 l 374 299 q 409 106 374 165 q 536 46 444 46 q 665 106 628 46 q 703 299 703 167 l 703 792 q 697 845 703 829 q 672 866 690 861 q 607 871 653 871 l 607 917 l 1032 917 l 1032 871 q 967 865 986 871 q 943 844 949 860 q 938 792 938 829 l 938 307 q 842 61 938 139 q 536 -17 747 -17 m 332 1181 l 739 1181 l 739 1057 l 332 1057 l 332 1181 z "},"Ų":{"ha":1068,"x_min":40,"x_max":1032,"o":"m 536 -17 q 230 61 325 -17 q 135 307 135 139 l 135 792 q 129 844 135 829 q 105 865 124 860 q 40 871 86 871 l 40 917 l 469 917 l 469 871 q 405 866 424 871 q 380 845 386 861 q 374 792 374 829 l 374 299 q 409 106 374 165 q 536 46 444 46 q 665 106 628 46 q 703 299 703 167 l 703 792 q 697 845 703 829 q 672 866 690 861 q 607 871 653 871 l 607 917 l 1032 917 l 1032 871 q 967 865 986 871 q 943 844 949 860 q 938 792 938 829 l 938 307 q 842 61 938 139 q 536 -17 747 -17 m 796 -289 q 697 -255 729 -289 q 664 -175 664 -221 q 710 -76 664 -115 q 839 1 757 -37 l 915 1 q 828 -59 861 -26 q 794 -139 794 -92 q 813 -189 794 -172 q 861 -206 831 -206 q 896 -197 882 -206 q 925 -168 910 -189 l 956 -193 q 796 -289 900 -289 z "},"Ů":{"ha":1068,"x_min":40,"x_max":1032,"o":"m 536 -17 q 230 61 325 -17 q 135 307 135 139 l 135 792 q 129 844 135 829 q 105 865 124 860 q 40 871 86 871 l 40 917 l 469 917 l 469 871 q 405 866 424 871 q 380 845 386 861 q 374 792 374 829 l 374 299 q 409 106 374 165 q 536 46 444 46 q 665 106 628 46 q 703 299 703 167 l 703 792 q 697 845 703 829 q 672 866 690 861 q 607 871 653 871 l 607 917 l 1032 917 l 1032 871 q 967 865 986 871 q 943 844 949 860 q 938 792 938 829 l 938 307 q 842 61 938 139 q 536 -17 747 -17 m 536 982 q 434 1024 476 982 q 392 1126 392 1067 q 433 1229 392 1188 q 536 1271 475 1271 q 638 1228 596 1271 q 681 1126 681 1186 q 638 1024 681 1067 q 536 982 596 982 m 536 1056 q 585 1076 565 1056 q 606 1126 606 1096 q 585 1177 606 1157 q 536 1197 565 1197 q 487 1177 507 1197 q 467 1126 467 1157 q 487 1076 467 1096 q 536 1056 507 1056 z "},"V":{"ha":943,"x_min":11,"x_max":940,"o":"m 118 801 q 80 857 103 843 q 11 871 57 871 l 11 917 l 464 917 l 464 871 l 404 871 q 358 833 358 871 q 365 803 358 824 l 572 231 l 575 231 l 769 806 q 775 836 775 821 q 731 871 775 871 l 671 871 l 671 917 l 940 917 l 940 871 q 875 851 899 871 q 833 779 851 831 l 547 0 l 407 0 l 118 801 z "},"W":{"ha":1306,"x_min":11,"x_max":1301,"o":"m 107 801 q 76 856 94 840 q 11 871 57 871 l 11 917 l 449 917 l 449 871 l 396 871 q 362 863 372 871 q 351 838 351 856 q 356 808 351 825 l 493 319 l 496 319 l 682 897 l 840 897 l 1018 331 l 1021 331 l 1146 806 q 1150 835 1150 822 q 1138 863 1150 854 q 1096 871 1125 871 l 1046 871 l 1046 917 l 1301 917 l 1301 871 q 1253 863 1271 871 q 1223 831 1236 856 q 1196 756 1210 807 l 989 0 l 878 0 l 664 676 l 661 676 l 444 0 l 340 0 l 107 801 z "},"X":{"ha":978,"x_min":18,"x_max":961,"o":"m 794 169 q 872 70 839 94 q 961 46 906 46 l 961 0 l 481 0 l 481 46 l 529 46 q 567 72 567 46 q 549 121 567 93 l 392 381 l 389 381 l 207 108 q 196 75 196 92 q 233 46 196 46 l 286 46 l 286 0 l 18 0 l 18 46 q 92 63 67 46 q 149 124 117 79 l 363 424 l 363 425 l 136 800 q 103 847 115 833 q 75 866 92 861 q 25 871 58 871 l 25 917 l 481 917 l 481 871 l 444 871 q 414 863 425 871 q 403 840 403 854 q 413 811 403 826 l 544 583 l 547 583 l 674 782 q 689 829 689 806 q 678 859 689 847 q 644 871 667 871 l 618 871 l 618 917 l 886 917 l 886 871 q 802 853 831 871 q 735 778 774 835 l 571 538 l 794 169 z "},"Y":{"ha":924,"x_min":11,"x_max":921,"o":"m 921 917 l 921 871 q 867 860 888 871 q 832 830 846 850 q 797 768 818 810 l 592 364 l 592 125 q 599 72 592 88 q 625 51 606 56 q 690 46 644 46 l 690 0 l 260 0 l 260 46 q 323 51 304 46 q 347 73 342 57 q 353 125 353 89 l 353 349 l 128 801 q 103 844 114 831 q 71 864 92 857 q 11 871 50 871 l 11 917 l 481 917 l 481 871 l 426 871 q 388 838 388 871 q 403 785 388 815 l 571 436 l 572 436 l 731 767 q 744 818 744 796 q 728 858 744 844 q 690 871 711 871 l 646 871 l 646 917 l 921 917 z "},"Ý":{"ha":924,"x_min":11,"x_max":921,"o":"m 921 917 l 921 871 q 867 860 888 871 q 832 830 846 850 q 797 768 818 810 l 592 364 l 592 125 q 599 72 592 88 q 625 51 606 56 q 690 46 644 46 l 690 0 l 260 0 l 260 46 q 323 51 304 46 q 347 73 342 57 q 353 125 353 89 l 353 349 l 128 801 q 103 844 114 831 q 71 864 92 857 q 11 871 50 871 l 11 917 l 481 917 l 481 871 l 426 871 q 388 838 388 871 q 403 785 388 815 l 571 436 l 572 436 l 731 767 q 744 818 744 796 q 728 858 744 844 q 690 871 711 871 l 646 871 l 646 917 l 921 917 m 449 1244 q 528 1294 472 1294 q 574 1276 554 1294 q 593 1233 593 1258 q 587 1205 593 1218 q 560 1167 581 1192 l 415 1010 l 340 1010 l 449 1244 z "},"Ŷ":{"ha":924,"x_min":11,"x_max":921,"o":"m 921 917 l 921 871 q 867 860 888 871 q 832 830 846 850 q 797 768 818 810 l 592 364 l 592 125 q 599 72 592 88 q 625 51 606 56 q 690 46 644 46 l 690 0 l 260 0 l 260 46 q 323 51 304 46 q 347 73 342 57 q 353 125 353 89 l 353 349 l 128 801 q 103 844 114 831 q 71 864 92 857 q 11 871 50 871 l 11 917 l 481 917 l 481 871 l 426 871 q 388 838 388 871 q 403 785 388 815 l 571 436 l 572 436 l 731 767 q 744 818 744 796 q 728 858 744 844 q 690 871 711 871 l 646 871 l 646 917 l 921 917 m 399 1243 l 533 1243 l 689 1006 l 614 1006 l 467 1126 l 318 1006 l 243 1006 l 399 1243 z "},"Ÿ":{"ha":924,"x_min":11,"x_max":921,"o":"m 921 917 l 921 871 q 867 860 888 871 q 832 830 846 850 q 797 768 818 810 l 592 364 l 592 125 q 599 72 592 88 q 625 51 606 56 q 690 46 644 46 l 690 0 l 260 0 l 260 46 q 323 51 304 46 q 347 73 342 57 q 353 125 353 89 l 353 349 l 128 801 q 103 844 114 831 q 71 864 92 857 q 11 871 50 871 l 11 917 l 481 917 l 481 871 l 426 871 q 388 838 388 871 q 403 785 388 815 l 571 436 l 572 436 l 731 767 q 744 818 744 796 q 728 858 744 844 q 690 871 711 871 l 646 871 l 646 917 l 921 917 m 325 1017 q 252 1047 282 1017 q 222 1119 222 1078 q 252 1193 222 1163 q 325 1224 282 1224 q 398 1193 368 1224 q 428 1119 428 1163 q 398 1047 428 1078 q 325 1017 368 1017 m 608 1017 q 535 1047 565 1017 q 506 1119 506 1078 q 535 1193 506 1163 q 608 1224 565 1224 q 681 1193 651 1224 q 711 1119 711 1163 q 681 1047 711 1078 q 608 1017 651 1017 z "},"Ỳ":{"ha":924,"x_min":11,"x_max":921,"o":"m 921 917 l 921 871 q 867 860 888 871 q 832 830 846 850 q 797 768 818 810 l 592 364 l 592 125 q 599 72 592 88 q 625 51 606 56 q 690 46 644 46 l 690 0 l 260 0 l 260 46 q 323 51 304 46 q 347 73 342 57 q 353 125 353 89 l 353 349 l 128 801 q 103 844 114 831 q 71 864 92 857 q 11 871 50 871 l 11 917 l 481 917 l 481 871 l 426 871 q 388 838 388 871 q 403 785 388 815 l 571 436 l 572 436 l 731 767 q 744 818 744 796 q 728 858 744 844 q 690 871 711 871 l 646 871 l 646 917 l 921 917 m 374 1163 q 347 1201 353 1188 q 340 1229 340 1214 q 360 1272 340 1254 q 406 1290 379 1290 q 485 1240 461 1290 l 593 1006 l 518 1006 l 374 1163 z "},"Z":{"ha":839,"x_min":28,"x_max":811,"o":"m 28 46 l 511 871 l 351 871 q 225 851 272 871 q 154 788 178 831 q 122 672 131 746 l 65 672 l 65 917 l 782 917 l 781 871 l 297 44 l 460 46 q 608 60 558 47 q 692 117 658 72 q 754 260 726 161 l 811 260 l 794 0 l 28 0 l 28 46 z "},"Ź":{"ha":839,"x_min":28,"x_max":811,"o":"m 28 46 l 511 871 l 351 871 q 225 851 272 871 q 154 788 178 831 q 122 672 131 746 l 65 672 l 65 917 l 782 917 l 781 871 l 297 44 l 460 46 q 608 60 558 47 q 692 117 658 72 q 754 260 726 161 l 811 260 l 794 0 l 28 0 l 28 46 m 401 1244 q 481 1294 425 1294 q 526 1276 507 1294 q 546 1233 546 1258 q 540 1205 546 1218 q 513 1167 533 1192 l 368 1010 l 293 1010 l 401 1244 z "},"Ž":{"ha":839,"x_min":28,"x_max":811,"o":"m 28 46 l 511 871 l 351 871 q 225 851 272 871 q 154 788 178 831 q 122 672 131 746 l 65 672 l 65 917 l 782 917 l 781 871 l 297 44 l 460 46 q 608 60 558 47 q 692 117 658 72 q 754 260 726 161 l 811 260 l 794 0 l 28 0 l 28 46 m 197 1243 l 272 1243 l 421 1122 l 568 1243 l 643 1243 l 488 1006 l 353 1006 l 197 1243 z "},"Ż":{"ha":839,"x_min":28,"x_max":811,"o":"m 28 46 l 511 871 l 351 871 q 225 851 272 871 q 154 788 178 831 q 122 672 131 746 l 65 672 l 65 917 l 782 917 l 781 871 l 297 44 l 460 46 q 608 60 558 47 q 692 117 658 72 q 754 260 726 161 l 811 260 l 794 0 l 28 0 l 28 46 m 419 1017 q 347 1047 376 1017 q 317 1119 317 1078 q 347 1193 317 1163 q 419 1224 376 1224 q 492 1193 463 1224 q 522 1119 522 1163 q 492 1047 522 1078 q 419 1017 463 1017 z "},"a":{"ha":746,"x_min":43,"x_max":751,"o":"m 751 29 q 669 -7 711 3 q 576 -17 626 -17 q 494 0 526 -17 q 443 42 461 17 q 249 -17 363 -17 q 43 138 43 -17 q 145 291 43 229 q 429 386 247 353 l 429 501 q 410 592 429 564 q 342 621 392 621 q 292 612 311 621 q 272 585 272 603 q 277 569 272 576 q 283 558 282 561 q 303 504 303 532 q 273 438 303 467 q 194 408 243 408 q 117 436 146 408 q 89 500 89 464 q 121 578 89 540 q 226 643 153 617 q 413 669 299 669 q 594 611 538 669 q 651 436 651 553 l 651 132 q 658 71 651 86 q 682 56 665 56 q 719 63 706 56 q 735 72 733 71 l 751 29 m 265 158 q 285 80 265 103 q 344 57 304 57 q 429 90 383 57 l 429 326 q 304 259 343 300 q 265 158 265 218 z "},"á":{"ha":746,"x_min":43,"x_max":751,"o":"m 751 29 q 669 -7 711 3 q 576 -17 626 -17 q 494 0 526 -17 q 443 42 461 17 q 249 -17 363 -17 q 43 138 43 -17 q 145 291 43 229 q 429 386 247 353 l 429 501 q 410 592 429 564 q 342 621 392 621 q 292 612 311 621 q 272 585 272 603 q 277 569 272 576 q 283 558 282 561 q 303 504 303 532 q 273 438 303 467 q 194 408 243 408 q 117 436 146 408 q 89 500 89 464 q 121 578 89 540 q 226 643 153 617 q 413 669 299 669 q 594 611 538 669 q 651 436 651 553 l 651 132 q 658 71 651 86 q 682 56 665 56 q 719 63 706 56 q 735 72 733 71 l 751 29 m 265 158 q 285 80 265 103 q 344 57 304 57 q 429 90 383 57 l 429 326 q 304 259 343 300 q 265 158 265 218 m 358 981 q 438 1031 382 1031 q 483 1013 464 1031 q 503 969 503 994 q 497 941 503 954 q 469 903 490 928 l 325 746 l 250 746 l 358 981 z "},"ă":{"ha":746,"x_min":43,"x_max":751,"o":"m 751 29 q 669 -7 711 3 q 576 -17 626 -17 q 494 0 526 -17 q 443 42 461 17 q 249 -17 363 -17 q 43 138 43 -17 q 145 291 43 229 q 429 386 247 353 l 429 501 q 410 592 429 564 q 342 621 392 621 q 292 612 311 621 q 272 585 272 603 q 277 569 272 576 q 283 558 282 561 q 303 504 303 532 q 273 438 303 467 q 194 408 243 408 q 117 436 146 408 q 89 500 89 464 q 121 578 89 540 q 226 643 153 617 q 413 669 299 669 q 594 611 538 669 q 651 436 651 553 l 651 132 q 658 71 651 86 q 682 56 665 56 q 719 63 706 56 q 735 72 733 71 l 751 29 m 265 158 q 285 80 265 103 q 344 57 304 57 q 429 90 383 57 l 429 326 q 304 259 343 300 q 265 158 265 218 m 376 739 q 261 770 308 739 q 190 852 214 801 q 167 961 167 903 l 236 961 q 282 888 240 914 q 376 863 324 863 q 470 888 428 863 q 517 961 513 914 l 586 961 q 563 852 586 903 q 492 770 539 801 q 376 739 444 739 z "},"â":{"ha":746,"x_min":43,"x_max":751,"o":"m 751 29 q 669 -7 711 3 q 576 -17 626 -17 q 494 0 526 -17 q 443 42 461 17 q 249 -17 363 -17 q 43 138 43 -17 q 145 291 43 229 q 429 386 247 353 l 429 501 q 410 592 429 564 q 342 621 392 621 q 292 612 311 621 q 272 585 272 603 q 277 569 272 576 q 283 558 282 561 q 303 504 303 532 q 273 438 303 467 q 194 408 243 408 q 117 436 146 408 q 89 500 89 464 q 121 578 89 540 q 226 643 153 617 q 413 669 299 669 q 594 611 538 669 q 651 436 651 553 l 651 132 q 658 71 651 86 q 682 56 665 56 q 719 63 706 56 q 735 72 733 71 l 751 29 m 265 158 q 285 80 265 103 q 344 57 304 57 q 429 90 383 57 l 429 326 q 304 259 343 300 q 265 158 265 218 m 308 979 l 443 979 l 599 742 l 524 742 l 376 863 l 228 742 l 153 742 l 308 979 z "},"ä":{"ha":746,"x_min":43,"x_max":751,"o":"m 751 29 q 669 -7 711 3 q 576 -17 626 -17 q 494 0 526 -17 q 443 42 461 17 q 249 -17 363 -17 q 43 138 43 -17 q 145 291 43 229 q 429 386 247 353 l 429 501 q 410 592 429 564 q 342 621 392 621 q 292 612 311 621 q 272 585 272 603 q 277 569 272 576 q 283 558 282 561 q 303 504 303 532 q 273 438 303 467 q 194 408 243 408 q 117 436 146 408 q 89 500 89 464 q 121 578 89 540 q 226 643 153 617 q 413 669 299 669 q 594 611 538 669 q 651 436 651 553 l 651 132 q 658 71 651 86 q 682 56 665 56 q 719 63 706 56 q 735 72 733 71 l 751 29 m 265 158 q 285 80 265 103 q 344 57 304 57 q 429 90 383 57 l 429 326 q 304 259 343 300 q 265 158 265 218 m 235 753 q 162 783 192 753 q 132 856 132 814 q 162 929 132 899 q 235 960 192 960 q 308 929 278 960 q 338 856 338 899 q 308 783 338 814 q 235 753 278 753 m 518 753 q 445 783 475 753 q 415 856 415 814 q 445 929 415 899 q 518 960 475 960 q 591 929 561 960 q 621 856 621 899 q 591 783 621 814 q 518 753 561 753 z "},"à":{"ha":746,"x_min":43,"x_max":751,"o":"m 751 29 q 669 -7 711 3 q 576 -17 626 -17 q 494 0 526 -17 q 443 42 461 17 q 249 -17 363 -17 q 43 138 43 -17 q 145 291 43 229 q 429 386 247 353 l 429 501 q 410 592 429 564 q 342 621 392 621 q 292 612 311 621 q 272 585 272 603 q 277 569 272 576 q 283 558 282 561 q 303 504 303 532 q 273 438 303 467 q 194 408 243 408 q 117 436 146 408 q 89 500 89 464 q 121 578 89 540 q 226 643 153 617 q 413 669 299 669 q 594 611 538 669 q 651 436 651 553 l 651 132 q 658 71 651 86 q 682 56 665 56 q 719 63 706 56 q 735 72 733 71 l 751 29 m 265 158 q 285 80 265 103 q 344 57 304 57 q 429 90 383 57 l 429 326 q 304 259 343 300 q 265 158 265 218 m 283 899 q 256 937 263 924 q 250 965 250 950 q 269 1008 250 990 q 315 1026 289 1026 q 394 976 371 1026 l 503 742 l 428 742 l 283 899 z "},"ā":{"ha":746,"x_min":43,"x_max":751,"o":"m 751 29 q 669 -7 711 3 q 576 -17 626 -17 q 494 0 526 -17 q 443 42 461 17 q 249 -17 363 -17 q 43 138 43 -17 q 145 291 43 229 q 429 386 247 353 l 429 501 q 410 592 429 564 q 342 621 392 621 q 292 612 311 621 q 272 585 272 603 q 277 569 272 576 q 283 558 282 561 q 303 504 303 532 q 273 438 303 467 q 194 408 243 408 q 117 436 146 408 q 89 500 89 464 q 121 578 89 540 q 226 643 153 617 q 413 669 299 669 q 594 611 538 669 q 651 436 651 553 l 651 132 q 658 71 651 86 q 682 56 665 56 q 719 63 706 56 q 735 72 733 71 l 751 29 m 265 158 q 285 80 265 103 q 344 57 304 57 q 429 90 383 57 l 429 326 q 304 259 343 300 q 265 158 265 218 m 172 917 l 579 917 l 579 793 l 172 793 l 172 917 z "},"ą":{"ha":746,"x_min":43,"x_max":751,"o":"m 588 -206 q 622 -197 608 -206 q 651 -168 636 -189 l 682 -193 q 522 -289 626 -289 q 423 -255 456 -289 q 390 -175 390 -221 q 430 -83 390 -121 q 536 -14 469 -46 q 443 42 474 -1 q 249 -17 363 -17 q 43 138 43 -17 q 145 291 43 229 q 429 386 247 353 l 429 501 q 410 592 429 564 q 342 621 392 621 q 292 612 311 621 q 272 585 272 603 q 277 569 272 576 q 283 558 282 561 q 303 504 303 532 q 273 438 303 467 q 194 408 243 408 q 117 436 146 408 q 89 500 89 464 q 121 578 89 540 q 226 643 153 617 q 413 669 299 669 q 594 611 538 669 q 651 436 651 553 l 651 132 q 658 71 651 86 q 682 56 665 56 q 719 63 706 56 q 735 72 733 71 l 751 29 q 611 -15 692 -11 q 521 -139 521 -68 q 539 -189 521 -172 q 588 -206 557 -206 m 265 158 q 285 80 265 103 q 344 57 304 57 q 429 90 383 57 l 429 326 q 304 259 343 300 q 265 158 265 218 z "},"å":{"ha":746,"x_min":43,"x_max":751,"o":"m 751 29 q 669 -7 711 3 q 576 -17 626 -17 q 494 0 526 -17 q 443 42 461 17 q 249 -17 363 -17 q 43 138 43 -17 q 145 291 43 229 q 429 386 247 353 l 429 501 q 410 592 429 564 q 342 621 392 621 q 292 612 311 621 q 272 585 272 603 q 277 569 272 576 q 283 558 282 561 q 303 504 303 532 q 273 438 303 467 q 194 408 243 408 q 117 436 146 408 q 89 500 89 464 q 121 578 89 540 q 226 643 153 617 q 413 669 299 669 q 594 611 538 669 q 651 436 651 553 l 651 132 q 658 71 651 86 q 682 56 665 56 q 719 63 706 56 q 735 72 733 71 l 751 29 m 265 158 q 285 80 265 103 q 344 57 304 57 q 429 90 383 57 l 429 326 q 304 259 343 300 q 265 158 265 218 m 376 718 q 274 760 317 718 q 232 863 232 803 q 274 965 232 924 q 376 1007 315 1007 q 478 965 436 1007 q 521 863 521 922 q 478 760 521 803 q 376 718 436 718 m 376 792 q 426 812 406 792 q 446 863 446 832 q 426 913 446 893 q 376 933 406 933 q 327 913 347 933 q 307 863 307 893 q 327 812 307 832 q 376 792 347 792 z "},"ã":{"ha":746,"x_min":43,"x_max":751,"o":"m 751 29 q 669 -7 711 3 q 576 -17 626 -17 q 494 0 526 -17 q 443 42 461 17 q 249 -17 363 -17 q 43 138 43 -17 q 145 291 43 229 q 429 386 247 353 l 429 501 q 410 592 429 564 q 342 621 392 621 q 292 612 311 621 q 272 585 272 603 q 277 569 272 576 q 283 558 282 561 q 303 504 303 532 q 273 438 303 467 q 194 408 243 408 q 117 436 146 408 q 89 500 89 464 q 121 578 89 540 q 226 643 153 617 q 413 669 299 669 q 594 611 538 669 q 651 436 651 553 l 651 132 q 658 71 651 86 q 682 56 665 56 q 719 63 706 56 q 735 72 733 71 l 751 29 m 265 158 q 285 80 265 103 q 344 57 304 57 q 429 90 383 57 l 429 326 q 304 259 343 300 q 265 158 265 218 m 465 758 q 411 767 436 758 q 350 793 386 776 q 296 817 318 808 q 251 825 274 825 q 199 808 218 825 q 174 765 181 792 l 126 765 q 178 899 139 844 q 289 954 217 954 q 344 945 318 954 q 400 919 369 936 q 457 894 432 903 q 510 886 482 886 q 558 901 543 886 q 578 947 574 915 l 626 947 q 576 815 615 871 q 465 758 536 758 z "},"æ":{"ha":1104,"x_min":43,"x_max":1065,"o":"m 1065 324 l 651 324 q 691 126 656 183 q 804 69 726 69 q 994 200 935 69 l 1044 176 q 941 37 1006 90 q 743 -17 876 -17 q 504 74 583 -17 q 389 8 450 32 q 247 -17 328 -17 q 95 22 147 -17 q 43 129 43 61 q 149 290 43 229 q 429 365 256 350 l 429 501 q 410 592 429 564 q 342 621 392 621 q 292 612 311 621 q 272 585 272 603 q 285 558 272 574 q 298 534 293 544 q 303 507 303 524 q 274 438 303 467 q 194 408 244 408 q 117 437 146 408 q 89 503 89 465 q 126 584 89 546 q 230 646 164 622 q 378 669 296 669 q 561 617 497 669 q 758 669 643 669 q 988 583 910 669 q 1065 332 1065 497 l 1065 324 m 833 369 q 814 567 833 510 q 743 624 794 624 q 674 569 697 624 q 651 369 651 515 l 833 369 m 343 57 q 475 113 406 57 q 429 311 429 190 q 304 255 343 293 q 265 151 265 217 q 285 78 265 100 q 343 57 306 57 z "},"b":{"ha":842,"x_min":29,"x_max":801,"o":"m 525 669 q 728 585 656 669 q 801 342 801 501 q 709 76 801 169 q 451 -17 617 -17 q 341 -1 390 -17 q 240 46 292 15 l 194 0 l 118 0 l 118 831 q 110 867 118 858 q 78 876 103 876 l 29 876 l 29 924 l 263 958 l 339 958 l 339 601 l 340 601 q 422 652 379 635 q 525 669 465 669 m 444 29 q 517 58 490 29 q 557 149 544 86 q 569 324 569 213 q 540 528 569 457 q 446 599 511 599 q 339 539 393 599 l 339 75 q 444 29 389 29 z "},"c":{"ha":690,"x_min":40,"x_max":653,"o":"m 367 -17 q 126 70 211 -17 q 40 318 40 157 q 133 578 40 488 q 385 669 226 669 q 568 622 503 669 q 633 500 633 575 q 608 428 633 456 q 531 400 583 400 q 458 422 485 400 q 431 485 431 443 q 442 531 431 508 q 450 565 450 553 q 433 608 450 592 q 379 624 415 624 q 319 601 342 624 q 284 523 296 579 q 272 365 272 467 q 288 185 272 250 q 337 95 304 121 q 426 69 369 69 q 534 101 496 69 q 603 200 572 133 l 653 176 q 600 81 628 119 q 515 13 572 42 q 367 -17 458 -17 z "},"ć":{"ha":690,"x_min":40,"x_max":653,"o":"m 367 -17 q 126 70 211 -17 q 40 318 40 157 q 133 578 40 488 q 385 669 226 669 q 568 622 503 669 q 633 500 633 575 q 608 428 633 456 q 531 400 583 400 q 458 422 485 400 q 431 485 431 443 q 442 531 431 508 q 450 565 450 553 q 433 608 450 592 q 379 624 415 624 q 319 601 342 624 q 284 523 296 579 q 272 365 272 467 q 288 185 272 250 q 337 95 304 121 q 426 69 369 69 q 534 101 496 69 q 603 200 572 133 l 653 176 q 600 81 628 119 q 515 13 572 42 q 367 -17 458 -17 m 326 981 q 406 1031 350 1031 q 451 1013 432 1031 q 471 969 471 994 q 465 941 471 954 q 438 903 458 928 l 293 746 l 218 746 l 326 981 z "},"č":{"ha":690,"x_min":40,"x_max":653,"o":"m 367 -17 q 126 70 211 -17 q 40 318 40 157 q 133 578 40 488 q 385 669 226 669 q 568 622 503 669 q 633 500 633 575 q 608 428 633 456 q 531 400 583 400 q 458 422 485 400 q 431 485 431 443 q 442 531 431 508 q 450 565 450 553 q 433 608 450 592 q 379 624 415 624 q 319 601 342 624 q 284 523 296 579 q 272 365 272 467 q 288 185 272 250 q 337 95 304 121 q 426 69 369 69 q 534 101 496 69 q 603 200 572 133 l 653 176 q 600 81 628 119 q 515 13 572 42 q 367 -17 458 -17 m 122 979 l 197 979 l 346 858 l 493 979 l 568 979 l 413 742 l 278 742 l 122 979 z "},"ç":{"ha":690,"x_min":40,"x_max":653,"o":"m 365 -17 l 338 -79 q 363 -74 347 -76 q 396 -72 379 -72 q 469 -97 439 -72 q 500 -165 500 -121 q 444 -255 500 -228 q 314 -282 389 -282 q 188 -261 236 -282 l 213 -208 q 292 -229 260 -229 q 338 -216 318 -229 q 358 -175 358 -203 q 346 -140 358 -153 q 310 -126 333 -126 q 287 -131 296 -126 q 276 -137 278 -136 l 253 -126 l 307 -12 q 110 88 179 3 q 40 318 40 174 q 133 578 40 488 q 385 669 226 669 q 568 622 503 669 q 633 500 633 575 q 608 428 633 456 q 531 400 583 400 q 458 422 485 400 q 431 485 431 443 q 442 531 431 508 q 450 565 450 553 q 433 608 450 592 q 379 624 415 624 q 319 601 342 624 q 284 523 296 579 q 272 365 272 467 q 288 185 272 250 q 337 95 304 121 q 426 69 369 69 q 534 101 496 69 q 603 200 572 133 l 653 176 q 600 81 628 119 q 515 13 572 42 q 367 -17 458 -17 l 365 -17 z "},"d":{"ha":838,"x_min":40,"x_max":807,"o":"m 807 46 l 807 0 l 517 0 l 507 60 q 415 2 461 19 q 314 -15 369 -15 q 113 70 185 -15 q 40 311 40 156 q 129 577 40 485 q 381 669 218 669 q 493 653 440 669 l 499 653 l 499 835 q 490 867 499 858 q 461 876 481 876 l 410 876 l 410 924 l 646 958 l 718 958 l 718 115 q 722 69 718 83 q 734 51 725 56 q 764 46 743 46 l 807 46 m 393 56 q 499 118 447 56 l 499 585 q 397 624 450 624 q 297 556 328 624 q 267 353 267 488 q 299 130 267 204 q 393 56 332 56 z "},"ð":{"ha":796,"x_min":40,"x_max":754,"o":"m 601 704 q 719 532 683 613 q 754 343 754 451 q 663 74 754 164 q 394 -17 572 -17 q 130 69 219 -17 q 40 325 40 156 q 129 580 40 493 q 386 667 218 667 q 450 661 417 667 l 451 663 q 364 774 410 725 l 167 688 l 126 746 l 308 825 q 147 935 246 881 l 207 982 q 413 869 339 919 l 606 954 l 646 896 l 478 822 q 601 704 539 774 m 403 29 q 497 99 472 29 q 522 317 522 169 q 496 549 522 476 q 400 621 469 621 q 301 549 331 621 q 272 326 272 476 q 301 104 272 179 q 403 29 331 29 z "},"ď":{"ha":838,"x_min":40,"x_max":960,"o":"m 807 46 l 807 0 l 517 0 l 507 60 q 415 2 461 19 q 314 -15 369 -15 q 113 70 185 -15 q 40 311 40 156 q 129 577 40 485 q 381 669 218 669 q 493 653 440 669 l 499 653 l 499 835 q 490 867 499 858 q 461 876 481 876 l 410 876 l 410 924 l 646 958 l 718 958 l 718 115 q 722 69 718 83 q 734 51 725 56 q 764 46 743 46 l 807 46 m 393 56 q 499 118 447 56 l 499 585 q 397 624 450 624 q 297 556 328 624 q 267 353 267 488 q 299 130 267 204 q 393 56 332 56 m 790 689 q 851 710 825 693 q 878 750 878 728 q 872 760 878 758 q 849 764 867 763 q 786 790 807 767 q 765 847 765 814 q 790 908 765 883 q 857 933 814 933 q 933 901 906 933 q 960 817 960 868 q 913 706 960 747 q 794 654 867 665 l 790 689 z "},"đ":{"ha":838,"x_min":40,"x_max":807,"o":"m 807 46 l 807 0 l 517 0 l 507 60 q 415 2 461 19 q 314 -15 369 -15 q 113 70 185 -15 q 40 311 40 156 q 129 577 40 485 q 381 669 218 669 q 493 653 440 669 l 499 653 l 499 765 l 325 765 l 325 825 l 499 825 l 499 835 q 490 867 499 858 q 461 876 481 876 l 410 876 l 410 924 l 646 958 l 718 958 l 718 825 l 790 825 l 790 765 l 718 765 l 718 115 q 722 69 718 83 q 734 51 725 56 q 764 46 743 46 l 807 46 m 393 56 q 499 118 447 56 l 499 585 q 397 624 450 624 q 297 556 328 624 q 267 353 267 488 q 299 130 267 204 q 393 56 332 56 z "},"e":{"ha":725,"x_min":40,"x_max":686,"o":"m 686 324 l 272 324 q 312 126 276 183 q 425 69 347 69 q 615 200 556 69 l 665 176 q 608 80 640 121 q 516 11 576 39 q 363 -17 456 -17 q 122 69 204 -17 q 40 325 40 156 q 124 583 40 496 q 369 669 208 669 q 686 332 686 669 l 686 324 m 454 369 q 435 567 454 510 q 364 624 415 624 q 295 569 318 624 q 272 369 272 515 l 454 369 z "},"é":{"ha":725,"x_min":40,"x_max":686,"o":"m 686 324 l 272 324 q 312 126 276 183 q 425 69 347 69 q 615 200 556 69 l 665 176 q 608 80 640 121 q 516 11 576 39 q 363 -17 456 -17 q 122 69 204 -17 q 40 325 40 156 q 124 583 40 496 q 369 669 208 669 q 686 332 686 669 l 686 324 m 454 369 q 435 567 454 510 q 364 624 415 624 q 295 569 318 624 q 272 369 272 515 l 454 369 m 343 981 q 422 1031 367 1031 q 468 1013 449 1031 q 488 969 488 994 q 481 941 488 954 q 454 903 475 928 l 310 746 l 235 746 l 343 981 z "},"ě":{"ha":725,"x_min":40,"x_max":686,"o":"m 686 324 l 272 324 q 312 126 276 183 q 425 69 347 69 q 615 200 556 69 l 665 176 q 608 80 640 121 q 516 11 576 39 q 363 -17 456 -17 q 122 69 204 -17 q 40 325 40 156 q 124 583 40 496 q 369 669 208 669 q 686 332 686 669 l 686 324 m 454 369 q 435 567 454 510 q 364 624 415 624 q 295 569 318 624 q 272 369 272 515 l 454 369 m 139 979 l 214 979 l 363 858 l 510 979 l 585 979 l 429 742 l 294 742 l 139 979 z "},"ê":{"ha":725,"x_min":40,"x_max":686,"o":"m 686 324 l 272 324 q 312 126 276 183 q 425 69 347 69 q 615 200 556 69 l 665 176 q 608 80 640 121 q 516 11 576 39 q 363 -17 456 -17 q 122 69 204 -17 q 40 325 40 156 q 124 583 40 496 q 369 669 208 669 q 686 332 686 669 l 686 324 m 454 369 q 435 567 454 510 q 364 624 415 624 q 295 569 318 624 q 272 369 272 515 l 454 369 m 293 979 l 428 979 l 583 742 l 508 742 l 361 863 l 213 742 l 138 742 l 293 979 z "},"ë":{"ha":725,"x_min":40,"x_max":686,"o":"m 686 324 l 272 324 q 312 126 276 183 q 425 69 347 69 q 615 200 556 69 l 665 176 q 608 80 640 121 q 516 11 576 39 q 363 -17 456 -17 q 122 69 204 -17 q 40 325 40 156 q 124 583 40 496 q 369 669 208 669 q 686 332 686 669 l 686 324 m 454 369 q 435 567 454 510 q 364 624 415 624 q 295 569 318 624 q 272 369 272 515 l 454 369 m 219 753 q 147 783 176 753 q 117 856 117 814 q 147 929 117 899 q 219 960 176 960 q 292 929 263 960 q 322 856 322 899 q 292 783 322 814 q 219 753 263 753 m 503 753 q 430 783 460 753 q 400 856 400 814 q 430 929 400 899 q 503 960 460 960 q 576 929 546 960 q 606 856 606 899 q 576 783 606 814 q 503 753 546 753 z "},"ė":{"ha":725,"x_min":40,"x_max":686,"o":"m 686 324 l 272 324 q 312 126 276 183 q 425 69 347 69 q 615 200 556 69 l 665 176 q 608 80 640 121 q 516 11 576 39 q 363 -17 456 -17 q 122 69 204 -17 q 40 325 40 156 q 124 583 40 496 q 369 669 208 669 q 686 332 686 669 l 686 324 m 454 369 q 435 567 454 510 q 364 624 415 624 q 295 569 318 624 q 272 369 272 515 l 454 369 m 361 753 q 288 783 318 753 q 258 856 258 814 q 288 929 258 899 q 361 960 318 960 q 434 929 404 960 q 464 856 464 899 q 434 783 464 814 q 361 753 404 753 z "},"è":{"ha":725,"x_min":40,"x_max":686,"o":"m 686 324 l 272 324 q 312 126 276 183 q 425 69 347 69 q 615 200 556 69 l 665 176 q 608 80 640 121 q 516 11 576 39 q 363 -17 456 -17 q 122 69 204 -17 q 40 325 40 156 q 124 583 40 496 q 369 669 208 669 q 686 332 686 669 l 686 324 m 454 369 q 435 567 454 510 q 364 624 415 624 q 295 569 318 624 q 272 369 272 515 l 454 369 m 268 899 q 241 937 247 924 q 235 965 235 950 q 254 1008 235 990 q 300 1026 274 1026 q 379 976 356 1026 l 488 742 l 413 742 l 268 899 z "},"ē":{"ha":725,"x_min":40,"x_max":686,"o":"m 686 324 l 272 324 q 312 126 276 183 q 425 69 347 69 q 615 200 556 69 l 665 176 q 608 80 640 121 q 516 11 576 39 q 363 -17 456 -17 q 122 69 204 -17 q 40 325 40 156 q 124 583 40 496 q 369 669 208 669 q 686 332 686 669 l 686 324 m 454 369 q 435 567 454 510 q 364 624 415 624 q 295 569 318 624 q 272 369 272 515 l 454 369 m 157 917 l 564 917 l 564 793 l 157 793 l 157 917 z "},"ę":{"ha":725,"x_min":40,"x_max":686,"o":"m 686 324 l 272 324 q 312 126 276 183 q 425 69 347 69 q 615 200 556 69 l 665 176 q 608 80 640 121 q 516 11 576 39 q 363 -17 456 -17 q 122 69 204 -17 q 40 325 40 156 q 124 583 40 496 q 369 669 208 669 q 686 332 686 669 l 686 324 m 454 369 q 435 567 454 510 q 364 624 415 624 q 295 569 318 624 q 272 369 272 515 l 454 369 m 497 -289 q 398 -255 431 -289 q 365 -175 365 -221 q 412 -76 365 -115 q 540 1 458 -37 l 617 1 q 529 -59 563 -26 q 496 -139 496 -92 q 514 -189 496 -172 q 563 -206 532 -206 q 597 -197 583 -206 q 626 -168 611 -189 l 657 -193 q 497 -289 601 -289 z "},"f":{"ha":482,"x_min":31,"x_max":617,"o":"m 31 46 q 89 51 71 46 q 113 69 107 56 q 119 115 119 83 l 119 607 l 31 607 l 31 653 l 119 653 l 119 719 q 155 853 119 794 q 256 944 190 911 q 407 978 321 978 q 558 940 499 978 q 617 831 617 901 q 592 759 617 786 q 519 732 567 732 q 449 756 475 732 q 422 819 422 781 q 428 850 422 839 q 444 874 433 861 q 456 890 453 883 q 460 907 460 897 q 448 934 460 925 q 418 943 436 943 q 357 899 374 943 q 340 785 340 856 l 340 653 l 461 653 l 461 607 l 340 607 l 340 115 q 349 69 340 83 q 383 51 358 56 q 461 46 407 46 l 461 0 l 31 0 l 31 46 z "},"g":{"ha":796,"x_min":21,"x_max":782,"o":"m 688 669 q 758 649 735 669 q 782 596 782 629 q 767 553 782 569 q 721 536 751 536 q 683 546 697 536 q 669 575 669 556 q 672 590 669 582 q 674 603 674 599 q 654 615 674 615 q 599 582 625 615 q 651 446 651 525 q 567 286 651 342 q 344 231 482 231 q 260 238 304 231 q 204 189 204 217 q 296 150 204 150 l 450 150 q 700 -50 700 150 q 606 -233 700 -171 q 324 -294 513 -294 q 101 -258 181 -294 q 21 -144 21 -221 q 51 -59 21 -97 q 143 6 82 -21 q 97 110 97 49 q 200 251 97 197 q 88 324 128 275 q 49 446 49 374 q 131 611 49 553 q 346 669 213 669 q 567 610 482 669 q 688 669 604 669 m 347 268 q 409 308 389 268 q 429 454 429 349 q 410 594 429 556 q 350 632 392 632 q 290 592 308 632 q 271 446 271 553 q 288 306 271 343 q 347 268 306 268 m 579 -128 q 531 -49 579 -72 q 378 -26 482 -26 l 213 -26 l 208 -26 q 161 -132 161 -68 q 357 -257 161 -257 q 519 -224 460 -257 q 579 -128 579 -192 z "},"ğ":{"ha":796,"x_min":21,"x_max":782,"o":"m 688 669 q 758 649 735 669 q 782 596 782 629 q 767 553 782 569 q 721 536 751 536 q 683 546 697 536 q 669 575 669 556 q 672 590 669 582 q 674 603 674 599 q 654 615 674 615 q 599 582 625 615 q 651 446 651 525 q 567 286 651 342 q 344 231 482 231 q 260 238 304 231 q 204 189 204 217 q 296 150 204 150 l 450 150 q 700 -50 700 150 q 606 -233 700 -171 q 324 -294 513 -294 q 101 -258 181 -294 q 21 -144 21 -221 q 51 -59 21 -97 q 143 6 82 -21 q 97 110 97 49 q 200 251 97 197 q 88 324 128 275 q 49 446 49 374 q 131 611 49 553 q 346 669 213 669 q 567 610 482 669 q 688 669 604 669 m 347 268 q 409 308 389 268 q 429 454 429 349 q 410 594 429 556 q 350 632 392 632 q 290 592 308 632 q 271 446 271 553 q 288 306 271 343 q 347 268 306 268 m 579 -128 q 531 -49 579 -72 q 378 -26 482 -26 l 213 -26 l 208 -26 q 161 -132 161 -68 q 357 -257 161 -257 q 519 -224 460 -257 q 579 -128 579 -192 m 378 739 q 263 770 310 739 q 192 852 215 801 q 168 961 168 903 l 238 961 q 283 888 242 914 q 378 863 325 863 q 472 888 429 863 q 518 961 514 914 l 588 961 q 564 852 588 903 q 493 770 540 801 q 378 739 446 739 z "},"ģ":{"ha":796,"x_min":21,"x_max":782,"o":"m 383 715 q 308 748 335 715 q 281 832 281 781 q 327 942 281 901 q 446 994 374 983 l 450 960 q 389 938 415 956 q 363 899 363 921 q 368 888 363 890 q 392 885 374 886 q 454 858 433 882 q 475 801 475 835 q 451 740 475 765 q 383 715 426 715 m 688 669 q 758 649 735 669 q 782 596 782 629 q 767 553 782 569 q 721 536 751 536 q 683 546 697 536 q 669 575 669 556 q 672 590 669 582 q 674 603 674 599 q 654 615 674 615 q 599 582 625 615 q 651 446 651 525 q 567 286 651 342 q 344 231 482 231 q 260 238 304 231 q 204 189 204 217 q 296 150 204 150 l 450 150 q 700 -50 700 150 q 606 -233 700 -171 q 324 -294 513 -294 q 101 -258 181 -294 q 21 -144 21 -221 q 51 -59 21 -97 q 143 6 82 -21 q 97 110 97 49 q 200 251 97 197 q 88 324 128 275 q 49 446 49 374 q 131 611 49 553 q 346 669 213 669 q 567 610 482 669 q 688 669 604 669 m 347 268 q 409 308 389 268 q 429 454 429 349 q 410 594 429 556 q 350 632 392 632 q 290 592 308 632 q 271 446 271 553 q 288 306 271 343 q 347 268 306 268 m 579 -128 q 531 -49 579 -72 q 378 -26 482 -26 l 213 -26 l 208 -26 q 161 -132 161 -68 q 357 -257 161 -257 q 519 -224 460 -257 q 579 -128 579 -192 z "},"h":{"ha":875,"x_min":29,"x_max":846,"o":"m 765 115 q 771 71 765 85 q 793 51 776 57 q 846 46 810 46 l 846 0 l 478 0 l 478 46 q 522 51 508 46 q 540 68 536 56 q 544 108 544 81 l 544 442 q 522 554 544 521 q 454 588 499 588 q 399 573 424 588 q 339 522 375 558 l 339 115 q 353 58 339 71 q 414 46 367 46 l 414 0 l 29 0 l 29 46 q 88 51 69 46 q 112 69 106 56 q 118 115 118 83 l 118 831 q 110 867 118 858 q 78 876 103 876 l 29 876 l 29 922 l 265 958 l 339 958 l 339 576 l 340 576 q 556 669 425 669 q 765 442 765 669 l 765 115 z "},"i":{"ha":443,"x_min":29,"x_max":414,"o":"m 222 726 q 131 763 171 726 q 92 850 92 799 q 131 937 92 900 q 222 974 171 974 q 312 937 272 974 q 351 850 351 900 q 313 763 351 800 q 222 726 274 726 m 29 46 q 88 51 69 46 q 112 69 106 56 q 118 115 118 83 l 118 532 q 110 569 118 560 q 78 578 103 578 l 29 578 l 29 624 l 263 660 l 339 660 l 339 115 q 353 58 339 71 q 414 46 367 46 l 414 0 l 29 0 l 29 46 z "},"ı":{"ha":429,"x_min":22,"x_max":407,"o":"m 22 46 q 81 51 63 46 q 105 69 99 56 q 111 115 111 83 l 111 532 q 103 569 111 560 q 71 578 96 578 l 22 578 l 22 624 l 256 660 l 332 660 l 332 115 q 346 58 332 71 q 407 46 360 46 l 407 0 l 22 0 l 22 46 z "},"í":{"ha":429,"x_min":22,"x_max":407,"o":"m 22 46 q 81 51 63 46 q 105 69 99 56 q 111 115 111 83 l 111 532 q 103 569 111 560 q 71 578 96 578 l 22 578 l 22 624 l 256 660 l 332 660 l 332 115 q 346 58 332 71 q 407 46 360 46 l 407 0 l 22 0 l 22 46 m 197 981 q 276 1031 221 1031 q 322 1013 303 1031 q 342 969 342 994 q 335 941 342 954 q 308 903 329 928 l 164 746 l 89 746 l 197 981 z "},"î":{"ha":429,"x_min":-8,"x_max":438,"o":"m 22 46 q 81 51 63 46 q 105 69 99 56 q 111 115 111 83 l 111 532 q 103 569 111 560 q 71 578 96 578 l 22 578 l 22 624 l 256 660 l 332 660 l 332 115 q 346 58 332 71 q 407 46 360 46 l 407 0 l 22 0 l 22 46 m 147 979 l 282 979 l 438 742 l 363 742 l 215 863 l 67 742 l -8 742 l 147 979 z "},"ï":{"ha":429,"x_min":-29,"x_max":460,"o":"m 22 46 q 81 51 63 46 q 105 69 99 56 q 111 115 111 83 l 111 532 q 103 569 111 560 q 71 578 96 578 l 22 578 l 22 624 l 256 660 l 332 660 l 332 115 q 346 58 332 71 q 407 46 360 46 l 407 0 l 22 0 l 22 46 m 74 753 q 1 783 31 753 q -29 856 -29 814 q 1 929 -29 899 q 74 960 31 960 q 147 929 117 960 q 176 856 176 899 q 147 783 176 814 q 74 753 117 753 m 357 753 q 284 783 314 753 q 254 856 254 814 q 284 929 254 899 q 357 960 314 960 q 430 929 400 960 q 460 856 460 899 q 430 783 460 814 q 357 753 400 753 z "},"ì":{"ha":429,"x_min":22,"x_max":407,"o":"m 22 46 q 81 51 63 46 q 105 69 99 56 q 111 115 111 83 l 111 532 q 103 569 111 560 q 71 578 96 578 l 22 578 l 22 624 l 256 660 l 332 660 l 332 115 q 346 58 332 71 q 407 46 360 46 l 407 0 l 22 0 l 22 46 m 122 899 q 95 937 101 924 q 89 965 89 950 q 108 1008 89 990 q 154 1026 128 1026 q 233 976 210 1026 l 342 742 l 267 742 l 122 899 z "},"ī":{"ha":429,"x_min":11,"x_max":418,"o":"m 22 46 q 81 51 63 46 q 105 69 99 56 q 111 115 111 83 l 111 532 q 103 569 111 560 q 71 578 96 578 l 22 578 l 22 624 l 256 660 l 332 660 l 332 115 q 346 58 332 71 q 407 46 360 46 l 407 0 l 22 0 l 22 46 m 11 917 l 418 917 l 418 793 l 11 793 l 11 917 z "},"į":{"ha":443,"x_min":29,"x_max":414,"o":"m 222 726 q 131 763 171 726 q 92 850 92 799 q 131 937 92 900 q 222 974 171 974 q 312 937 272 974 q 351 850 351 900 q 313 763 351 800 q 222 726 274 726 m 282 0 q 197 -60 229 -28 q 164 -139 164 -93 q 182 -189 164 -172 q 231 -206 200 -206 q 265 -197 251 -206 q 294 -168 279 -189 l 325 -193 q 165 -289 269 -289 q 66 -255 99 -289 q 33 -175 33 -221 q 80 -78 33 -117 q 206 0 126 -39 l 29 0 l 29 46 q 88 51 69 46 q 112 69 106 56 q 118 115 118 83 l 118 532 q 110 569 118 560 q 78 578 103 578 l 29 578 l 29 624 l 263 660 l 339 660 l 339 115 q 353 58 339 71 q 414 46 367 46 l 414 0 l 282 0 z "},"j":{"ha":399,"x_min":-164,"x_max":313,"o":"m 183 726 q 92 763 132 726 q 53 850 53 799 q 92 937 53 900 q 183 974 132 974 q 273 937 233 974 q 313 850 313 900 q 274 763 313 800 q 183 726 235 726 m 46 -294 q -51 -278 -3 -294 q -131 -229 -99 -262 q -164 -146 -164 -196 q -137 -77 -164 -107 q -69 -47 -110 -47 q 1 -69 -28 -47 q 29 -131 29 -90 q 23 -164 29 -151 q 6 -190 17 -176 q -6 -208 -1 -199 q -11 -228 -11 -217 q 2 -249 -11 -240 q 28 -257 15 -257 q 63 -244 53 -257 q 76 -199 74 -232 q 79 -83 79 -167 l 79 532 q 72 569 79 560 q 39 578 64 578 l -10 578 l -10 624 l 224 660 l 300 660 l 300 3 q 233 -214 300 -133 q 46 -294 167 -294 z "},"k":{"ha":842,"x_min":29,"x_max":840,"o":"m 840 46 l 840 0 l 456 0 l 456 46 l 481 46 q 499 49 494 46 q 504 60 504 53 q 492 87 504 67 q 474 115 479 107 l 356 307 l 339 293 l 339 115 q 342 69 339 82 q 359 51 346 56 q 404 46 372 46 l 404 0 l 29 0 l 29 46 q 88 51 69 46 q 112 69 106 56 q 118 115 118 83 l 118 831 q 110 867 118 858 q 78 876 103 876 l 29 876 l 29 922 l 265 958 l 339 958 l 339 357 l 517 514 q 568 588 568 560 q 538 608 568 608 l 501 608 l 501 654 l 772 653 l 772 607 l 767 607 q 678 582 718 607 q 575 500 639 557 l 544 474 l 510 443 l 696 176 q 774 77 743 108 q 826 46 804 46 l 840 46 z "},"ķ":{"ha":842,"x_min":29,"x_max":840,"o":"m 840 46 l 840 0 l 456 0 l 456 46 l 481 46 q 499 49 494 46 q 504 60 504 53 q 492 87 504 67 q 474 115 479 107 l 356 307 l 339 293 l 339 115 q 342 69 339 82 q 359 51 346 56 q 404 46 372 46 l 404 0 l 29 0 l 29 46 q 88 51 69 46 q 112 69 106 56 q 118 115 118 83 l 118 831 q 110 867 118 858 q 78 876 103 876 l 29 876 l 29 922 l 265 958 l 339 958 l 339 357 l 517 514 q 568 588 568 560 q 538 608 568 608 l 501 608 l 501 654 l 772 653 l 772 607 l 767 607 q 678 582 718 607 q 575 500 639 557 l 544 474 l 510 443 l 696 176 q 774 77 743 108 q 826 46 804 46 l 840 46 m 353 -307 q 414 -285 388 -303 q 440 -246 440 -268 q 435 -235 440 -237 q 411 -232 429 -233 q 349 -206 369 -229 q 328 -149 328 -182 q 352 -87 328 -112 q 419 -62 376 -62 q 495 -95 468 -62 q 522 -179 522 -128 q 476 -290 522 -249 q 357 -342 429 -331 l 353 -307 z "},"l":{"ha":446,"x_min":29,"x_max":414,"o":"m 29 46 q 88 51 69 46 q 112 69 106 56 q 118 115 118 83 l 118 831 q 110 867 118 858 q 78 876 103 876 l 29 876 l 29 922 l 265 958 l 339 958 l 339 115 q 353 58 339 71 q 414 46 367 46 l 414 0 l 29 0 l 29 46 z "},"ĺ":{"ha":446,"x_min":29,"x_max":414,"o":"m 29 46 q 88 51 69 46 q 112 69 106 56 q 118 115 118 83 l 118 831 q 110 867 118 858 q 78 876 103 876 l 29 876 l 29 922 l 265 958 l 339 958 l 339 115 q 353 58 339 71 q 414 46 367 46 l 414 0 l 29 0 l 29 46 m 204 1244 q 283 1294 228 1294 q 329 1276 310 1294 q 349 1233 349 1258 q 342 1205 349 1218 q 315 1167 336 1192 l 171 1010 l 96 1010 l 204 1244 z "},"ľ":{"ha":446,"x_min":29,"x_max":575,"o":"m 29 46 q 88 51 69 46 q 112 69 106 56 q 118 115 118 83 l 118 831 q 110 867 118 858 q 78 876 103 876 l 29 876 l 29 922 l 265 958 l 339 958 l 339 115 q 353 58 339 71 q 414 46 367 46 l 414 0 l 29 0 l 29 46 m 406 689 q 467 710 440 693 q 493 750 493 728 q 488 760 493 758 q 464 764 482 763 q 401 790 422 767 q 381 847 381 814 q 405 908 381 883 q 472 933 429 933 q 548 901 521 933 q 575 817 575 868 q 528 706 575 747 q 410 654 482 665 l 406 689 z "},"ļ":{"ha":446,"x_min":29,"x_max":414,"o":"m 29 46 q 88 51 69 46 q 112 69 106 56 q 118 115 118 83 l 118 831 q 110 867 118 858 q 78 876 103 876 l 29 876 l 29 922 l 265 958 l 339 958 l 339 115 q 353 58 339 71 q 414 46 367 46 l 414 0 l 29 0 l 29 46 m 150 -307 q 211 -285 185 -303 q 238 -246 238 -268 q 232 -235 238 -237 q 208 -232 226 -233 q 146 -206 167 -229 q 125 -149 125 -182 q 149 -87 125 -112 q 217 -62 174 -62 q 292 -95 265 -62 q 319 -179 319 -128 q 273 -290 319 -249 q 154 -342 226 -331 l 150 -307 z "},"ł":{"ha":444,"x_min":26,"x_max":425,"o":"m 350 115 q 364 58 350 71 q 425 46 378 46 l 425 0 l 40 0 l 40 46 q 99 51 81 46 q 123 69 117 56 q 129 115 129 83 l 129 431 l 26 367 l 26 453 l 129 517 l 129 831 q 122 867 129 858 q 89 876 114 876 l 40 876 l 40 922 l 276 958 l 350 958 l 350 654 l 411 692 l 411 606 l 350 568 l 350 115 z "},"m":{"ha":1297,"x_min":26,"x_max":1269,"o":"m 1189 115 q 1194 71 1189 85 q 1217 51 1200 57 q 1269 46 1233 46 l 1269 0 l 899 0 l 899 46 q 956 58 943 46 q 968 108 968 69 l 968 442 q 943 553 968 519 q 872 588 918 588 q 800 558 828 588 q 763 476 772 528 l 763 115 q 767 71 763 85 q 787 51 772 57 q 835 46 801 46 l 835 0 l 475 0 l 475 46 q 519 51 506 46 q 538 68 533 56 q 542 108 542 81 l 542 442 q 519 554 542 521 q 451 588 496 588 q 397 573 421 588 q 336 522 372 558 l 336 115 q 350 58 336 71 q 411 46 364 46 l 411 0 l 26 0 l 26 46 q 85 51 67 46 q 109 69 103 56 q 115 115 115 83 l 115 532 q 108 569 115 560 q 75 578 100 578 l 26 578 l 26 624 l 256 660 l 329 660 l 329 568 l 331 568 q 423 642 371 614 q 553 669 475 669 q 677 642 628 669 q 747 564 726 614 q 831 644 779 618 q 963 669 883 669 q 1131 616 1072 669 q 1189 442 1189 563 l 1189 115 z "},"n":{"ha":872,"x_min":26,"x_max":843,"o":"m 763 115 q 768 71 763 85 q 790 51 774 57 q 843 46 807 46 l 843 0 l 475 0 l 475 46 q 519 51 506 46 q 538 68 533 56 q 542 108 542 81 l 542 442 q 519 554 542 521 q 451 588 496 588 q 397 573 421 588 q 336 522 372 558 l 336 115 q 350 58 336 71 q 411 46 364 46 l 411 0 l 26 0 l 26 46 q 85 51 67 46 q 109 69 103 56 q 115 115 115 83 l 115 532 q 108 569 115 560 q 75 578 100 578 l 26 578 l 26 624 l 256 660 l 329 660 l 329 568 l 331 568 q 422 641 369 613 q 553 669 474 669 q 763 442 763 669 l 763 115 z "},"ń":{"ha":872,"x_min":26,"x_max":843,"o":"m 763 115 q 768 71 763 85 q 790 51 774 57 q 843 46 807 46 l 843 0 l 475 0 l 475 46 q 519 51 506 46 q 538 68 533 56 q 542 108 542 81 l 542 442 q 519 554 542 521 q 451 588 496 588 q 397 573 421 588 q 336 522 372 558 l 336 115 q 350 58 336 71 q 411 46 364 46 l 411 0 l 26 0 l 26 46 q 85 51 67 46 q 109 69 103 56 q 115 115 115 83 l 115 532 q 108 569 115 560 q 75 578 100 578 l 26 578 l 26 624 l 256 660 l 329 660 l 329 568 l 331 568 q 422 641 369 613 q 553 669 474 669 q 763 442 763 669 l 763 115 m 417 981 q 496 1031 440 1031 q 542 1013 522 1031 q 561 969 561 994 q 555 941 561 954 q 528 903 549 928 l 383 746 l 308 746 l 417 981 z "},"ň":{"ha":872,"x_min":26,"x_max":843,"o":"m 763 115 q 768 71 763 85 q 790 51 774 57 q 843 46 807 46 l 843 0 l 475 0 l 475 46 q 519 51 506 46 q 538 68 533 56 q 542 108 542 81 l 542 442 q 519 554 542 521 q 451 588 496 588 q 397 573 421 588 q 336 522 372 558 l 336 115 q 350 58 336 71 q 411 46 364 46 l 411 0 l 26 0 l 26 46 q 85 51 67 46 q 109 69 103 56 q 115 115 115 83 l 115 532 q 108 569 115 560 q 75 578 100 578 l 26 578 l 26 624 l 256 660 l 329 660 l 329 568 l 331 568 q 422 641 369 613 q 553 669 474 669 q 763 442 763 669 l 763 115 m 213 979 l 288 979 l 436 858 l 583 979 l 658 979 l 503 742 l 368 742 l 213 979 z "},"ņ":{"ha":872,"x_min":26,"x_max":843,"o":"m 763 115 q 768 71 763 85 q 790 51 774 57 q 843 46 807 46 l 843 0 l 475 0 l 475 46 q 519 51 506 46 q 538 68 533 56 q 542 108 542 81 l 542 442 q 519 554 542 521 q 451 588 496 588 q 397 573 421 588 q 336 522 372 558 l 336 115 q 350 58 336 71 q 411 46 364 46 l 411 0 l 26 0 l 26 46 q 85 51 67 46 q 109 69 103 56 q 115 115 115 83 l 115 532 q 108 569 115 560 q 75 578 100 578 l 26 578 l 26 624 l 256 660 l 329 660 l 329 568 l 331 568 q 422 641 369 613 q 553 669 474 669 q 763 442 763 669 l 763 115 m 363 -307 q 424 -285 397 -303 q 450 -246 450 -268 q 444 -235 450 -237 q 421 -232 439 -233 q 358 -206 379 -229 q 338 -149 338 -182 q 362 -87 338 -112 q 429 -62 386 -62 q 505 -95 478 -62 q 532 -179 532 -128 q 485 -290 532 -249 q 367 -342 439 -331 l 363 -307 z "},"ñ":{"ha":872,"x_min":26,"x_max":843,"o":"m 763 115 q 768 71 763 85 q 790 51 774 57 q 843 46 807 46 l 843 0 l 475 0 l 475 46 q 519 51 506 46 q 538 68 533 56 q 542 108 542 81 l 542 442 q 519 554 542 521 q 451 588 496 588 q 397 573 421 588 q 336 522 372 558 l 336 115 q 350 58 336 71 q 411 46 364 46 l 411 0 l 26 0 l 26 46 q 85 51 67 46 q 109 69 103 56 q 115 115 115 83 l 115 532 q 108 569 115 560 q 75 578 100 578 l 26 578 l 26 624 l 256 660 l 329 660 l 329 568 l 331 568 q 422 641 369 613 q 553 669 474 669 q 763 442 763 669 l 763 115 m 524 758 q 469 767 494 758 q 408 793 444 776 q 354 817 376 808 q 310 825 332 825 q 258 808 276 825 q 232 765 239 792 l 185 765 q 236 899 197 844 q 347 954 275 954 q 402 945 376 954 q 458 919 428 936 q 515 894 490 903 q 568 886 540 886 q 617 901 601 886 q 636 947 632 915 l 685 947 q 634 815 674 871 q 524 758 594 758 z "},"o":{"ha":794,"x_min":40,"x_max":756,"o":"m 399 -17 q 128 68 217 -17 q 40 325 40 153 q 130 585 40 500 q 401 669 219 669 q 668 585 581 669 q 756 328 756 501 q 668 68 756 153 q 399 -17 581 -17 m 400 28 q 494 94 465 28 q 524 306 524 160 q 496 550 524 475 q 397 625 468 625 q 301 549 329 625 q 272 321 272 474 q 301 95 272 163 q 400 28 329 28 z "},"ó":{"ha":794,"x_min":40,"x_max":756,"o":"m 399 -17 q 128 68 217 -17 q 40 325 40 153 q 130 585 40 500 q 401 669 219 669 q 668 585 581 669 q 756 328 756 501 q 668 68 756 153 q 399 -17 581 -17 m 400 28 q 494 94 465 28 q 524 306 524 160 q 496 550 524 475 q 397 625 468 625 q 301 549 329 625 q 272 321 272 474 q 301 95 272 163 q 400 28 329 28 m 381 981 q 460 1031 404 1031 q 506 1013 486 1031 q 525 969 525 994 q 519 941 525 954 q 492 903 513 928 l 347 746 l 272 746 l 381 981 z "},"ô":{"ha":794,"x_min":40,"x_max":756,"o":"m 399 -17 q 128 68 217 -17 q 40 325 40 153 q 130 585 40 500 q 401 669 219 669 q 668 585 581 669 q 756 328 756 501 q 668 68 756 153 q 399 -17 581 -17 m 400 28 q 494 94 465 28 q 524 306 524 160 q 496 550 524 475 q 397 625 468 625 q 301 549 329 625 q 272 321 272 474 q 301 95 272 163 q 400 28 329 28 m 331 979 l 465 979 l 621 742 l 546 742 l 399 863 l 250 742 l 175 742 l 331 979 z "},"ö":{"ha":794,"x_min":40,"x_max":756,"o":"m 399 -17 q 128 68 217 -17 q 40 325 40 153 q 130 585 40 500 q 401 669 219 669 q 668 585 581 669 q 756 328 756 501 q 668 68 756 153 q 399 -17 581 -17 m 400 28 q 494 94 465 28 q 524 306 524 160 q 496 550 524 475 q 397 625 468 625 q 301 549 329 625 q 272 321 272 474 q 301 95 272 163 q 400 28 329 28 m 257 753 q 184 783 214 753 q 154 856 154 814 q 184 929 154 899 q 257 960 214 960 q 330 929 300 960 q 360 856 360 899 q 330 783 360 814 q 257 753 300 753 m 540 753 q 467 783 497 753 q 438 856 438 814 q 467 929 438 899 q 540 960 497 960 q 613 929 583 960 q 643 856 643 899 q 613 783 643 814 q 540 753 583 753 z "},"ò":{"ha":794,"x_min":40,"x_max":756,"o":"m 399 -17 q 128 68 217 -17 q 40 325 40 153 q 130 585 40 500 q 401 669 219 669 q 668 585 581 669 q 756 328 756 501 q 668 68 756 153 q 399 -17 581 -17 m 400 28 q 494 94 465 28 q 524 306 524 160 q 496 550 524 475 q 397 625 468 625 q 301 549 329 625 q 272 321 272 474 q 301 95 272 163 q 400 28 329 28 m 306 899 q 278 937 285 924 q 272 965 272 950 q 292 1008 272 990 q 338 1026 311 1026 q 417 976 393 1026 l 525 742 l 450 742 l 306 899 z "},"ō":{"ha":794,"x_min":40,"x_max":756,"o":"m 399 -17 q 128 68 217 -17 q 40 325 40 153 q 130 585 40 500 q 401 669 219 669 q 668 585 581 669 q 756 328 756 501 q 668 68 756 153 q 399 -17 581 -17 m 400 28 q 494 94 465 28 q 524 306 524 160 q 496 550 524 475 q 397 625 468 625 q 301 549 329 625 q 272 321 272 474 q 301 95 272 163 q 400 28 329 28 m 194 917 l 601 917 l 601 793 l 194 793 l 194 917 z "},"ø":{"ha":794,"x_min":40,"x_max":756,"o":"m 643 607 q 756 328 756 524 q 668 68 756 153 q 399 -17 581 -17 q 164 40 250 -17 l 124 -8 l 43 -8 l 117 79 q 40 325 40 164 q 130 585 40 500 q 401 669 219 669 q 589 638 513 669 l 610 661 l 689 661 l 643 607 m 272 321 q 274 264 272 282 l 501 533 q 461 603 486 581 q 397 625 436 625 q 301 549 329 625 q 272 321 272 474 m 400 28 q 494 94 465 28 q 524 306 524 160 q 517 457 524 388 l 281 176 q 319 63 292 99 q 400 28 347 28 z "},"õ":{"ha":794,"x_min":40,"x_max":756,"o":"m 399 -17 q 128 68 217 -17 q 40 325 40 153 q 130 585 40 500 q 401 669 219 669 q 668 585 581 669 q 756 328 756 501 q 668 68 756 153 q 399 -17 581 -17 m 400 28 q 494 94 465 28 q 524 306 524 160 q 496 550 524 475 q 397 625 468 625 q 301 549 329 625 q 272 321 272 474 q 301 95 272 163 q 400 28 329 28 m 488 758 q 433 767 458 758 q 372 793 408 776 q 318 817 340 808 q 274 825 296 825 q 222 808 240 825 q 196 765 203 792 l 149 765 q 200 899 161 844 q 311 954 239 954 q 366 945 340 954 q 422 919 392 936 q 479 894 454 903 q 532 886 504 886 q 581 901 565 886 q 600 947 596 915 l 649 947 q 598 815 638 871 q 488 758 558 758 z "},"œ":{"ha":1208,"x_min":40,"x_max":1169,"o":"m 1169 324 l 756 324 q 774 173 758 228 q 823 94 790 118 q 908 69 856 69 q 1099 200 1039 69 l 1149 176 q 1052 39 1114 94 q 867 -17 990 -17 q 635 67 725 -17 q 376 -17 535 -17 q 128 69 217 -17 q 40 325 40 156 q 130 583 40 497 q 383 669 219 669 q 638 592 542 669 q 865 669 729 669 q 1090 580 1010 669 q 1169 336 1169 490 l 1169 324 m 397 28 q 496 97 467 28 q 524 322 525 167 l 524 325 l 524 329 q 494 553 522 482 q 399 625 467 625 q 301 549 329 625 q 272 318 272 474 q 300 97 272 165 q 397 28 328 28 m 938 369 q 930 524 938 469 q 903 601 922 578 q 851 624 885 624 q 779 569 803 624 q 756 369 756 515 l 938 369 z "},"p":{"ha":843,"x_min":25,"x_max":804,"o":"m 528 669 q 731 585 658 669 q 804 342 804 501 q 712 76 804 169 q 454 -17 619 -17 q 335 3 389 -17 l 335 -162 q 349 -219 335 -207 q 410 -232 363 -232 l 410 -278 l 25 -278 l 25 -232 q 83 -227 65 -232 q 108 -208 101 -222 q 114 -162 114 -194 l 114 532 q 106 569 114 560 q 74 578 99 578 l 25 578 l 25 624 l 254 660 l 328 660 l 328 589 l 329 589 q 416 649 371 628 q 528 669 461 669 m 447 29 q 520 58 493 29 q 560 149 547 86 q 572 324 572 213 q 543 528 572 457 q 449 599 514 599 q 335 531 390 599 l 335 82 q 447 29 388 29 z "},"þ":{"ha":842,"x_min":22,"x_max":801,"o":"m 525 669 q 728 585 656 669 q 801 342 801 501 q 709 76 801 169 q 451 -17 617 -17 q 332 3 386 -17 l 332 -162 q 346 -219 332 -207 q 407 -232 360 -232 l 407 -278 l 22 -278 l 22 -232 q 81 -227 63 -232 q 105 -208 99 -222 q 111 -162 111 -194 l 111 831 q 103 867 111 858 q 71 876 96 876 l 22 876 l 22 922 l 258 958 l 332 958 l 332 594 q 417 650 372 631 q 525 669 461 669 m 444 29 q 517 58 490 29 q 557 149 544 86 q 569 324 569 213 q 540 528 569 457 q 446 599 511 599 q 332 531 388 599 l 332 82 q 444 29 385 29 z "},"q":{"ha":840,"x_min":40,"x_max":819,"o":"m 731 -162 q 738 -207 731 -193 q 763 -226 744 -221 q 819 -232 781 -232 l 819 -278 l 421 -278 l 421 -232 q 479 -227 461 -232 q 503 -208 497 -222 q 510 -162 510 -194 l 510 58 l 506 58 q 417 1 461 18 q 314 -15 372 -15 q 113 70 185 -15 q 40 311 40 156 q 129 577 40 485 q 381 669 218 669 q 561 610 493 669 l 657 660 l 731 660 l 731 -162 m 393 56 q 510 129 454 56 l 510 581 q 397 624 460 624 q 297 556 328 624 q 267 353 267 488 q 299 130 267 204 q 393 56 332 56 z "},"r":{"ha":650,"x_min":26,"x_max":636,"o":"m 510 665 q 601 633 565 665 q 636 543 636 600 q 610 463 636 496 q 531 429 585 429 q 458 453 486 429 q 431 518 431 476 q 440 556 431 543 q 449 572 449 569 q 435 581 449 581 q 390 545 413 581 q 351 460 367 510 q 336 372 336 411 l 336 115 q 344 71 336 85 q 372 51 351 57 q 436 46 392 46 l 436 0 l 26 0 l 26 46 q 85 51 67 46 q 109 69 103 56 q 115 115 115 83 l 115 532 q 108 569 115 560 q 75 578 100 578 l 26 578 l 26 624 l 256 660 l 329 660 l 329 528 l 331 528 q 510 665 396 665 z "},"ŕ":{"ha":650,"x_min":26,"x_max":636,"o":"m 510 665 q 601 633 565 665 q 636 543 636 600 q 610 463 636 496 q 531 429 585 429 q 458 453 486 429 q 431 518 431 476 q 440 556 431 543 q 449 572 449 569 q 435 581 449 581 q 390 545 413 581 q 351 460 367 510 q 336 372 336 411 l 336 115 q 344 71 336 85 q 372 51 351 57 q 436 46 392 46 l 436 0 l 26 0 l 26 46 q 85 51 67 46 q 109 69 103 56 q 115 115 115 83 l 115 532 q 108 569 115 560 q 75 578 100 578 l 26 578 l 26 624 l 256 660 l 329 660 l 329 528 l 331 528 q 510 665 396 665 m 321 981 q 400 1031 344 1031 q 446 1013 426 1031 q 465 969 465 994 q 459 941 465 954 q 432 903 453 928 l 288 746 l 213 746 l 321 981 z "},"ř":{"ha":650,"x_min":26,"x_max":636,"o":"m 510 665 q 601 633 565 665 q 636 543 636 600 q 610 463 636 496 q 531 429 585 429 q 458 453 486 429 q 431 518 431 476 q 440 556 431 543 q 449 572 449 569 q 435 581 449 581 q 390 545 413 581 q 351 460 367 510 q 336 372 336 411 l 336 115 q 344 71 336 85 q 372 51 351 57 q 436 46 392 46 l 436 0 l 26 0 l 26 46 q 85 51 67 46 q 109 69 103 56 q 115 115 115 83 l 115 532 q 108 569 115 560 q 75 578 100 578 l 26 578 l 26 624 l 256 660 l 329 660 l 329 528 l 331 528 q 510 665 396 665 m 117 979 l 192 979 l 340 858 l 488 979 l 563 979 l 407 742 l 272 742 l 117 979 z "},"ŗ":{"ha":650,"x_min":26,"x_max":636,"o":"m 510 665 q 601 633 565 665 q 636 543 636 600 q 610 463 636 496 q 531 429 585 429 q 458 453 486 429 q 431 518 431 476 q 440 556 431 543 q 449 572 449 569 q 435 581 449 581 q 390 545 413 581 q 351 460 367 510 q 336 372 336 411 l 336 115 q 344 71 336 85 q 372 51 351 57 q 436 46 392 46 l 436 0 l 26 0 l 26 46 q 85 51 67 46 q 109 69 103 56 q 115 115 115 83 l 115 532 q 108 569 115 560 q 75 578 100 578 l 26 578 l 26 624 l 256 660 l 329 660 l 329 528 l 331 528 q 510 665 396 665 m 163 -307 q 224 -285 197 -303 q 250 -246 250 -268 q 244 -235 250 -237 q 221 -232 239 -233 q 158 -206 179 -229 q 138 -149 138 -182 q 162 -87 138 -112 q 229 -62 186 -62 q 305 -95 278 -62 q 332 -179 332 -128 q 285 -290 332 -249 q 167 -342 239 -331 l 163 -307 z "},"s":{"ha":625,"x_min":42,"x_max":590,"o":"m 307 -17 q 234 -10 263 -17 q 176 6 206 -4 q 132 15 147 15 q 97 0 113 15 l 60 0 l 47 225 l 97 225 q 162 81 108 132 q 299 29 215 29 q 397 54 357 29 q 436 132 436 79 q 413 190 436 168 q 335 226 389 213 l 229 253 q 87 327 132 278 q 42 450 42 376 q 113 609 42 549 q 306 669 183 669 q 368 665 344 669 q 422 650 392 660 q 463 640 449 640 q 483 647 476 640 q 494 665 490 653 l 532 665 l 542 463 l 496 463 q 318 625 450 625 q 231 599 264 625 q 197 535 197 574 q 230 476 197 494 q 319 442 263 457 l 399 421 q 547 345 503 393 q 590 221 590 297 q 517 49 590 114 q 307 -17 443 -17 z "},"ś":{"ha":625,"x_min":42,"x_max":590,"o":"m 307 -17 q 234 -10 263 -17 q 176 6 206 -4 q 132 15 147 15 q 97 0 113 15 l 60 0 l 47 225 l 97 225 q 162 81 108 132 q 299 29 215 29 q 397 54 357 29 q 436 132 436 79 q 413 190 436 168 q 335 226 389 213 l 229 253 q 87 327 132 278 q 42 450 42 376 q 113 609 42 549 q 306 669 183 669 q 368 665 344 669 q 422 650 392 660 q 463 640 449 640 q 483 647 476 640 q 494 665 490 653 l 532 665 l 542 463 l 496 463 q 318 625 450 625 q 231 599 264 625 q 197 535 197 574 q 230 476 197 494 q 319 442 263 457 l 399 421 q 547 345 503 393 q 590 221 590 297 q 517 49 590 114 q 307 -17 443 -17 m 299 981 q 378 1031 322 1031 q 424 1013 404 1031 q 443 969 443 994 q 437 941 443 954 q 410 903 431 928 l 265 746 l 190 746 l 299 981 z "},"š":{"ha":625,"x_min":42,"x_max":590,"o":"m 307 -17 q 234 -10 263 -17 q 176 6 206 -4 q 132 15 147 15 q 97 0 113 15 l 60 0 l 47 225 l 97 225 q 162 81 108 132 q 299 29 215 29 q 397 54 357 29 q 436 132 436 79 q 413 190 436 168 q 335 226 389 213 l 229 253 q 87 327 132 278 q 42 450 42 376 q 113 609 42 549 q 306 669 183 669 q 368 665 344 669 q 422 650 392 660 q 463 640 449 640 q 483 647 476 640 q 494 665 490 653 l 532 665 l 542 463 l 496 463 q 318 625 450 625 q 231 599 264 625 q 197 535 197 574 q 230 476 197 494 q 319 442 263 457 l 399 421 q 547 345 503 393 q 590 221 590 297 q 517 49 590 114 q 307 -17 443 -17 m 94 979 l 169 979 l 318 858 l 465 979 l 540 979 l 385 742 l 250 742 l 94 979 z "},"ş":{"ha":625,"x_min":42,"x_max":590,"o":"m 590 221 q 525 56 590 121 q 338 -15 460 -8 l 310 -79 q 335 -74 319 -76 q 368 -72 351 -72 q 442 -97 411 -72 q 472 -165 472 -121 q 417 -255 472 -228 q 286 -282 361 -282 q 160 -261 208 -282 l 185 -208 q 264 -229 232 -229 q 310 -216 290 -229 q 331 -175 331 -203 q 318 -140 331 -153 q 282 -126 306 -126 q 259 -131 268 -126 q 249 -137 250 -136 l 225 -126 l 278 -15 q 175 6 226 -12 q 132 15 146 15 q 97 0 113 15 l 60 0 l 47 225 l 97 225 q 162 81 108 132 q 299 29 215 29 q 397 54 357 29 q 436 132 436 79 q 413 190 436 168 q 335 226 389 213 l 229 253 q 87 327 132 278 q 42 450 42 376 q 113 609 42 549 q 306 669 183 669 q 368 665 344 669 q 422 650 392 660 q 463 640 449 640 q 483 647 476 640 q 494 665 490 653 l 532 665 l 542 463 l 496 463 q 318 625 450 625 q 231 599 264 625 q 197 535 197 574 q 230 476 197 494 q 319 442 263 457 l 399 421 q 547 345 503 393 q 590 221 590 297 z "},"ș":{"ha":625,"x_min":42,"x_max":590,"o":"m 307 -17 q 234 -10 263 -17 q 176 6 206 -4 q 132 15 147 15 q 97 0 113 15 l 60 0 l 47 225 l 97 225 q 162 81 108 132 q 299 29 215 29 q 397 54 357 29 q 436 132 436 79 q 413 190 436 168 q 335 226 389 213 l 229 253 q 87 327 132 278 q 42 450 42 376 q 113 609 42 549 q 306 669 183 669 q 368 665 344 669 q 422 650 392 660 q 463 640 449 640 q 483 647 476 640 q 494 665 490 653 l 532 665 l 542 463 l 496 463 q 318 625 450 625 q 231 599 264 625 q 197 535 197 574 q 230 476 197 494 q 319 442 263 457 l 399 421 q 547 345 503 393 q 590 221 590 297 q 517 49 590 114 q 307 -17 443 -17 m 244 -307 q 306 -285 279 -303 q 332 -246 332 -268 q 326 -235 332 -237 q 303 -232 321 -233 q 240 -206 261 -229 q 219 -149 219 -182 q 244 -87 219 -112 q 311 -62 268 -62 q 387 -95 360 -62 q 414 -179 414 -128 q 367 -290 414 -249 q 249 -342 321 -331 l 244 -307 z "},"ß":{"ha":881,"x_min":38,"x_max":863,"o":"m 703 397 q 824 287 786 335 q 863 175 863 239 q 795 37 863 90 q 621 -17 728 -17 q 495 19 542 -17 q 449 110 449 56 q 471 170 449 144 q 531 196 493 196 q 584 177 563 196 q 606 124 606 158 q 601 98 606 107 q 588 78 597 89 q 579 60 579 68 q 593 37 579 44 q 624 29 607 29 q 664 53 650 29 q 678 117 678 78 q 652 200 678 169 q 595 253 626 231 q 553 282 564 275 q 448 384 478 335 q 418 486 418 433 q 557 660 418 607 q 576 771 576 708 q 549 894 576 856 q 467 932 522 932 q 378 885 408 932 q 347 713 347 838 l 347 115 q 358 58 347 71 q 408 46 369 46 l 408 0 l 38 0 l 38 46 q 96 51 78 46 q 120 69 114 56 q 126 115 126 83 l 126 607 l 38 607 l 38 653 l 126 653 q 217 899 133 821 q 472 978 300 978 q 764 765 764 978 q 738 660 764 704 q 642 627 683 661 q 600 538 600 593 q 625 466 600 496 q 703 397 650 436 z "},"t":{"ha":489,"x_min":15,"x_max":499,"o":"m 297 -17 q 149 35 197 -17 q 100 214 100 88 l 100 607 l 15 607 l 15 653 q 128 699 72 658 q 225 798 183 739 q 283 917 267 857 l 321 917 l 321 653 l 449 653 l 449 607 l 321 607 l 321 196 q 335 96 321 128 q 388 64 350 64 q 469 99 428 64 l 499 56 q 467 31 494 51 q 396 -3 440 11 q 297 -17 351 -17 z "},"ť":{"ha":489,"x_min":15,"x_max":633,"o":"m 297 -17 q 149 35 197 -17 q 100 214 100 88 l 100 607 l 15 607 l 15 653 q 128 699 72 658 q 225 798 183 739 q 283 917 267 857 l 321 917 l 321 653 l 449 653 l 449 607 l 321 607 l 321 196 q 335 96 321 128 q 388 64 350 64 q 469 99 428 64 l 499 56 q 467 31 494 51 q 396 -3 440 11 q 297 -17 351 -17 m 464 689 q 525 710 499 693 q 551 750 551 728 q 546 760 551 758 q 522 764 540 763 q 460 790 481 767 q 439 847 439 814 q 463 908 439 883 q 531 933 488 933 q 606 901 579 933 q 633 817 633 868 q 587 706 633 747 q 468 654 540 665 l 464 689 z "},"ţ":{"ha":489,"x_min":15,"x_max":499,"o":"m 308 -72 q 382 -97 351 -72 q 413 -165 413 -121 q 357 -255 413 -228 q 226 -282 301 -282 q 100 -261 149 -282 l 125 -208 q 204 -229 172 -229 q 251 -216 231 -229 q 271 -175 271 -203 q 258 -140 271 -153 q 222 -126 246 -126 q 199 -131 208 -126 q 189 -137 190 -136 l 165 -126 l 222 -8 q 131 61 161 8 q 100 214 100 114 l 100 607 l 15 607 l 15 653 q 128 699 72 658 q 225 798 183 739 q 283 917 267 857 l 321 917 l 321 653 l 449 653 l 449 607 l 321 607 l 321 196 q 335 96 321 128 q 388 64 350 64 q 469 99 428 64 l 499 56 q 467 31 494 51 q 396 -3 440 11 q 297 -17 351 -17 l 278 -17 l 250 -79 q 276 -74 260 -76 q 308 -72 292 -72 z "},"ț":{"ha":489,"x_min":15,"x_max":499,"o":"m 297 -17 q 149 35 197 -17 q 100 214 100 88 l 100 607 l 15 607 l 15 653 q 128 699 72 658 q 225 798 183 739 q 283 917 267 857 l 321 917 l 321 653 l 449 653 l 449 607 l 321 607 l 321 196 q 335 96 321 128 q 388 64 350 64 q 469 99 428 64 l 499 56 q 467 31 494 51 q 396 -3 440 11 q 297 -17 351 -17 m 185 -307 q 246 -285 219 -303 q 272 -246 272 -268 q 267 -235 272 -237 q 243 -232 261 -233 q 181 -206 201 -229 q 160 -149 160 -182 q 184 -87 160 -112 q 251 -62 208 -62 q 327 -95 300 -62 q 354 -179 354 -128 q 308 -290 354 -249 q 189 -342 261 -331 l 185 -307 z "},"u":{"ha":871,"x_min":26,"x_max":843,"o":"m 763 89 q 768 60 763 68 q 789 49 774 51 q 843 46 804 46 l 843 0 l 549 0 l 549 85 l 547 85 q 456 12 508 40 q 325 -17 404 -17 q 115 211 115 -17 l 115 532 q 108 569 115 560 q 75 578 100 578 l 26 578 l 26 624 l 260 660 l 336 660 l 336 211 q 359 99 336 132 q 426 65 382 65 q 481 80 457 65 q 542 131 506 94 l 542 532 q 534 569 542 560 q 501 578 526 578 l 453 578 l 453 624 l 686 660 l 763 660 l 763 89 z "},"ú":{"ha":871,"x_min":26,"x_max":843,"o":"m 763 89 q 768 60 763 68 q 789 49 774 51 q 843 46 804 46 l 843 0 l 549 0 l 549 85 l 547 85 q 456 12 508 40 q 325 -17 404 -17 q 115 211 115 -17 l 115 532 q 108 569 115 560 q 75 578 100 578 l 26 578 l 26 624 l 260 660 l 336 660 l 336 211 q 359 99 336 132 q 426 65 382 65 q 481 80 457 65 q 542 131 506 94 l 542 532 q 534 569 542 560 q 501 578 526 578 l 453 578 l 453 624 l 686 660 l 763 660 l 763 89 m 417 981 q 496 1031 440 1031 q 542 1013 522 1031 q 561 969 561 994 q 555 941 561 954 q 528 903 549 928 l 383 746 l 308 746 l 417 981 z "},"û":{"ha":871,"x_min":26,"x_max":843,"o":"m 763 89 q 768 60 763 68 q 789 49 774 51 q 843 46 804 46 l 843 0 l 549 0 l 549 85 l 547 85 q 456 12 508 40 q 325 -17 404 -17 q 115 211 115 -17 l 115 532 q 108 569 115 560 q 75 578 100 578 l 26 578 l 26 624 l 260 660 l 336 660 l 336 211 q 359 99 336 132 q 426 65 382 65 q 481 80 457 65 q 542 131 506 94 l 542 532 q 534 569 542 560 q 501 578 526 578 l 453 578 l 453 624 l 686 660 l 763 660 l 763 89 m 367 979 l 501 979 l 657 742 l 582 742 l 435 863 l 286 742 l 211 742 l 367 979 z "},"ü":{"ha":871,"x_min":26,"x_max":843,"o":"m 763 89 q 768 60 763 68 q 789 49 774 51 q 843 46 804 46 l 843 0 l 549 0 l 549 85 l 547 85 q 456 12 508 40 q 325 -17 404 -17 q 115 211 115 -17 l 115 532 q 108 569 115 560 q 75 578 100 578 l 26 578 l 26 624 l 260 660 l 336 660 l 336 211 q 359 99 336 132 q 426 65 382 65 q 481 80 457 65 q 542 131 506 94 l 542 532 q 534 569 542 560 q 501 578 526 578 l 453 578 l 453 624 l 686 660 l 763 660 l 763 89 m 293 753 q 220 783 250 753 q 190 856 190 814 q 220 929 190 899 q 293 960 250 960 q 366 929 336 960 q 396 856 396 899 q 366 783 396 814 q 293 753 336 753 m 576 753 q 503 783 533 753 q 474 856 474 814 q 503 929 474 899 q 576 960 533 960 q 649 929 619 960 q 679 856 679 899 q 649 783 679 814 q 576 753 619 753 z "},"ù":{"ha":871,"x_min":26,"x_max":843,"o":"m 763 89 q 768 60 763 68 q 789 49 774 51 q 843 46 804 46 l 843 0 l 549 0 l 549 85 l 547 85 q 456 12 508 40 q 325 -17 404 -17 q 115 211 115 -17 l 115 532 q 108 569 115 560 q 75 578 100 578 l 26 578 l 26 624 l 260 660 l 336 660 l 336 211 q 359 99 336 132 q 426 65 382 65 q 481 80 457 65 q 542 131 506 94 l 542 532 q 534 569 542 560 q 501 578 526 578 l 453 578 l 453 624 l 686 660 l 763 660 l 763 89 m 342 899 q 315 937 321 924 q 308 965 308 950 q 328 1008 308 990 q 374 1026 347 1026 q 453 976 429 1026 l 561 742 l 486 742 l 342 899 z "},"ū":{"ha":871,"x_min":26,"x_max":843,"o":"m 763 89 q 768 60 763 68 q 789 49 774 51 q 843 46 804 46 l 843 0 l 549 0 l 549 85 l 547 85 q 456 12 508 40 q 325 -17 404 -17 q 115 211 115 -17 l 115 532 q 108 569 115 560 q 75 578 100 578 l 26 578 l 26 624 l 260 660 l 336 660 l 336 211 q 359 99 336 132 q 426 65 382 65 q 481 80 457 65 q 542 131 506 94 l 542 532 q 534 569 542 560 q 501 578 526 578 l 453 578 l 453 624 l 686 660 l 763 660 l 763 89 m 231 917 l 638 917 l 638 793 l 231 793 l 231 917 z "},"ų":{"ha":871,"x_min":26,"x_max":843,"o":"m 736 0 q 651 -60 683 -28 q 618 -139 618 -93 q 636 -189 618 -172 q 685 -206 654 -206 q 719 -197 706 -206 q 749 -168 733 -189 l 779 -193 q 619 -289 724 -289 q 520 -255 553 -289 q 488 -175 488 -221 q 534 -78 488 -117 q 660 0 581 -39 l 549 0 l 549 85 l 547 85 q 456 12 508 40 q 325 -17 404 -17 q 115 211 115 -17 l 115 532 q 108 569 115 560 q 75 578 100 578 l 26 578 l 26 624 l 260 660 l 336 660 l 336 211 q 359 99 336 132 q 426 65 382 65 q 481 80 457 65 q 542 131 506 94 l 542 532 q 534 569 542 560 q 501 578 526 578 l 453 578 l 453 624 l 686 660 l 763 660 l 763 89 q 768 60 763 68 q 789 49 774 51 q 843 46 804 46 l 843 0 l 736 0 z "},"ů":{"ha":871,"x_min":26,"x_max":843,"o":"m 763 89 q 768 60 763 68 q 789 49 774 51 q 843 46 804 46 l 843 0 l 549 0 l 549 85 l 547 85 q 456 12 508 40 q 325 -17 404 -17 q 115 211 115 -17 l 115 532 q 108 569 115 560 q 75 578 100 578 l 26 578 l 26 624 l 260 660 l 336 660 l 336 211 q 359 99 336 132 q 426 65 382 65 q 481 80 457 65 q 542 131 506 94 l 542 532 q 534 569 542 560 q 501 578 526 578 l 453 578 l 453 624 l 686 660 l 763 660 l 763 89 m 435 718 q 333 760 375 718 q 290 863 290 803 q 332 965 290 924 q 435 1007 374 1007 q 537 965 494 1007 q 579 863 579 922 q 537 760 579 803 q 435 718 494 718 m 435 792 q 484 812 464 792 q 504 863 504 832 q 484 913 504 893 q 435 933 464 933 q 385 913 406 933 q 365 863 365 893 q 385 812 365 832 q 435 792 406 792 z "},"v":{"ha":717,"x_min":-10,"x_max":708,"o":"m 68 556 q 40 597 56 586 q -10 607 24 607 l -10 653 l 371 653 l 371 607 l 314 607 q 286 588 286 607 q 290 569 286 581 l 429 221 l 432 221 l 576 567 q 581 583 581 575 q 553 607 581 607 l 503 607 l 503 653 l 708 653 l 708 607 q 659 596 676 607 q 628 550 642 585 l 394 0 l 296 0 l 68 556 z "},"w":{"ha":1035,"x_min":-10,"x_max":1026,"o":"m 58 556 q 35 597 49 588 q -10 607 21 607 l -10 653 l 350 653 l 350 607 l 311 607 q 282 582 282 607 q 286 558 282 574 l 374 256 l 376 256 l 519 649 l 667 649 l 796 261 l 799 261 l 885 561 q 889 582 889 574 q 853 607 889 607 l 826 607 l 826 653 l 1026 653 l 1026 607 q 976 593 993 607 q 949 550 958 579 l 769 0 l 682 0 l 518 488 l 511 488 l 333 0 l 246 0 l 58 556 z "},"x":{"ha":803,"x_min":14,"x_max":789,"o":"m 686 107 q 731 59 708 72 q 789 46 753 46 l 789 0 l 382 0 l 382 46 l 417 46 q 444 65 444 46 q 435 92 444 78 l 325 260 l 211 97 q 201 69 201 83 q 209 52 201 58 q 231 46 217 46 l 263 46 l 263 0 l 14 0 l 14 46 q 86 59 57 46 q 143 107 115 72 l 297 303 l 126 564 q 90 598 110 589 q 31 607 71 607 l 31 653 l 426 653 l 426 607 l 400 607 q 371 588 371 607 q 386 550 371 571 l 461 439 l 549 568 q 558 592 558 582 q 539 607 558 607 l 507 607 l 507 653 l 728 653 l 728 607 q 657 597 685 607 q 611 563 629 586 l 490 396 l 686 107 z "},"y":{"ha":714,"x_min":-10,"x_max":704,"o":"m 704 653 l 704 607 q 657 592 675 607 q 618 531 639 578 l 403 17 q 374 -57 388 -18 q 316 -187 340 -140 q 254 -265 292 -235 q 161 -294 217 -294 q 61 -255 104 -294 q 18 -160 18 -215 q 45 -92 18 -121 q 114 -64 72 -64 q 182 -89 157 -64 q 207 -153 207 -114 q 195 -192 207 -176 q 183 -215 183 -207 q 190 -235 183 -228 q 207 -243 196 -243 q 247 -209 222 -243 q 299 -107 271 -175 l 328 -35 l 86 550 q 66 589 75 578 q 41 603 57 600 q -10 607 25 607 l -10 653 l 383 653 l 383 607 l 343 607 q 323 600 331 607 q 315 579 315 593 q 319 556 315 568 l 436 247 l 440 247 l 568 565 q 572 582 572 574 q 565 600 572 593 q 543 607 557 607 l 503 607 l 503 653 l 704 653 z "},"ý":{"ha":714,"x_min":-10,"x_max":704,"o":"m 704 653 l 704 607 q 657 592 675 607 q 618 531 639 578 l 403 17 q 374 -57 388 -18 q 316 -187 340 -140 q 254 -265 292 -235 q 161 -294 217 -294 q 61 -255 104 -294 q 18 -160 18 -215 q 45 -92 18 -121 q 114 -64 72 -64 q 182 -89 157 -64 q 207 -153 207 -114 q 195 -192 207 -176 q 183 -215 183 -207 q 190 -235 183 -228 q 207 -243 196 -243 q 247 -209 222 -243 q 299 -107 271 -175 l 328 -35 l 86 550 q 66 589 75 578 q 41 603 57 600 q -10 607 25 607 l -10 653 l 383 653 l 383 607 l 343 607 q 323 600 331 607 q 315 579 315 593 q 319 556 315 568 l 436 247 l 440 247 l 568 565 q 572 582 572 574 q 565 600 572 593 q 543 607 557 607 l 503 607 l 503 653 l 704 653 m 328 981 q 407 1031 351 1031 q 453 1013 433 1031 q 472 969 472 994 q 466 941 472 954 q 439 903 460 928 l 294 746 l 219 746 l 328 981 z "},"ŷ":{"ha":714,"x_min":-10,"x_max":704,"o":"m 704 653 l 704 607 q 657 592 675 607 q 618 531 639 578 l 403 17 q 374 -57 388 -18 q 316 -187 340 -140 q 254 -265 292 -235 q 161 -294 217 -294 q 61 -255 104 -294 q 18 -160 18 -215 q 45 -92 18 -121 q 114 -64 72 -64 q 182 -89 157 -64 q 207 -153 207 -114 q 195 -192 207 -176 q 183 -215 183 -207 q 190 -235 183 -228 q 207 -243 196 -243 q 247 -209 222 -243 q 299 -107 271 -175 l 328 -35 l 86 550 q 66 589 75 578 q 41 603 57 600 q -10 607 25 607 l -10 653 l 383 653 l 383 607 l 343 607 q 323 600 331 607 q 315 579 315 593 q 319 556 315 568 l 436 247 l 440 247 l 568 565 q 572 582 572 574 q 565 600 572 593 q 543 607 557 607 l 503 607 l 503 653 l 704 653 m 278 979 l 413 979 l 568 742 l 493 742 l 346 863 l 197 742 l 122 742 l 278 979 z "},"ÿ":{"ha":714,"x_min":-10,"x_max":704,"o":"m 704 653 l 704 607 q 657 592 675 607 q 618 531 639 578 l 403 17 q 374 -57 388 -18 q 316 -187 340 -140 q 254 -265 292 -235 q 161 -294 217 -294 q 61 -255 104 -294 q 18 -160 18 -215 q 45 -92 18 -121 q 114 -64 72 -64 q 182 -89 157 -64 q 207 -153 207 -114 q 195 -192 207 -176 q 183 -215 183 -207 q 190 -235 183 -228 q 207 -243 196 -243 q 247 -209 222 -243 q 299 -107 271 -175 l 328 -35 l 86 550 q 66 589 75 578 q 41 603 57 600 q -10 607 25 607 l -10 653 l 383 653 l 383 607 l 343 607 q 323 600 331 607 q 315 579 315 593 q 319 556 315 568 l 436 247 l 440 247 l 568 565 q 572 582 572 574 q 565 600 572 593 q 543 607 557 607 l 503 607 l 503 653 l 704 653 m 204 753 q 131 783 161 753 q 101 856 101 814 q 131 929 101 899 q 204 960 161 960 q 277 929 247 960 q 307 856 307 899 q 277 783 307 814 q 204 753 247 753 m 488 753 q 415 783 444 753 q 385 856 385 814 q 415 929 385 899 q 488 960 444 960 q 560 929 531 960 q 590 856 590 899 q 560 783 590 814 q 488 753 531 753 z "},"ỳ":{"ha":714,"x_min":-10,"x_max":704,"o":"m 704 653 l 704 607 q 657 592 675 607 q 618 531 639 578 l 403 17 q 374 -57 388 -18 q 316 -187 340 -140 q 254 -265 292 -235 q 161 -294 217 -294 q 61 -255 104 -294 q 18 -160 18 -215 q 45 -92 18 -121 q 114 -64 72 -64 q 182 -89 157 -64 q 207 -153 207 -114 q 195 -192 207 -176 q 183 -215 183 -207 q 190 -235 183 -228 q 207 -243 196 -243 q 247 -209 222 -243 q 299 -107 271 -175 l 328 -35 l 86 550 q 66 589 75 578 q 41 603 57 600 q -10 607 25 607 l -10 653 l 383 653 l 383 607 l 343 607 q 323 600 331 607 q 315 579 315 593 q 319 556 315 568 l 436 247 l 440 247 l 568 565 q 572 582 572 574 q 565 600 572 593 q 543 607 557 607 l 503 607 l 503 653 l 704 653 m 253 899 q 226 937 232 924 q 219 965 219 950 q 239 1008 219 990 q 285 1026 258 1026 q 364 976 340 1026 l 472 742 l 397 742 l 253 899 z "},"z":{"ha":643,"x_min":25,"x_max":624,"o":"m 25 97 l 382 617 l 271 617 q 148 584 199 617 q 83 457 97 551 l 38 457 l 53 653 l 601 653 l 601 586 l 244 38 l 346 38 q 466 53 425 38 q 531 109 507 68 q 578 235 556 150 l 624 235 l 608 0 l 25 0 l 25 97 z "},"ź":{"ha":643,"x_min":25,"x_max":624,"o":"m 25 97 l 382 617 l 271 617 q 148 584 199 617 q 83 457 97 551 l 38 457 l 53 653 l 601 653 l 601 586 l 244 38 l 346 38 q 466 53 425 38 q 531 109 507 68 q 578 235 556 150 l 624 235 l 608 0 l 25 0 l 25 97 m 313 981 q 392 1031 336 1031 q 438 1013 418 1031 q 457 969 457 994 q 451 941 457 954 q 424 903 444 928 l 279 746 l 204 746 l 313 981 z "},"ž":{"ha":643,"x_min":25,"x_max":624,"o":"m 25 97 l 382 617 l 271 617 q 148 584 199 617 q 83 457 97 551 l 38 457 l 53 653 l 601 653 l 601 586 l 244 38 l 346 38 q 466 53 425 38 q 531 109 507 68 q 578 235 556 150 l 624 235 l 608 0 l 25 0 l 25 97 m 108 979 l 183 979 l 332 858 l 479 979 l 554 979 l 399 742 l 264 742 l 108 979 z "},"ż":{"ha":643,"x_min":25,"x_max":624,"o":"m 25 97 l 382 617 l 271 617 q 148 584 199 617 q 83 457 97 551 l 38 457 l 53 653 l 601 653 l 601 586 l 244 38 l 346 38 q 466 53 425 38 q 531 109 507 68 q 578 235 556 150 l 624 235 l 608 0 l 25 0 l 25 97 m 331 753 q 258 783 288 753 q 228 856 228 814 q 258 929 228 899 q 331 960 288 960 q 403 929 374 960 q 433 856 433 899 q 403 783 433 814 q 331 753 374 753 z "},"ﬁ":{"ha":882,"x_min":22,"x_max":860,"o":"m 785 115 q 799 58 785 71 q 860 46 813 46 l 860 0 l 475 0 l 475 46 q 533 51 515 46 q 558 69 551 56 q 564 115 564 83 l 564 561 q 556 598 564 589 q 524 607 549 607 l 332 607 l 332 115 q 340 69 332 83 q 370 51 349 56 q 439 46 392 46 l 439 0 l 22 0 l 22 46 q 81 51 63 46 q 105 69 99 56 q 111 115 111 83 l 111 607 l 22 607 l 22 653 l 111 653 l 111 692 q 154 841 111 776 q 281 942 197 906 q 482 979 365 979 q 683 942 599 979 q 768 824 768 904 q 740 749 768 778 q 661 719 711 719 q 588 745 615 719 q 561 810 561 771 q 569 847 561 833 q 593 875 578 861 q 606 889 600 882 q 611 904 611 896 q 583 933 611 924 q 511 943 554 943 q 369 885 407 943 q 332 719 332 828 l 332 653 l 475 653 l 708 675 l 785 675 l 785 115 z "},"ﬂ":{"ha":881,"x_min":22,"x_max":865,"o":"m 22 46 q 81 51 63 46 q 105 69 99 56 q 111 115 111 83 l 111 607 l 22 607 l 22 653 l 111 653 l 111 719 q 188 907 111 836 q 408 978 264 978 q 523 960 468 978 q 608 917 578 943 l 711 958 l 785 958 l 785 115 q 801 59 785 72 q 865 46 817 46 l 865 0 l 469 0 l 469 46 q 530 51 511 46 q 556 69 549 56 q 564 115 564 83 l 564 696 q 531 887 564 831 q 442 943 499 943 q 355 905 378 943 q 332 785 332 867 l 332 653 l 453 653 l 453 607 l 332 607 l 332 115 q 340 69 332 83 q 371 51 349 56 q 442 46 393 46 l 442 0 l 22 0 l 22 46 z "},"ª":{"ha":483,"x_min":31,"x_max":485,"o":"m 485 550 q 431 529 456 536 q 372 522 406 522 q 317 531 339 522 q 286 563 296 539 q 230 533 260 544 q 157 522 200 522 q 67 542 104 522 q 31 610 31 563 q 92 713 31 675 q 281 769 154 750 l 281 832 q 269 890 281 875 q 225 906 258 906 q 156 879 156 906 q 168 858 156 875 q 181 819 181 840 q 163 781 181 796 q 118 765 146 765 q 72 781 90 765 q 54 824 54 797 q 108 901 54 869 q 264 933 163 933 q 381 908 343 933 q 419 826 419 883 l 419 629 q 427 583 419 596 q 451 571 435 571 q 467 574 460 571 q 476 578 474 576 l 485 550 m 225 572 q 281 590 258 572 l 281 600 l 281 726 q 199 690 226 713 q 171 635 171 668 q 225 572 171 572 z "},"º":{"ha":511,"x_min":28,"x_max":483,"o":"m 254 522 q 89 578 150 522 q 28 726 28 633 q 90 877 28 821 q 258 933 153 933 q 423 878 363 933 q 483 729 483 822 q 421 578 483 635 q 254 522 358 522 m 257 550 q 313 592 299 550 q 328 721 328 633 q 312 860 328 815 q 254 906 296 906 q 198 864 213 906 q 183 735 183 822 q 199 595 183 640 q 257 550 215 550 z "},"π":{"ha":897,"x_min":35,"x_max":861,"o":"m 682 518 q 649 235 649 376 q 722 85 649 85 q 767 88 750 85 q 817 107 785 92 l 836 69 q 753 10 810 36 q 650 -17 697 -17 q 532 29 568 -17 q 496 176 496 75 q 512 346 496 267 q 558 518 528 425 l 392 518 q 381 347 389 418 q 358 179 372 275 q 301 30 340 76 q 193 -17 261 -17 q 131 3 151 -17 q 111 57 111 22 q 122 109 111 83 q 157 168 132 135 q 223 269 200 226 q 259 371 246 313 q 275 518 272 429 q 152 506 193 515 q 68 465 111 496 l 35 494 q 142 609 75 565 q 343 653 210 653 l 861 653 l 861 518 l 682 518 z "},"װ":{"ha":917,"x_min":42,"x_max":836,"o":"m 756 -6 q 724 -3 743 -6 l 724 8 q 733 37 731 19 q 736 104 736 54 l 736 401 q 732 463 736 443 q 715 490 728 482 q 676 503 703 499 l 556 521 q 512 548 524 526 q 500 608 500 569 q 554 831 500 696 l 581 831 l 581 814 q 588 781 581 792 q 615 767 596 769 l 715 751 q 771 733 753 746 q 795 695 789 719 q 804 624 801 671 l 833 124 q 818 27 836 60 q 756 -6 800 -6 m 297 -6 q 265 -3 285 -6 l 265 8 q 275 37 272 19 q 278 104 278 54 l 278 401 q 274 463 278 443 q 257 490 269 482 q 218 503 244 499 l 97 521 q 53 548 65 526 q 42 608 42 569 q 96 831 42 696 l 122 831 l 122 814 q 130 781 122 792 q 157 767 138 769 l 257 751 q 313 733 294 746 q 337 695 331 719 q 346 624 343 671 l 375 124 q 360 27 378 60 q 297 -6 342 -6 z "},"ױ":{"ha":865,"x_min":42,"x_max":824,"o":"m 632 300 q 746 447 746 375 q 731 494 746 479 q 678 508 715 508 l 572 508 q 485 535 513 508 q 458 631 458 563 q 473 746 458 692 q 501 829 488 800 l 528 829 l 528 807 q 571 764 528 764 l 708 764 q 774 746 751 764 q 806 708 797 728 q 818 642 813 693 q 824 553 824 590 q 796 406 824 464 q 732 317 768 347 q 650 264 696 288 l 632 300 m 297 -6 q 265 -3 285 -6 l 265 8 q 275 37 272 19 q 278 104 278 54 l 278 401 q 274 463 278 443 q 257 490 269 482 q 218 503 244 499 l 97 521 q 53 548 65 526 q 42 608 42 569 q 96 831 42 696 l 122 831 l 122 814 q 130 781 122 792 q 157 767 138 769 l 257 751 q 313 733 294 746 q 337 695 331 719 q 346 624 343 671 l 375 124 q 360 27 378 60 q 297 -6 342 -6 z "},"ײ":{"ha":869,"x_min":28,"x_max":828,"o":"m 636 300 q 750 447 750 375 q 735 494 750 479 q 682 508 719 508 l 576 508 q 490 535 517 508 q 463 631 463 563 q 477 746 463 692 q 506 829 492 800 l 532 829 l 532 807 q 575 764 532 764 l 713 764 q 778 746 756 764 q 810 708 801 728 q 822 642 817 693 q 828 553 828 590 q 800 406 828 464 q 736 317 772 347 q 654 264 700 288 l 636 300 m 201 300 q 315 447 315 375 q 300 494 315 479 q 247 508 285 508 l 142 508 q 55 535 82 508 q 28 631 28 563 q 42 746 28 692 q 71 829 57 800 l 97 829 l 97 807 q 140 764 97 764 l 278 764 q 344 746 321 764 q 375 708 367 728 q 388 642 382 693 q 393 553 393 590 q 365 406 393 464 q 301 317 338 347 q 219 264 265 288 l 201 300 z "},"ﭏ":{"ha":747,"x_min":29,"x_max":699,"o":"m 589 489 q 553 409 563 444 q 542 338 543 374 l 593 282 q 657 132 657 211 q 647 72 657 99 q 623 20 638 46 q 603 -17 608 -6 l 576 -17 q 567 13 576 -1 q 542 44 557 26 q 517 71 526 61 l 76 551 q 29 663 29 604 q 56 756 29 717 q 125 819 83 794 l 233 883 q 267 917 267 904 q 254 926 267 925 l 218 935 q 179 1001 179 943 q 207 1111 179 1051 l 233 1111 l 233 1100 q 251 1081 233 1085 l 319 1064 q 374 994 374 1050 q 318 865 374 919 l 240 789 q 214 729 214 763 q 246 658 214 694 l 485 399 q 525 475 489 431 l 551 508 l 532 511 q 456 550 476 519 q 435 631 435 581 q 448 724 435 682 q 474 794 461 767 q 489 829 486 821 l 515 829 l 515 811 q 522 777 515 788 q 558 763 529 767 l 626 754 q 682 719 665 749 q 699 635 699 689 q 668 475 699 558 l 656 475 q 647 492 651 488 q 625 499 642 496 l 597 503 l 589 489 z "},"א":{"ha":782,"x_min":49,"x_max":733,"o":"m 647 278 q 707 131 707 214 q 694 64 707 96 q 654 -17 682 32 l 628 -17 q 619 10 626 -3 q 592 44 611 24 l 224 444 l 200 404 q 176 333 176 361 q 186 297 176 313 l 261 171 q 296 63 296 113 q 281 0 296 28 l 49 0 l 49 46 l 74 46 q 94 52 89 46 q 100 74 100 58 q 92 132 100 93 l 79 199 q 72 257 72 236 q 86 327 72 290 q 136 421 100 364 l 181 492 l 117 561 q 86 610 93 586 q 79 660 79 635 q 91 727 79 694 q 117 789 103 760 q 136 829 131 818 l 163 829 l 163 821 q 169 799 163 808 q 185 779 175 790 q 201 761 196 768 l 522 413 q 560 475 531 439 l 586 508 l 567 511 q 490 550 511 519 q 469 631 469 581 q 483 724 469 682 q 508 794 496 767 q 524 829 521 821 l 550 829 l 550 811 q 557 777 550 788 q 593 763 564 767 l 661 754 q 717 719 700 749 q 733 635 733 689 q 703 475 733 558 l 690 475 q 681 492 686 488 q 660 499 676 496 l 632 503 l 624 489 q 590 418 600 450 q 578 353 581 386 l 647 278 z "},"ב":{"ha":689,"x_min":42,"x_max":654,"o":"m 83 256 l 494 256 q 527 333 519 307 q 535 401 535 360 q 526 468 535 446 q 496 499 518 490 q 428 508 474 508 l 167 508 q 97 536 118 508 q 75 621 75 564 q 90 744 75 689 q 119 829 106 799 l 146 829 l 146 799 q 155 773 146 782 q 178 764 164 764 l 469 764 q 569 728 533 764 q 604 626 604 692 l 604 422 q 565 256 604 336 l 654 256 l 613 0 l 42 0 l 83 256 z "},"ג":{"ha":536,"x_min":28,"x_max":501,"o":"m 79 256 l 257 256 q 309 290 293 256 q 328 372 325 325 l 332 444 q 323 485 333 474 q 286 501 313 497 l 171 518 q 116 543 131 525 q 101 606 101 561 q 115 706 101 657 q 156 829 128 756 l 182 829 l 182 810 q 192 777 182 786 q 235 764 203 768 l 342 749 q 400 722 383 743 q 414 647 417 701 l 403 453 q 411 374 400 407 q 446 297 422 342 q 481 221 471 250 q 501 99 501 164 q 493 0 501 54 l 467 0 q 428 133 453 85 q 346 226 403 181 l 263 0 l 28 0 l 79 256 z "},"ד":{"ha":660,"x_min":28,"x_max":611,"o":"m 561 764 q 601 754 590 764 q 611 717 611 744 l 611 508 l 547 508 q 506 442 517 469 q 494 369 494 415 q 496 328 494 343 l 508 104 q 489 21 511 47 q 426 -6 467 -6 q 394 -3 414 -6 l 394 8 q 405 38 401 19 q 408 104 408 56 l 408 303 q 483 506 408 431 l 483 508 l 142 508 q 55 535 82 508 q 28 631 28 563 q 42 746 28 692 q 71 829 57 800 l 97 829 l 97 807 q 140 764 97 764 l 561 764 z "},"ה":{"ha":750,"x_min":76,"x_max":674,"o":"m 574 -6 q 542 -3 558 -6 l 542 8 q 552 38 550 22 q 554 104 554 53 l 554 310 q 597 506 554 442 l 597 508 l 190 508 q 103 534 131 508 q 76 631 76 560 q 119 829 76 722 l 146 829 l 146 814 q 156 774 146 785 q 192 764 165 764 l 635 764 q 664 753 654 764 q 674 726 674 743 l 674 526 l 661 510 q 640 392 640 482 q 643 311 640 340 l 657 124 l 658 100 q 636 21 658 47 q 574 -6 614 -6 m 115 -6 q 85 -1 104 -6 l 85 8 q 99 61 99 22 l 99 260 q 120 359 99 324 q 176 394 142 394 q 199 390 186 394 l 199 382 q 185 359 188 374 q 183 322 182 344 l 196 94 q 176 19 199 43 q 115 -6 153 -6 z "},"ו":{"ha":458,"x_min":42,"x_max":378,"o":"m 297 -6 q 265 -3 285 -6 l 265 8 q 275 37 272 19 q 278 104 278 54 l 278 401 q 274 463 278 443 q 257 490 269 482 q 218 503 244 499 l 97 521 q 53 548 65 526 q 42 608 42 569 q 96 831 42 696 l 122 831 l 122 814 q 130 781 122 792 q 157 767 138 769 l 257 751 q 313 733 294 746 q 337 695 331 719 q 346 624 343 671 l 375 124 q 360 27 378 60 q 297 -6 342 -6 z "},"ז":{"ha":425,"x_min":42,"x_max":376,"o":"m 283 747 q 376 613 376 735 q 365 536 376 568 q 344 487 354 504 q 332 465 335 469 l 319 465 q 311 481 317 475 q 289 489 306 486 l 236 497 q 231 439 231 467 q 243 340 231 389 l 294 124 q 301 71 301 92 q 283 14 301 33 q 232 -6 265 -6 q 199 -3 218 -6 l 199 8 q 208 46 208 24 q 200 104 208 65 l 165 260 q 154 350 154 311 q 190 504 154 428 l 143 513 q 79 530 100 519 q 50 560 58 540 q 42 618 42 581 q 57 722 42 672 q 96 829 72 772 l 122 829 l 122 811 q 130 778 122 789 q 165 764 138 768 l 283 747 z "},"ח":{"ha":771,"x_min":83,"x_max":694,"o":"m 656 764 q 685 753 675 764 q 694 726 694 743 l 694 526 l 682 510 q 661 390 661 482 q 664 308 661 338 l 678 124 l 679 100 q 657 21 679 47 q 594 -6 635 -6 q 563 -3 579 -6 l 563 8 q 573 38 571 22 q 575 104 575 53 l 575 308 q 585 412 575 369 q 604 471 596 454 q 625 506 613 488 l 625 508 l 254 508 q 239 477 253 504 q 217 405 225 450 q 210 308 208 360 l 218 93 q 138 -6 222 -6 q 107 -3 124 -6 l 107 8 q 117 32 114 19 q 121 76 121 44 l 121 308 q 136 398 121 357 q 163 456 151 439 q 200 507 174 472 l 200 508 l 188 508 q 112 535 140 508 q 83 631 83 561 q 126 829 83 722 l 153 829 l 153 814 q 163 774 153 785 q 199 764 172 764 l 656 764 z "},"ט":{"ha":767,"x_min":49,"x_max":711,"o":"m 546 781 q 672 690 632 781 q 711 453 711 600 q 685 243 711 346 q 594 0 660 140 l 174 0 q 134 194 150 100 q 118 332 118 288 q 150 511 118 422 l 146 511 q 69 549 89 518 q 49 629 49 581 q 61 722 49 681 q 86 791 74 763 q 103 829 99 819 l 129 829 l 129 811 q 138 780 129 790 q 172 765 146 769 l 239 756 q 296 719 281 750 q 311 636 311 688 q 281 475 311 558 l 268 475 q 259 492 264 488 q 238 499 254 497 l 208 503 q 192 385 192 446 q 210 253 192 343 l 619 253 q 643 389 643 317 q 617 499 643 467 q 528 532 590 532 q 455 510 492 532 q 401 450 418 489 l 392 428 l 356 428 l 367 499 q 429 706 388 632 q 546 781 471 781 z "},"י":{"ha":435,"x_min":28,"x_max":393,"o":"m 201 300 q 315 447 315 375 q 300 494 315 479 q 247 508 285 508 l 142 508 q 55 535 82 508 q 28 631 28 563 q 42 746 28 692 q 71 829 57 800 l 97 829 l 97 807 q 140 764 97 764 l 278 764 q 344 746 321 764 q 375 708 367 728 q 388 642 382 693 q 393 553 393 590 q 365 406 393 464 q 301 317 338 347 q 219 264 265 288 l 201 300 z "},"ך":{"ha":696,"x_min":35,"x_max":622,"o":"m 542 -222 q 511 -219 531 -222 l 511 -208 q 521 -180 518 -197 q 524 -112 524 -162 l 524 440 q 510 494 524 481 q 461 508 496 508 l 149 508 q 62 534 89 508 q 35 631 35 560 q 78 829 35 722 l 104 829 l 104 814 q 114 774 104 785 q 150 764 124 764 l 533 764 q 600 741 581 764 q 619 653 619 718 q 611 586 619 636 q 597 440 594 510 l 619 -96 q 605 -189 622 -156 q 542 -222 588 -222 z "},"כ":{"ha":686,"x_min":42,"x_max":631,"o":"m 100 256 l 483 256 q 540 283 524 256 q 556 374 556 311 q 533 478 556 447 q 447 508 510 508 l 174 508 q 103 537 125 508 q 82 626 82 565 q 98 744 82 686 q 126 829 114 803 l 153 829 l 153 799 q 162 773 153 782 q 185 764 171 764 l 443 764 q 526 742 494 764 q 581 672 558 719 q 613 564 596 638 q 631 368 631 490 q 611 182 631 251 q 557 68 592 113 q 428 0 504 0 l 42 0 l 100 256 z "},"ל":{"ha":714,"x_min":28,"x_max":665,"o":"m 333 -14 q 278 8 299 -14 q 257 69 257 29 q 383 263 257 169 l 519 365 q 553 404 543 383 q 564 451 564 425 q 549 494 564 481 q 489 508 533 508 l 153 508 q 101 543 117 508 q 85 642 85 578 q 92 740 85 696 q 113 844 100 785 q 124 900 124 885 q 120 913 124 910 q 107 919 117 917 l 69 926 q 28 993 28 933 q 36 1053 28 1026 q 58 1111 44 1081 l 85 1111 l 85 1100 q 103 1081 85 1085 l 174 1065 q 213 1010 213 1057 q 203 942 213 975 q 176 871 193 910 q 154 800 154 821 q 173 770 154 776 q 232 764 192 764 l 576 764 q 636 731 621 764 q 656 664 646 708 q 665 561 665 619 q 646 426 665 492 q 574 319 626 360 l 433 210 q 397 150 397 183 q 403 108 397 136 q 406 91 404 103 q 407 69 407 79 q 389 10 407 33 q 333 -14 371 -14 z "},"ם":{"ha":778,"x_min":63,"x_max":688,"o":"m 100 310 q 117 411 100 369 q 179 506 135 453 l 179 508 l 154 508 q 88 538 114 508 q 63 621 63 568 q 78 744 63 689 q 107 829 93 799 l 133 829 l 133 799 q 142 773 133 782 q 165 764 151 764 l 553 764 q 652 728 617 764 q 688 626 688 692 l 688 0 l 99 0 l 100 310 m 604 256 l 604 401 q 596 468 604 446 q 565 499 588 490 q 497 508 543 508 l 226 508 q 192 419 200 453 q 183 328 183 386 l 183 293 q 190 263 183 269 q 214 256 197 256 l 604 256 z "},"מ":{"ha":763,"x_min":49,"x_max":707,"o":"m 101 0 q 116 238 101 149 q 164 393 131 328 l 204 472 q 208 488 208 481 q 190 506 208 504 l 128 514 q 69 549 90 519 q 49 631 49 578 q 65 735 49 688 q 103 829 82 783 l 129 829 l 129 811 q 138 779 129 789 q 164 767 147 769 l 238 756 q 296 719 281 749 q 311 635 311 689 q 306 569 311 592 l 307 568 q 432 781 407 618 l 447 781 q 515 757 471 781 q 589 706 558 733 q 678 562 650 651 q 707 374 707 472 q 696 212 707 303 q 667 0 685 121 l 288 0 l 329 256 l 644 256 q 650 322 650 289 q 602 469 650 410 q 458 528 554 528 q 342 497 386 528 q 263 428 297 467 q 185 261 208 368 q 161 0 161 154 l 101 0 z "},"ן":{"ha":388,"x_min":21,"x_max":332,"o":"m 196 -222 q 164 -219 183 -222 l 164 -208 q 174 -180 171 -197 q 176 -112 176 -162 l 176 285 q 184 366 176 338 q 208 425 192 394 q 225 481 225 454 q 219 503 225 497 q 192 508 213 508 l 135 508 q 48 534 75 508 q 21 631 21 560 q 64 829 21 722 l 90 829 l 90 814 q 100 774 90 785 q 136 764 110 764 l 246 764 q 313 744 293 764 q 332 667 332 724 l 332 581 q 322 526 332 553 q 294 463 313 499 l 282 436 q 259 365 265 399 q 256 288 253 332 l 272 -96 q 258 -190 275 -157 q 196 -222 240 -222 z "},"נ":{"ha":483,"x_min":35,"x_max":435,"o":"m 76 256 l 331 256 q 325 331 325 286 l 326 367 l 331 444 q 321 486 332 474 q 285 501 310 499 l 169 518 q 115 542 129 524 q 100 606 100 561 q 113 706 100 657 q 154 829 126 756 l 181 829 l 181 810 q 190 778 181 786 q 233 764 200 769 l 338 749 q 397 722 379 743 q 413 647 415 701 l 399 396 q 414 279 397 350 q 429 201 424 235 q 435 126 435 167 q 430 65 435 92 q 414 0 425 38 l 35 0 l 76 256 z "},"ס":{"ha":696,"x_min":56,"x_max":640,"o":"m 590 672 q 623 564 606 638 q 640 369 640 490 q 563 81 640 179 q 351 -17 486 -17 q 143 58 217 -17 q 69 260 69 132 q 83 366 69 319 q 108 435 96 413 q 150 506 121 457 l 150 508 l 147 508 q 77 537 99 508 q 56 626 56 565 q 72 744 56 686 q 100 829 88 803 l 126 829 l 126 799 q 135 773 126 782 q 158 764 144 764 l 453 764 q 536 742 504 764 q 590 672 568 719 m 356 222 q 515 260 465 222 q 565 381 565 297 q 544 478 565 449 q 464 508 522 508 l 203 508 q 185 477 199 501 q 163 425 171 453 q 154 367 154 397 q 202 256 154 290 q 356 222 250 222 z "},"ע":{"ha":681,"x_min":49,"x_max":646,"o":"m 557 757 q 624 722 603 750 q 646 642 646 693 l 646 613 q 635 559 646 594 q 613 501 624 524 l 581 436 q 544 307 544 360 l 544 264 q 493 85 544 156 q 314 -44 442 14 l 72 -154 l 72 99 l 290 193 q 267 238 289 215 l 185 318 q 144 426 144 357 q 160 510 144 467 l 146 511 q 69 550 90 519 q 49 631 49 581 q 62 724 49 682 q 88 794 75 767 q 103 829 100 821 l 129 829 l 129 811 q 136 777 129 788 q 172 763 143 767 l 240 754 q 296 719 279 749 q 313 635 313 689 q 282 475 313 558 l 269 475 q 260 492 265 488 q 239 499 256 496 l 201 504 q 200 489 200 500 q 235 425 200 450 l 314 365 q 374 228 368 324 l 382 232 q 429 272 414 246 q 463 346 444 297 q 486 408 476 388 l 508 456 q 517 485 517 472 q 493 508 517 504 l 432 521 q 376 610 376 532 q 431 829 376 694 l 457 829 l 457 814 q 465 781 457 792 q 492 767 472 769 l 557 757 z "},"ף":{"ha":697,"x_min":28,"x_max":617,"o":"m 614 -96 q 599 -189 617 -156 q 536 -222 582 -222 q 506 -219 525 -222 l 506 -208 q 515 -180 513 -197 q 518 -112 518 -162 l 518 440 q 504 494 518 481 q 456 508 490 508 l 219 508 q 193 421 193 469 l 254 421 q 303 374 303 421 l 303 261 l 276 261 q 256 280 271 272 q 217 288 240 288 q 151 254 167 288 l 96 254 q 93 304 93 299 q 108 396 93 354 q 137 467 122 438 q 156 507 151 497 l 156 508 l 142 508 q 55 534 82 508 q 28 631 28 560 q 71 829 28 722 l 97 829 l 97 814 q 107 774 97 785 q 143 764 117 764 l 449 764 q 550 724 515 764 q 589 588 585 683 l 614 -96 z "},"פ":{"ha":682,"x_min":49,"x_max":633,"o":"m 583 672 q 615 565 597 640 q 633 385 633 490 q 622 235 633 304 q 586 61 610 167 l 572 0 l 49 0 l 90 256 l 493 256 q 558 382 558 256 q 535 478 558 449 q 457 508 513 508 l 213 508 q 196 488 203 500 q 186 463 189 475 l 247 463 q 282 449 268 463 q 296 415 296 435 l 296 303 l 269 303 q 249 322 264 314 q 210 329 233 329 q 144 296 160 329 l 89 296 q 86 346 86 340 q 103 437 86 403 q 149 507 121 471 l 149 508 l 140 508 q 78 538 108 508 q 49 635 49 568 q 65 746 49 685 q 93 829 81 807 l 119 829 l 119 799 q 128 773 119 782 q 151 764 138 764 l 446 764 q 583 672 543 764 z "},"ץ":{"ha":689,"x_min":21,"x_max":675,"o":"m 603 754 q 658 721 642 751 q 675 635 675 690 q 644 475 675 579 l 632 475 q 623 492 628 488 q 601 499 618 496 l 567 503 l 411 349 q 303 216 339 278 q 271 92 268 154 l 300 -96 q 303 -128 303 -118 q 283 -197 303 -171 q 224 -222 263 -222 q 192 -219 211 -222 l 192 -208 q 203 -187 199 -197 q 207 -151 207 -176 q 204 -112 207 -143 l 163 285 q 161 317 161 296 q 169 372 161 351 q 194 425 176 392 q 211 481 211 454 q 205 503 211 497 q 178 508 199 508 l 135 508 q 48 534 75 508 q 21 631 21 560 q 64 829 21 722 l 90 829 l 90 814 q 100 774 90 785 q 136 764 110 764 l 232 764 q 299 744 279 764 q 318 667 318 724 l 318 581 q 308 526 318 553 q 281 463 299 499 l 268 436 q 246 377 253 403 q 239 324 239 351 q 242 288 239 313 l 246 258 q 374 401 306 344 l 503 508 l 481 511 q 404 549 425 517 q 383 631 383 581 q 397 724 383 682 q 422 794 410 767 q 438 829 435 821 l 464 829 l 464 811 q 471 777 464 788 q 507 763 478 767 l 603 754 z "},"צ":{"ha":717,"x_min":49,"x_max":668,"o":"m 511 442 q 492 406 499 428 q 483 367 485 385 l 578 317 q 631 215 631 289 q 621 146 631 181 l 583 0 l 53 0 l 114 250 l 457 250 q 442 266 457 257 q 408 283 426 275 l 265 358 q 238 385 244 369 q 231 436 231 400 l 231 482 q 224 503 231 497 q 200 508 217 508 l 163 508 q 76 534 103 508 q 49 631 49 560 q 92 829 49 722 l 118 829 l 118 814 q 128 774 118 785 q 164 764 138 764 l 207 764 q 274 744 254 764 q 293 667 293 724 l 293 542 q 301 478 293 497 q 339 443 308 460 l 418 401 q 471 482 439 456 l 504 510 l 488 511 q 410 550 429 518 q 390 629 390 582 q 403 724 390 681 q 429 794 417 767 q 444 829 442 821 l 471 829 l 471 811 q 478 777 471 789 q 514 763 485 765 l 596 754 q 668 640 668 747 q 660 567 668 604 q 638 475 653 529 l 625 475 q 617 491 622 485 q 594 499 611 497 l 565 501 l 511 442 z "},"ק":{"ha":710,"x_min":63,"x_max":661,"o":"m 319 -14 q 287 -3 297 -14 q 276 28 276 8 l 276 35 q 288 114 276 89 q 333 169 299 139 l 525 344 q 560 388 551 368 q 569 431 569 407 q 545 492 569 475 q 461 508 521 508 l 154 508 q 84 537 106 508 q 63 626 63 565 q 78 744 63 686 q 107 829 94 803 l 133 829 l 133 799 q 142 773 133 782 q 165 764 151 764 l 508 764 q 587 743 556 764 q 640 671 618 722 q 656 616 651 647 q 661 529 661 585 q 645 391 661 446 q 582 294 629 336 l 400 129 q 369 92 378 110 q 360 35 360 74 l 360 26 q 350 -3 360 8 q 319 -14 340 -14 m 97 -222 q 69 -219 81 -222 l 69 -208 q 80 -185 76 -197 q 83 -140 83 -172 l 83 274 q 108 387 83 351 q 168 422 132 422 q 190 419 179 422 l 190 408 q 175 335 175 378 l 175 -112 q 154 -192 175 -161 q 97 -222 133 -222 z "},"ר":{"ha":682,"x_min":28,"x_max":601,"o":"m 521 -6 q 489 -3 508 -6 l 489 8 q 499 37 496 19 q 501 104 501 54 l 501 407 q 490 488 501 468 q 442 508 479 508 l 142 508 q 55 535 82 508 q 28 632 28 563 q 43 747 28 692 q 71 829 58 801 l 97 829 l 97 807 q 140 764 97 764 l 443 764 q 544 730 517 764 q 574 624 571 696 l 599 124 q 583 27 601 60 q 521 -6 565 -6 z "},"ש":{"ha":935,"x_min":42,"x_max":893,"o":"m 831 757 q 879 736 865 753 q 893 688 893 719 l 893 625 q 860 500 893 546 l 813 435 q 732 282 765 369 q 672 63 699 194 l 660 0 l 204 0 l 190 53 q 138 270 151 206 q 125 390 125 335 q 143 511 125 444 l 139 511 q 62 549 82 518 q 42 629 42 581 q 54 722 42 681 q 79 791 67 763 q 96 829 92 819 l 122 829 l 122 811 q 131 780 122 790 q 165 765 139 769 l 232 756 q 289 719 274 750 q 304 636 304 688 q 274 475 304 558 l 261 475 q 252 492 257 488 q 231 499 247 497 l 203 503 q 197 429 197 464 q 208 331 197 365 q 242 251 219 296 l 347 251 l 454 510 l 444 511 q 367 549 388 518 q 347 629 347 581 q 360 722 347 681 q 385 791 372 763 q 401 829 397 819 l 428 829 l 428 811 q 436 780 428 790 q 471 765 444 769 l 536 756 q 593 719 578 750 q 608 636 608 688 q 578 475 608 558 l 565 475 q 556 492 561 488 q 535 499 551 497 l 521 500 l 418 251 l 633 251 q 731 433 679 357 l 751 464 q 767 497 767 488 q 747 511 767 507 l 707 517 q 651 606 651 525 q 706 829 651 694 l 732 829 l 732 813 q 740 779 732 790 q 767 765 747 768 l 831 757 z "},"ת":{"ha":786,"x_min":21,"x_max":706,"o":"m 703 124 q 688 27 706 60 q 625 -6 669 -6 q 593 -3 613 -6 l 593 8 q 603 37 600 19 q 606 104 606 54 l 606 407 q 594 488 606 468 q 546 508 583 508 l 269 508 q 255 468 263 499 q 247 400 247 438 q 267 246 247 351 q 283 113 283 149 q 251 0 283 51 l 21 0 l 63 256 l 175 256 q 168 360 168 336 q 175 426 168 396 q 208 507 181 447 l 208 508 l 204 508 q 117 535 144 508 q 90 632 90 563 q 106 747 90 692 q 133 829 121 801 l 160 829 l 160 807 q 203 764 160 764 l 550 764 q 651 730 624 764 q 681 624 678 696 l 703 124 z "},"ﬠ":{"ha":696,"x_min":42,"x_max":661,"o":"m 572 757 q 640 722 618 750 q 661 642 661 693 l 661 613 q 650 559 661 594 q 628 501 639 524 l 596 436 q 560 307 560 360 l 560 292 q 510 78 560 156 q 329 0 460 0 l 42 0 l 88 256 l 276 256 q 254 288 272 274 l 210 328 q 165 442 165 368 q 176 510 165 479 l 161 511 q 85 550 106 519 q 64 631 64 581 q 77 724 64 682 q 103 794 90 767 q 118 829 115 821 l 144 829 l 144 811 q 151 777 144 788 q 188 763 158 767 l 256 754 q 311 719 294 749 q 328 635 328 689 q 297 475 328 558 l 285 475 q 276 492 281 488 q 254 499 271 496 l 217 504 q 250 425 211 460 l 301 379 q 344 322 335 350 q 353 256 353 293 l 397 256 q 443 278 428 256 q 475 349 458 301 q 499 408 490 393 l 522 456 q 531 485 531 472 q 508 508 531 504 l 447 521 q 392 610 392 532 q 446 831 392 696 l 472 831 l 472 814 q 480 781 472 792 q 507 767 488 769 l 572 757 z "},"ﬡ":{"ha":1265,"x_min":49,"x_max":1217,"o":"m 1133 256 q 1190 204 1172 235 q 1207 129 1207 174 q 1195 59 1207 86 q 1169 13 1183 32 q 1150 -14 1156 -7 l 1128 -14 q 1115 22 1129 -3 q 1069 63 1101 46 l 263 479 l 214 415 q 179 336 179 369 q 184 310 179 322 q 199 278 189 297 l 261 171 q 289 65 289 125 q 279 0 289 35 l 49 0 l 49 46 l 74 46 q 94 52 89 46 q 100 72 100 58 q 92 132 100 79 l 82 188 q 75 258 75 229 q 88 329 75 294 q 129 404 100 364 l 207 508 l 146 540 q 68 668 68 581 q 118 829 68 746 l 144 829 l 144 813 q 207 732 144 764 l 956 347 q 1040 482 960 406 l 1065 507 l 1042 511 q 964 551 983 521 q 944 629 944 582 q 958 724 944 681 q 983 794 971 767 q 999 829 996 821 l 1025 829 l 1025 811 q 1032 778 1025 789 q 1068 763 1039 767 l 1144 750 q 1201 713 1186 743 q 1217 632 1217 683 q 1186 471 1217 554 l 1174 471 q 1165 488 1169 483 q 1143 494 1160 492 l 1111 500 l 1088 472 q 1056 440 1085 469 q 1022 351 1026 411 l 1022 339 q 1024 313 1022 321 l 1133 256 z "},"ﬢ":{"ha":1174,"x_min":28,"x_max":1125,"o":"m 1075 764 q 1115 754 1104 764 q 1125 717 1125 744 l 1125 514 l 1061 514 q 1019 448 1031 475 q 1008 375 1008 421 q 1010 333 1008 349 l 1022 104 q 1003 21 1025 47 q 940 -6 981 -6 q 908 -3 928 -6 l 908 8 q 919 38 915 19 q 922 104 922 56 l 922 308 q 997 511 922 436 l 997 514 l 142 514 q 55 541 82 514 q 28 636 28 568 q 42 748 28 697 q 71 829 57 799 l 97 829 l 97 807 q 140 764 97 764 l 1075 764 z "},"ﬣ":{"ha":1264,"x_min":76,"x_max":1188,"o":"m 1088 -6 q 1056 -3 1072 -6 l 1056 8 q 1066 38 1064 22 q 1068 104 1068 53 l 1068 315 q 1111 511 1068 447 l 1111 514 l 190 514 q 103 540 131 514 q 76 636 76 565 q 90 743 76 697 q 119 829 103 789 l 146 829 l 146 814 q 156 774 146 785 q 192 764 165 764 l 1149 764 q 1178 753 1168 764 q 1188 726 1188 743 l 1188 532 l 1175 515 q 1154 397 1154 488 q 1157 317 1154 346 l 1171 124 l 1172 100 q 1150 21 1172 47 q 1088 -6 1128 -6 m 115 -6 q 85 -1 104 -6 l 85 8 q 99 61 99 22 l 99 260 q 120 359 99 324 q 176 394 142 394 q 199 390 186 394 l 199 382 q 185 359 188 374 q 183 322 182 344 l 196 94 q 176 19 199 43 q 115 -6 153 -6 z "},"ﬤ":{"ha":1200,"x_min":42,"x_max":1144,"o":"m 100 250 l 956 250 q 1043 281 1017 250 q 1069 374 1069 311 q 1037 481 1069 447 q 919 514 1004 514 l 174 514 q 103 542 125 514 q 82 632 82 571 q 97 747 82 692 q 126 829 113 803 l 153 829 l 153 799 q 162 773 153 782 q 185 764 171 764 l 957 764 q 1040 742 1008 764 q 1094 672 1072 719 q 1127 564 1110 638 q 1144 368 1144 490 q 1125 183 1144 251 q 1071 68 1106 114 q 956 0 1018 0 l 42 0 l 100 250 z "},"ﬥ":{"ha":1228,"x_min":28,"x_max":1179,"o":"m 847 -14 q 792 8 813 -14 q 771 69 771 29 q 897 263 771 169 l 1033 365 q 1067 404 1057 383 q 1078 451 1078 425 q 1062 498 1078 482 q 1003 514 1046 514 l 153 514 q 101 549 117 514 q 85 647 85 583 q 92 744 85 701 q 113 846 99 788 q 124 900 124 883 q 120 913 124 910 q 107 919 117 917 l 69 926 q 28 993 28 933 q 36 1053 28 1026 q 58 1111 44 1081 l 85 1111 l 85 1100 q 103 1081 85 1085 l 174 1065 q 213 1010 213 1057 q 203 942 213 975 q 176 871 193 910 q 154 800 154 821 q 173 770 154 776 q 232 764 192 764 l 1090 764 q 1150 731 1135 764 q 1169 664 1160 708 q 1179 561 1179 619 q 1160 426 1179 492 q 1088 319 1140 360 l 947 210 q 911 150 911 183 q 917 108 911 136 q 919 91 918 103 q 921 69 921 79 q 903 10 921 33 q 847 -14 885 -14 z "},"ﬦ":{"ha":1278,"x_min":63,"x_max":1188,"o":"m 100 310 q 117 415 100 371 q 179 511 135 458 l 179 514 l 154 514 q 88 544 114 514 q 63 626 63 574 q 107 829 63 733 l 133 829 l 133 799 q 142 773 133 782 q 165 764 151 764 l 1053 764 q 1152 728 1117 764 q 1188 626 1188 692 l 1188 0 l 99 0 l 100 310 m 1104 250 l 1104 401 q 1096 470 1104 447 q 1065 503 1088 493 q 997 514 1042 514 l 226 514 q 192 424 200 460 q 183 328 183 388 l 183 293 q 190 260 183 269 q 214 250 197 250 l 1104 250 z "},"ﬧ":{"ha":1196,"x_min":28,"x_max":1115,"o":"m 1035 -6 q 1003 -3 1022 -6 l 1003 8 q 1013 37 1010 19 q 1015 104 1015 54 l 1015 413 q 1004 494 1015 474 q 956 514 993 514 l 142 514 q 54 539 81 514 q 28 632 28 564 q 43 747 28 692 q 71 829 58 801 l 97 829 l 97 807 q 140 764 97 764 l 960 764 q 1060 730 1033 764 q 1090 624 1088 696 l 1113 124 q 1097 27 1115 60 q 1035 -6 1079 -6 z "},"ﬨ":{"ha":1300,"x_min":21,"x_max":1219,"o":"m 1217 124 q 1201 27 1219 60 q 1139 -6 1183 -6 q 1107 -3 1126 -6 l 1107 8 q 1117 37 1114 19 q 1119 104 1119 54 l 1119 407 q 1108 492 1119 469 q 1060 514 1097 514 l 276 514 q 247 393 247 467 q 256 312 247 361 q 265 251 264 263 q 283 113 283 156 q 251 0 283 51 l 21 0 l 63 256 l 163 256 q 171 297 171 271 l 169 318 q 165 385 165 363 q 174 452 165 424 q 208 513 183 481 l 208 514 l 204 514 q 117 541 144 514 q 90 638 90 568 q 105 748 90 697 q 133 829 119 799 l 160 829 l 160 807 q 203 764 160 764 l 1064 764 q 1165 730 1138 764 q 1194 624 1192 696 l 1217 124 z "},"שׁ":{"ha":935,"x_min":42,"x_max":893,"o":"m 831 757 q 879 736 865 753 q 893 688 893 719 l 893 625 q 860 500 893 546 l 813 435 q 732 282 765 369 q 672 63 699 194 l 660 0 l 204 0 l 190 53 q 138 270 151 206 q 125 390 125 335 q 143 511 125 444 l 139 511 q 62 549 82 518 q 42 629 42 581 q 54 722 42 681 q 79 791 67 763 q 96 829 92 819 l 122 829 l 122 811 q 131 780 122 790 q 165 765 139 769 l 232 756 q 289 719 274 750 q 304 636 304 688 q 274 475 304 558 l 261 475 q 252 492 257 488 q 231 499 247 497 l 203 503 q 197 429 197 464 q 208 331 197 365 q 242 251 219 296 l 347 251 l 454 510 l 444 511 q 367 549 388 518 q 347 629 347 581 q 360 722 347 681 q 385 791 372 763 q 401 829 397 819 l 428 829 l 428 811 q 436 780 428 790 q 471 765 444 769 l 536 756 q 593 719 578 750 q 608 636 608 688 q 578 475 608 558 l 565 475 q 556 492 561 488 q 535 499 551 497 l 521 500 l 418 251 l 633 251 q 731 433 679 357 l 751 464 q 767 497 767 488 q 747 511 767 507 l 707 517 q 651 606 651 525 q 706 829 651 694 l 732 829 l 732 813 q 740 779 732 790 q 767 765 747 768 l 831 757 m 792 843 q 744 862 764 843 q 725 908 725 881 q 744 954 725 935 q 792 974 764 974 q 839 954 819 974 q 858 908 858 935 q 839 862 858 881 q 792 843 819 843 z "},"שׂ":{"ha":935,"x_min":42,"x_max":893,"o":"m 831 757 q 879 736 865 753 q 893 688 893 719 l 893 625 q 860 500 893 546 l 813 435 q 732 282 765 369 q 672 63 699 194 l 660 0 l 204 0 l 190 53 q 138 270 151 206 q 125 390 125 335 q 143 511 125 444 l 139 511 q 62 549 82 518 q 42 629 42 581 q 54 722 42 681 q 79 791 67 763 q 96 829 92 819 l 122 829 l 122 811 q 131 780 122 790 q 165 765 139 769 l 232 756 q 289 719 274 750 q 304 636 304 688 q 274 475 304 558 l 261 475 q 252 492 257 488 q 231 499 247 497 l 203 503 q 197 429 197 464 q 208 331 197 365 q 242 251 219 296 l 347 251 l 454 510 l 444 511 q 367 549 388 518 q 347 629 347 581 q 360 722 347 681 q 385 791 372 763 q 401 829 397 819 l 428 829 l 428 811 q 436 780 428 790 q 471 765 444 769 l 536 756 q 593 719 578 750 q 608 636 608 688 q 578 475 608 558 l 565 475 q 556 492 561 488 q 535 499 551 497 l 521 500 l 418 251 l 633 251 q 731 433 679 357 l 751 464 q 767 497 767 488 q 747 511 767 507 l 707 517 q 651 606 651 525 q 706 829 651 694 l 732 829 l 732 813 q 740 779 732 790 q 767 765 747 768 l 831 757 m 200 843 q 153 862 172 843 q 133 908 133 881 q 153 954 133 935 q 200 974 172 974 q 247 954 228 974 q 267 908 267 935 q 247 862 267 881 q 200 843 228 843 z "},"שּׁ":{"ha":935,"x_min":42,"x_max":893,"o":"m 831 757 q 879 736 865 753 q 893 688 893 719 l 893 625 q 860 500 893 546 l 813 435 q 732 282 765 369 q 672 63 699 194 l 660 0 l 204 0 l 190 53 q 138 270 151 206 q 125 390 125 335 q 143 511 125 444 l 139 511 q 62 549 82 518 q 42 629 42 581 q 54 722 42 681 q 79 791 67 763 q 96 829 92 819 l 122 829 l 122 811 q 131 780 122 790 q 165 765 139 769 l 232 756 q 289 719 274 750 q 304 636 304 688 q 274 475 304 558 l 261 475 q 252 492 257 488 q 231 499 247 497 l 203 503 q 197 429 197 464 q 208 331 197 365 q 242 251 219 296 l 347 251 l 454 510 l 444 511 q 367 549 388 518 q 347 629 347 581 q 360 722 347 681 q 385 791 372 763 q 401 829 397 819 l 428 829 l 428 811 q 436 780 428 790 q 471 765 444 769 l 536 756 q 593 719 578 750 q 608 636 608 688 q 578 475 608 558 l 565 475 q 556 492 561 488 q 535 499 551 497 l 521 500 l 418 251 l 633 251 q 731 433 679 357 l 751 464 q 767 497 767 488 q 747 511 767 507 l 707 517 q 651 606 651 525 q 706 829 651 694 l 732 829 l 732 813 q 740 779 732 790 q 767 765 747 768 l 831 757 m 585 319 q 538 339 557 319 q 518 385 518 358 q 538 431 518 411 q 585 450 557 450 q 632 431 613 450 q 651 385 651 411 q 632 339 651 358 q 585 319 613 319 m 792 843 q 744 862 764 843 q 725 908 725 881 q 744 954 725 935 q 792 974 764 974 q 839 954 819 974 q 858 908 858 935 q 839 862 858 881 q 792 843 819 843 z "},"שּׂ":{"ha":935,"x_min":42,"x_max":893,"o":"m 831 757 q 879 736 865 753 q 893 688 893 719 l 893 625 q 860 500 893 546 l 813 435 q 732 282 765 369 q 672 63 699 194 l 660 0 l 204 0 l 190 53 q 138 270 151 206 q 125 390 125 335 q 143 511 125 444 l 139 511 q 62 549 82 518 q 42 629 42 581 q 54 722 42 681 q 79 791 67 763 q 96 829 92 819 l 122 829 l 122 811 q 131 780 122 790 q 165 765 139 769 l 232 756 q 289 719 274 750 q 304 636 304 688 q 274 475 304 558 l 261 475 q 252 492 257 488 q 231 499 247 497 l 203 503 q 197 429 197 464 q 208 331 197 365 q 242 251 219 296 l 347 251 l 454 510 l 444 511 q 367 549 388 518 q 347 629 347 581 q 360 722 347 681 q 385 791 372 763 q 401 829 397 819 l 428 829 l 428 811 q 436 780 428 790 q 471 765 444 769 l 536 756 q 593 719 578 750 q 608 636 608 688 q 578 475 608 558 l 565 475 q 556 492 561 488 q 535 499 551 497 l 521 500 l 418 251 l 633 251 q 731 433 679 357 l 751 464 q 767 497 767 488 q 747 511 767 507 l 707 517 q 651 606 651 525 q 706 829 651 694 l 732 829 l 732 813 q 740 779 732 790 q 767 765 747 768 l 831 757 m 585 319 q 538 339 557 319 q 518 385 518 358 q 538 431 518 411 q 585 450 557 450 q 632 431 613 450 q 651 385 651 411 q 632 339 651 358 q 585 319 613 319 m 200 843 q 153 862 172 843 q 133 908 133 881 q 153 954 133 935 q 200 974 172 974 q 247 954 228 974 q 267 908 267 935 q 247 862 267 881 q 200 843 228 843 z "},"אַ":{"ha":782,"x_min":49,"x_max":733,"o":"m 647 278 q 707 131 707 214 q 694 64 707 96 q 654 -17 682 32 l 628 -17 q 619 10 626 -3 q 592 44 611 24 l 224 444 l 200 404 q 176 333 176 361 q 186 297 176 313 l 261 171 q 296 63 296 113 q 281 0 296 28 l 49 0 l 49 46 l 74 46 q 94 52 89 46 q 100 74 100 58 q 92 132 100 93 l 79 199 q 72 257 72 236 q 86 327 72 290 q 136 421 100 364 l 181 492 l 117 561 q 86 610 93 586 q 79 660 79 635 q 91 727 79 694 q 117 789 103 760 q 136 829 131 818 l 163 829 l 163 821 q 169 799 163 808 q 185 779 175 790 q 201 761 196 768 l 522 413 q 560 475 531 439 l 586 508 l 567 511 q 490 550 511 519 q 469 631 469 581 q 483 724 469 682 q 508 794 496 767 q 524 829 521 821 l 550 829 l 550 811 q 557 777 550 788 q 593 763 564 767 l 661 754 q 717 719 700 749 q 733 635 733 689 q 703 475 733 558 l 690 475 q 681 492 686 488 q 660 499 676 496 l 632 503 l 624 489 q 590 418 600 450 q 578 353 581 386 l 647 278 m 314 -107 l 557 -107 l 532 -196 l 293 -196 l 314 -107 z "},"אָ":{"ha":782,"x_min":49,"x_max":733,"o":"m 647 278 q 707 131 707 214 q 694 64 707 96 q 654 -17 682 32 l 628 -17 q 619 10 626 -3 q 592 44 611 24 l 224 444 l 200 404 q 176 333 176 361 q 186 297 176 313 l 261 171 q 296 63 296 113 q 281 0 296 28 l 49 0 l 49 46 l 74 46 q 94 52 89 46 q 100 74 100 58 q 92 132 100 93 l 79 199 q 72 257 72 236 q 86 327 72 290 q 136 421 100 364 l 181 492 l 117 561 q 86 610 93 586 q 79 660 79 635 q 91 727 79 694 q 117 789 103 760 q 136 829 131 818 l 163 829 l 163 821 q 169 799 163 808 q 185 779 175 790 q 201 761 196 768 l 522 413 q 560 475 531 439 l 586 508 l 567 511 q 490 550 511 519 q 469 631 469 581 q 483 724 469 682 q 508 794 496 767 q 524 829 521 821 l 550 829 l 550 811 q 557 777 550 788 q 593 763 564 767 l 661 754 q 717 719 700 749 q 733 635 733 689 q 703 475 733 558 l 690 475 q 681 492 686 488 q 660 499 676 496 l 632 503 l 624 489 q 590 418 600 450 q 578 353 581 386 l 647 278 m 436 -387 q 395 -370 414 -387 q 376 -326 376 -353 q 378 -311 376 -317 l 407 -196 l 292 -196 l 317 -107 l 579 -107 l 554 -196 l 467 -196 l 494 -311 q 496 -328 496 -317 q 477 -371 496 -354 q 436 -387 458 -387 z "},"אּ":{"ha":782,"x_min":49,"x_max":733,"o":"m 647 278 q 707 131 707 214 q 694 64 707 96 q 654 -17 682 32 l 628 -17 q 619 10 626 -3 q 592 44 611 24 l 224 444 l 200 404 q 176 333 176 361 q 186 297 176 313 l 261 171 q 296 63 296 113 q 281 0 296 28 l 49 0 l 49 46 l 74 46 q 94 52 89 46 q 100 74 100 58 q 92 132 100 93 l 79 199 q 72 257 72 236 q 86 327 72 290 q 136 421 100 364 l 181 492 l 117 561 q 86 610 93 586 q 79 660 79 635 q 91 727 79 694 q 117 789 103 760 q 136 829 131 818 l 163 829 l 163 821 q 169 799 163 808 q 185 779 175 790 q 201 761 196 768 l 522 413 q 560 475 531 439 l 586 508 l 567 511 q 490 550 511 519 q 469 631 469 581 q 483 724 469 682 q 508 794 496 767 q 524 829 521 821 l 550 829 l 550 811 q 557 777 550 788 q 593 763 564 767 l 661 754 q 717 719 700 749 q 733 635 733 689 q 703 475 733 558 l 690 475 q 681 492 686 488 q 660 499 676 496 l 632 503 l 624 489 q 590 418 600 450 q 578 353 581 386 l 647 278 m 406 168 q 448 151 431 168 q 465 110 465 133 q 448 67 465 85 q 406 50 431 50 q 364 67 382 50 q 346 110 346 85 q 364 151 346 133 q 406 168 382 168 z "},"בּ":{"ha":689,"x_min":42,"x_max":654,"o":"m 83 256 l 494 256 q 527 333 519 307 q 535 401 535 360 q 526 468 535 446 q 496 499 518 490 q 428 508 474 508 l 167 508 q 97 536 118 508 q 75 621 75 564 q 90 744 75 689 q 119 829 106 799 l 146 829 l 146 799 q 155 773 146 782 q 178 764 164 764 l 469 764 q 569 728 533 764 q 604 626 604 692 l 604 422 q 565 256 604 336 l 654 256 l 613 0 l 42 0 l 83 256 m 306 319 q 258 339 278 319 q 239 385 239 358 q 258 431 239 411 q 306 450 278 450 q 353 431 333 450 q 372 385 372 411 q 353 339 372 358 q 306 319 333 319 z "},"גּ":{"ha":536,"x_min":28,"x_max":501,"o":"m 79 256 l 257 256 q 309 290 293 256 q 328 372 325 325 l 332 444 q 323 485 333 474 q 286 501 313 497 l 171 518 q 116 543 131 525 q 101 606 101 561 q 115 706 101 657 q 156 829 128 756 l 182 829 l 182 810 q 192 777 182 786 q 235 764 203 768 l 342 749 q 400 722 383 743 q 414 647 417 701 l 403 453 q 411 374 400 407 q 446 297 422 342 q 481 221 471 250 q 501 99 501 164 q 493 0 501 54 l 467 0 q 428 133 453 85 q 346 226 403 181 l 263 0 l 28 0 l 79 256 m 193 319 q 146 339 165 319 q 126 385 126 358 q 146 431 126 411 q 193 450 165 450 q 240 431 221 450 q 260 385 260 411 q 240 339 260 358 q 193 319 221 319 z "},"דּ":{"ha":660,"x_min":28,"x_max":611,"o":"m 561 764 q 601 754 590 764 q 611 717 611 744 l 611 508 l 547 508 q 506 442 517 469 q 494 369 494 415 q 496 328 494 343 l 508 104 q 489 21 511 47 q 426 -6 467 -6 q 394 -3 414 -6 l 394 8 q 405 38 401 19 q 408 104 408 56 l 408 303 q 483 506 408 431 l 483 508 l 142 508 q 55 535 82 508 q 28 631 28 563 q 42 746 28 692 q 71 829 57 800 l 97 829 l 97 807 q 140 764 97 764 l 561 764 m 218 450 q 265 431 246 450 q 285 385 285 411 q 265 339 285 358 q 218 319 246 319 q 171 339 190 319 q 151 385 151 358 q 171 431 151 411 q 218 450 190 450 z "},"הּ":{"ha":750,"x_min":76,"x_max":674,"o":"m 574 -6 q 542 -3 558 -6 l 542 8 q 552 38 550 22 q 554 104 554 53 l 554 310 q 597 506 554 442 l 597 508 l 190 508 q 103 534 131 508 q 76 631 76 560 q 119 829 76 722 l 146 829 l 146 814 q 156 774 146 785 q 192 764 165 764 l 635 764 q 664 753 654 764 q 674 726 674 743 l 674 526 l 661 510 q 640 392 640 482 q 643 311 640 340 l 657 124 l 658 100 q 636 21 658 47 q 574 -6 614 -6 m 115 -6 q 85 -1 104 -6 l 85 8 q 99 61 99 22 l 99 260 q 120 359 99 324 q 176 394 142 394 q 199 390 186 394 l 199 382 q 185 359 188 374 q 183 322 182 344 l 196 94 q 176 19 199 43 q 115 -6 153 -6 m 369 319 q 322 339 342 319 q 303 385 303 358 q 322 431 303 411 q 369 450 342 450 q 417 431 397 450 q 436 385 436 411 q 417 339 436 358 q 369 319 397 319 z "},"וּ":{"ha":458,"x_min":42,"x_max":378,"o":"m 297 -6 q 265 -3 285 -6 l 265 8 q 275 37 272 19 q 278 104 278 54 l 278 401 q 274 463 278 443 q 257 490 269 482 q 218 503 244 499 l 97 521 q 53 548 65 526 q 42 608 42 569 q 96 831 42 696 l 122 831 l 122 814 q 130 781 122 792 q 157 767 138 769 l 257 751 q 313 733 294 746 q 337 695 331 719 q 346 624 343 671 l 375 124 q 360 27 378 60 q 297 -6 342 -6 m 158 319 q 111 339 131 319 q 92 385 92 358 q 111 431 92 411 q 158 450 131 450 q 206 431 186 450 q 225 385 225 411 q 206 339 225 358 q 158 319 186 319 z "},"זּ":{"ha":425,"x_min":-22,"x_max":376,"o":"m 283 747 q 376 613 376 735 q 365 536 376 568 q 344 487 354 504 q 332 465 335 469 l 319 465 q 311 481 317 475 q 289 489 306 486 l 236 497 q 231 439 231 467 q 243 340 231 389 l 294 124 q 301 71 301 92 q 283 14 301 33 q 232 -6 265 -6 q 199 -3 218 -6 l 199 8 q 208 46 208 24 q 200 104 208 65 l 165 260 q 154 350 154 311 q 190 504 154 428 l 143 513 q 79 530 100 519 q 50 560 58 540 q 42 618 42 581 q 57 722 42 672 q 96 829 72 772 l 122 829 l 122 811 q 130 778 122 789 q 165 764 138 768 l 283 747 m 44 319 q -3 339 17 319 q -22 385 -22 358 q -3 431 -22 411 q 44 450 17 450 q 92 431 72 450 q 111 385 111 411 q 92 339 111 358 q 44 319 72 319 z "},"טּ":{"ha":767,"x_min":49,"x_max":711,"o":"m 546 781 q 672 690 632 781 q 711 453 711 600 q 685 243 711 346 q 594 0 660 140 l 174 0 q 134 194 150 100 q 118 332 118 288 q 150 511 118 422 l 146 511 q 69 549 89 518 q 49 629 49 581 q 61 722 49 681 q 86 791 74 763 q 103 829 99 819 l 129 829 l 129 811 q 138 780 129 790 q 172 765 146 769 l 239 756 q 296 719 281 750 q 311 636 311 688 q 281 475 311 558 l 268 475 q 259 492 264 488 q 238 499 254 497 l 208 503 q 192 385 192 446 q 210 253 192 343 l 619 253 q 643 389 643 317 q 617 499 643 467 q 528 532 590 532 q 455 510 492 532 q 401 450 418 489 l 392 428 l 356 428 l 367 499 q 429 706 388 632 q 546 781 471 781 m 415 282 q 368 301 388 282 q 349 347 349 321 q 368 393 349 374 q 415 413 388 413 q 463 393 443 413 q 482 347 482 374 q 463 301 482 321 q 415 282 443 282 z "},"יּ":{"ha":435,"x_min":28,"x_max":393,"o":"m 201 300 q 315 447 315 375 q 300 494 315 479 q 247 508 285 508 l 142 508 q 55 535 82 508 q 28 631 28 563 q 42 746 28 692 q 71 829 57 800 l 97 829 l 97 807 q 140 764 97 764 l 278 764 q 344 746 321 764 q 375 708 367 728 q 388 642 382 693 q 393 553 393 590 q 365 406 393 464 q 301 317 338 347 q 219 264 265 288 l 201 300 m 172 349 q 125 368 144 349 q 106 414 106 388 q 125 460 106 440 q 172 479 144 479 q 219 460 200 479 q 239 414 239 440 q 219 368 239 388 q 172 349 200 349 z "},"ךּ":{"ha":696,"x_min":35,"x_max":622,"o":"m 542 -222 q 511 -219 531 -222 l 511 -208 q 521 -180 518 -197 q 524 -112 524 -162 l 524 440 q 510 494 524 481 q 461 508 496 508 l 149 508 q 62 534 89 508 q 35 631 35 560 q 78 829 35 722 l 104 829 l 104 814 q 114 774 104 785 q 150 764 124 764 l 533 764 q 600 741 581 764 q 619 653 619 718 q 611 586 619 636 q 597 440 594 510 l 619 -96 q 605 -189 622 -156 q 542 -222 588 -222 m 279 319 q 232 339 251 319 q 213 385 213 358 q 232 431 213 411 q 279 450 251 450 q 326 431 307 450 q 346 385 346 411 q 326 339 346 358 q 279 319 307 319 z "},"כּ":{"ha":686,"x_min":42,"x_max":631,"o":"m 100 256 l 483 256 q 540 283 524 256 q 556 374 556 311 q 533 478 556 447 q 447 508 510 508 l 174 508 q 103 537 125 508 q 82 626 82 565 q 98 744 82 686 q 126 829 114 803 l 153 829 l 153 799 q 162 773 153 782 q 185 764 171 764 l 443 764 q 526 742 494 764 q 581 672 558 719 q 613 564 596 638 q 631 368 631 490 q 611 182 631 251 q 557 68 592 113 q 428 0 504 0 l 42 0 l 100 256 m 319 319 q 272 339 292 319 q 253 385 253 358 q 272 431 253 411 q 319 450 292 450 q 367 431 347 450 q 386 385 386 411 q 367 339 386 358 q 319 319 347 319 z "},"לּ":{"ha":714,"x_min":28,"x_max":665,"o":"m 333 -14 q 278 8 299 -14 q 257 69 257 29 q 383 263 257 169 l 519 365 q 553 404 543 383 q 564 451 564 425 q 549 494 564 481 q 489 508 533 508 l 153 508 q 101 543 117 508 q 85 642 85 578 q 92 740 85 696 q 113 844 100 785 q 124 900 124 885 q 120 913 124 910 q 107 919 117 917 l 69 926 q 28 993 28 933 q 36 1053 28 1026 q 58 1111 44 1081 l 85 1111 l 85 1100 q 103 1081 85 1085 l 174 1065 q 213 1010 213 1057 q 203 942 213 975 q 176 871 193 910 q 154 800 154 821 q 173 770 154 776 q 232 764 192 764 l 576 764 q 636 731 621 764 q 656 664 646 708 q 665 561 665 619 q 646 426 665 492 q 574 319 626 360 l 433 210 q 397 150 397 183 q 403 108 397 136 q 406 91 404 103 q 407 69 407 79 q 389 10 407 33 q 333 -14 371 -14 m 328 319 q 281 339 300 319 q 261 385 261 358 q 281 431 261 411 q 328 450 300 450 q 375 431 356 450 q 394 385 394 411 q 375 339 394 358 q 328 319 356 319 z "},"מּ":{"ha":763,"x_min":49,"x_max":707,"o":"m 101 0 q 116 238 101 149 q 164 393 131 328 l 204 472 q 208 488 208 481 q 190 506 208 504 l 128 514 q 69 549 90 519 q 49 631 49 578 q 65 735 49 688 q 103 829 82 783 l 129 829 l 129 811 q 138 779 129 789 q 164 767 147 769 l 238 756 q 296 719 281 749 q 311 635 311 689 q 306 569 311 592 l 307 568 q 432 781 407 618 l 447 781 q 515 757 471 781 q 589 706 558 733 q 678 562 650 651 q 707 374 707 472 q 696 212 707 303 q 667 0 685 121 l 288 0 l 329 256 l 644 256 q 650 322 650 289 q 602 469 650 410 q 458 528 554 528 q 342 497 386 528 q 263 428 297 467 q 185 261 208 368 q 161 0 161 154 l 101 0 m 446 319 q 399 339 418 319 q 379 385 379 358 q 399 431 379 411 q 446 450 418 450 q 493 431 474 450 q 513 385 513 411 q 493 339 513 358 q 446 319 474 319 z "},"נּ":{"ha":483,"x_min":35,"x_max":435,"o":"m 76 256 l 331 256 q 325 331 325 286 l 326 367 l 331 444 q 321 486 332 474 q 285 501 310 499 l 169 518 q 115 542 129 524 q 100 606 100 561 q 113 706 100 657 q 154 829 126 756 l 181 829 l 181 810 q 190 778 181 786 q 233 764 200 769 l 338 749 q 397 722 379 743 q 413 647 415 701 l 399 396 q 414 279 397 350 q 429 201 424 235 q 435 126 435 167 q 430 65 435 92 q 414 0 425 38 l 35 0 l 76 256 m 183 319 q 136 339 156 319 q 117 385 117 358 q 136 431 117 411 q 183 450 156 450 q 231 431 211 450 q 250 385 250 411 q 231 339 250 358 q 183 319 211 319 z "},"סּ":{"ha":696,"x_min":56,"x_max":640,"o":"m 590 672 q 623 564 606 638 q 640 369 640 490 q 563 81 640 179 q 351 -17 486 -17 q 143 58 217 -17 q 69 260 69 132 q 83 366 69 319 q 108 435 96 413 q 150 506 121 457 l 150 508 l 147 508 q 77 537 99 508 q 56 626 56 565 q 72 744 56 686 q 100 829 88 803 l 126 829 l 126 799 q 135 773 126 782 q 158 764 144 764 l 453 764 q 536 742 504 764 q 590 672 568 719 m 356 222 q 515 260 465 222 q 565 381 565 297 q 544 478 565 449 q 464 508 522 508 l 203 508 q 185 477 199 501 q 163 425 171 453 q 154 367 154 397 q 202 256 154 290 q 356 222 250 222 m 360 319 q 313 339 332 319 q 293 385 293 358 q 313 431 293 411 q 360 450 332 450 q 407 431 388 450 q 426 385 426 411 q 407 339 426 358 q 360 319 388 319 z "},"ףּ":{"ha":697,"x_min":28,"x_max":617,"o":"m 614 -96 q 599 -189 617 -156 q 536 -222 582 -222 q 506 -219 525 -222 l 506 -208 q 515 -180 513 -197 q 518 -112 518 -162 l 518 440 q 504 494 518 481 q 456 508 490 508 l 219 508 q 193 421 193 469 l 254 421 q 303 374 303 421 l 303 261 l 276 261 q 256 280 271 272 q 217 288 240 288 q 151 254 167 288 l 96 254 q 93 304 93 299 q 108 396 93 354 q 137 467 122 438 q 156 507 151 497 l 156 508 l 142 508 q 55 534 82 508 q 28 631 28 560 q 71 829 28 722 l 97 829 l 97 814 q 107 774 97 785 q 143 764 117 764 l 449 764 q 550 724 515 764 q 589 588 585 683 l 614 -96 m 411 278 q 364 297 383 278 q 344 343 344 317 q 364 389 344 369 q 411 408 383 408 q 458 389 439 408 q 478 343 478 369 q 458 297 478 317 q 411 278 439 278 z "},"פּ":{"ha":682,"x_min":49,"x_max":633,"o":"m 583 672 q 615 565 597 640 q 633 385 633 490 q 622 235 633 304 q 586 61 610 167 l 572 0 l 49 0 l 90 256 l 493 256 q 558 382 558 256 q 535 478 558 449 q 457 508 513 508 l 213 508 q 196 488 203 500 q 186 463 189 475 l 247 463 q 282 449 268 463 q 296 415 296 435 l 296 303 l 269 303 q 249 322 264 314 q 210 329 233 329 q 144 296 160 329 l 89 296 q 86 346 86 340 q 103 437 86 403 q 149 507 121 471 l 149 508 l 140 508 q 78 538 108 508 q 49 635 49 568 q 65 746 49 685 q 93 829 81 807 l 119 829 l 119 799 q 128 773 119 782 q 151 764 138 764 l 446 764 q 583 672 543 764 m 428 317 q 381 336 400 317 q 361 382 361 356 q 381 428 361 408 q 428 447 400 447 q 475 428 456 447 q 494 382 494 408 q 475 336 494 356 q 428 317 456 317 z "},"צּ":{"ha":717,"x_min":49,"x_max":668,"o":"m 511 442 q 492 406 499 428 q 483 367 485 385 l 578 317 q 631 215 631 289 q 621 146 631 181 l 583 0 l 53 0 l 114 250 l 457 250 q 442 266 457 257 q 408 283 426 275 l 265 358 q 238 385 244 369 q 231 436 231 400 l 231 482 q 224 503 231 497 q 200 508 217 508 l 163 508 q 76 534 103 508 q 49 631 49 560 q 92 829 49 722 l 118 829 l 118 814 q 128 774 118 785 q 164 764 138 764 l 207 764 q 274 744 254 764 q 293 667 293 724 l 293 542 q 301 478 293 497 q 339 443 308 460 l 418 401 q 471 482 439 456 l 504 510 l 488 511 q 410 550 429 518 q 390 629 390 582 q 403 724 390 681 q 429 794 417 767 q 444 829 442 821 l 471 829 l 471 811 q 478 777 471 789 q 514 763 485 765 l 596 754 q 668 640 668 747 q 660 567 668 604 q 638 475 653 529 l 625 475 q 617 491 622 485 q 594 499 611 497 l 565 501 l 511 442 m 133 314 q 86 333 106 314 q 67 379 67 353 q 86 425 67 406 q 133 444 106 444 q 181 425 161 444 q 200 379 200 406 q 181 333 200 353 q 133 314 161 314 z "},"קּ":{"ha":710,"x_min":63,"x_max":661,"o":"m 319 -14 q 287 -3 297 -14 q 276 28 276 8 l 276 35 q 288 114 276 89 q 333 169 299 139 l 525 344 q 560 388 551 368 q 569 431 569 407 q 545 492 569 475 q 461 508 521 508 l 154 508 q 84 537 106 508 q 63 626 63 565 q 78 744 63 686 q 107 829 94 803 l 133 829 l 133 799 q 142 773 133 782 q 165 764 151 764 l 508 764 q 587 743 556 764 q 640 671 618 722 q 656 616 651 647 q 661 529 661 585 q 645 391 661 446 q 582 294 629 336 l 400 129 q 369 92 378 110 q 360 35 360 74 l 360 26 q 350 -3 360 8 q 319 -14 340 -14 m 97 -222 q 69 -219 81 -222 l 69 -208 q 80 -185 76 -197 q 83 -140 83 -172 l 83 274 q 108 387 83 351 q 168 422 132 422 q 190 419 179 422 l 190 408 q 175 335 175 378 l 175 -112 q 154 -192 175 -161 q 97 -222 133 -222 m 350 319 q 303 339 322 319 q 283 385 283 358 q 303 431 283 411 q 350 450 322 450 q 397 431 378 450 q 417 385 417 411 q 397 339 417 358 q 350 319 378 319 z "},"רּ":{"ha":682,"x_min":28,"x_max":601,"o":"m 521 -6 q 489 -3 508 -6 l 489 8 q 499 37 496 19 q 501 104 501 54 l 501 407 q 490 488 501 468 q 442 508 479 508 l 142 508 q 55 535 82 508 q 28 632 28 563 q 43 747 28 692 q 71 829 58 801 l 97 829 l 97 807 q 140 764 97 764 l 443 764 q 544 730 517 764 q 574 624 571 696 l 599 124 q 583 27 601 60 q 521 -6 565 -6 m 265 319 q 218 339 238 319 q 199 385 199 358 q 218 431 199 411 q 265 450 238 450 q 313 431 293 450 q 332 385 332 411 q 313 339 332 358 q 265 319 293 319 z "},"שּ":{"ha":935,"x_min":42,"x_max":893,"o":"m 831 757 q 879 736 865 753 q 893 688 893 719 l 893 625 q 860 500 893 546 l 813 435 q 732 282 765 369 q 672 63 699 194 l 660 0 l 204 0 l 190 53 q 138 270 151 206 q 125 390 125 335 q 143 511 125 444 l 139 511 q 62 549 82 518 q 42 629 42 581 q 54 722 42 681 q 79 791 67 763 q 96 829 92 819 l 122 829 l 122 811 q 131 780 122 790 q 165 765 139 769 l 232 756 q 289 719 274 750 q 304 636 304 688 q 274 475 304 558 l 261 475 q 252 492 257 488 q 231 499 247 497 l 203 503 q 197 429 197 464 q 208 331 197 365 q 242 251 219 296 l 347 251 l 454 510 l 444 511 q 367 549 388 518 q 347 629 347 581 q 360 722 347 681 q 385 791 372 763 q 401 829 397 819 l 428 829 l 428 811 q 436 780 428 790 q 471 765 444 769 l 536 756 q 593 719 578 750 q 608 636 608 688 q 578 475 608 558 l 565 475 q 556 492 561 488 q 535 499 551 497 l 521 500 l 418 251 l 633 251 q 731 433 679 357 l 751 464 q 767 497 767 488 q 747 511 767 507 l 707 517 q 651 606 651 525 q 706 829 651 694 l 732 829 l 732 813 q 740 779 732 790 q 767 765 747 768 l 831 757 m 585 319 q 538 339 557 319 q 518 385 518 358 q 538 431 518 411 q 585 450 557 450 q 632 431 613 450 q 651 385 651 411 q 632 339 651 358 q 585 319 613 319 z "},"תּ":{"ha":786,"x_min":21,"x_max":706,"o":"m 703 124 q 688 27 706 60 q 625 -6 669 -6 q 593 -3 613 -6 l 593 8 q 603 37 600 19 q 606 104 606 54 l 606 407 q 594 488 606 468 q 546 508 583 508 l 269 508 q 255 468 263 499 q 247 400 247 438 q 267 246 247 351 q 283 113 283 149 q 251 0 283 51 l 21 0 l 63 256 l 175 256 q 168 360 168 336 q 175 426 168 396 q 208 507 181 447 l 208 508 l 204 508 q 117 535 144 508 q 90 632 90 563 q 106 747 90 692 q 133 829 121 801 l 160 829 l 160 807 q 203 764 160 764 l 550 764 q 651 730 624 764 q 681 624 678 696 l 703 124 m 426 319 q 379 339 399 319 q 360 385 360 358 q 379 431 360 411 q 426 450 399 450 q 474 431 454 450 q 493 385 493 411 q 474 339 493 358 q 426 319 454 319 z "},"וֹ":{"ha":458,"x_min":42,"x_max":378,"o":"m 297 -6 q 265 -3 285 -6 l 265 8 q 275 37 272 19 q 278 104 278 54 l 278 401 q 274 463 278 443 q 257 490 269 482 q 218 503 244 499 l 97 521 q 53 548 65 526 q 42 608 42 569 q 96 831 42 696 l 122 831 l 122 814 q 130 781 122 792 q 157 767 138 769 l 257 751 q 313 733 294 746 q 337 695 331 719 q 346 624 343 671 l 375 124 q 360 27 378 60 q 297 -6 342 -6 m 207 843 q 160 862 179 843 q 140 908 140 881 q 160 954 140 935 q 207 974 179 974 q 254 954 235 974 q 274 908 274 935 q 254 862 274 881 q 207 843 235 843 z "},"בֿ":{"ha":689,"x_min":42,"x_max":654,"o":"m 83 256 l 494 256 q 527 333 519 307 q 535 401 535 360 q 526 468 535 446 q 496 499 518 490 q 428 508 474 508 l 167 508 q 97 536 118 508 q 75 621 75 564 q 90 744 75 689 q 119 829 106 799 l 146 829 l 146 799 q 155 773 146 782 q 178 764 164 764 l 469 764 q 569 728 533 764 q 604 626 604 692 l 604 422 q 565 256 604 336 l 654 256 l 613 0 l 42 0 l 83 256 m 200 953 l 493 953 l 468 864 l 179 864 l 200 953 z "},"כֿ":{"ha":686,"x_min":42,"x_max":631,"o":"m 100 256 l 483 256 q 540 283 524 256 q 556 374 556 311 q 533 478 556 447 q 447 508 510 508 l 174 508 q 103 537 125 508 q 82 626 82 565 q 98 744 82 686 q 126 829 114 803 l 153 829 l 153 799 q 162 773 153 782 q 185 764 171 764 l 443 764 q 526 742 494 764 q 581 672 558 719 q 613 564 596 638 q 631 368 631 490 q 611 182 631 251 q 557 68 592 113 q 428 0 504 0 l 42 0 l 100 256 m 190 953 l 483 953 l 458 864 l 169 864 l 190 953 z "},"פֿ":{"ha":682,"x_min":49,"x_max":633,"o":"m 583 672 q 615 565 597 640 q 633 385 633 490 q 622 235 633 304 q 586 61 610 167 l 572 0 l 49 0 l 90 256 l 493 256 q 558 382 558 256 q 535 478 558 449 q 457 508 513 508 l 213 508 q 196 488 203 500 q 186 463 189 475 l 247 463 q 282 449 268 463 q 296 415 296 435 l 296 303 l 269 303 q 249 322 264 314 q 210 329 233 329 q 144 296 160 329 l 89 296 q 86 346 86 340 q 103 437 86 403 q 149 507 121 471 l 149 508 l 140 508 q 78 538 108 508 q 49 635 49 568 q 65 746 49 685 q 93 829 81 807 l 119 829 l 119 799 q 128 773 119 782 q 151 764 138 764 l 446 764 q 583 672 543 764 m 175 953 l 468 953 l 443 864 l 154 864 l 175 953 z "},"⁄":{"ha":93,"x_min":-246,"x_max":339,"o":"m 260 933 l 339 933 l -167 -17 l -246 -17 l 260 933 z "},"½":{"ha":1192,"x_min":63,"x_max":1125,"o":"m 785 933 l 864 933 l 358 -17 l 279 -17 l 785 933 m 99 415 l 182 415 q 192 433 192 415 l 192 815 q 133 793 179 811 q 63 771 86 775 l 63 826 q 147 866 97 836 q 233 926 197 896 l 350 926 l 350 433 q 353 418 350 421 q 363 415 356 415 l 446 415 l 446 376 l 99 376 l 99 415 m 653 14 q 702 139 653 88 q 810 231 751 190 q 901 315 868 271 q 933 421 933 358 q 915 492 933 465 q 865 519 896 519 q 833 496 833 519 q 838 471 833 486 q 843 438 843 456 q 822 383 843 406 q 763 361 800 361 q 703 384 726 361 q 681 446 681 407 q 894 560 681 560 q 1114 407 1114 560 q 1071 305 1114 343 q 919 221 1028 267 q 816 165 858 194 q 753 108 774 136 l 1028 108 q 1063 117 1051 108 q 1090 158 1075 125 l 1125 158 l 1093 0 l 653 0 l 653 14 z "},"¼":{"ha":1222,"x_min":82,"x_max":1124,"o":"m 803 933 l 882 933 l 376 -17 l 297 -17 l 803 933 m 118 415 l 201 415 q 211 433 211 415 l 211 815 q 152 793 199 811 q 82 771 106 775 l 82 826 q 167 866 117 836 q 253 926 217 896 l 369 926 l 369 433 q 372 418 369 421 q 382 415 375 415 l 465 415 l 465 376 l 118 376 l 118 415 m 783 39 l 840 39 q 858 46 850 39 q 865 68 865 53 l 865 131 l 621 131 l 621 190 q 781 412 703 310 q 900 557 858 514 l 1025 557 l 1025 229 l 1124 229 l 1124 131 l 1025 131 l 1025 68 q 1050 39 1025 39 l 1103 39 l 1103 0 l 783 0 l 783 39 m 865 229 l 865 422 l 863 422 q 792 332 846 400 q 714 229 735 263 l 865 229 z "},"¾":{"ha":1299,"x_min":88,"x_max":1199,"o":"m 894 933 l 974 933 l 468 -17 l 389 -17 l 894 933 m 271 371 q 131 395 174 371 q 88 464 88 419 q 110 520 88 500 q 169 540 133 540 q 222 522 201 540 q 243 472 243 504 q 236 443 243 454 q 229 428 229 432 q 240 415 229 419 q 268 411 250 411 q 356 532 356 411 q 272 654 356 654 q 204 649 263 654 l 204 703 q 233 700 217 701 q 267 699 250 699 q 338 806 338 699 q 326 868 338 844 q 278 892 315 892 q 251 887 261 892 q 242 874 242 882 q 249 856 242 869 q 257 828 257 843 q 238 782 257 801 q 182 763 218 763 q 123 784 144 763 q 101 836 101 806 q 156 908 101 885 q 292 932 211 932 q 444 904 378 932 q 511 806 511 876 q 477 726 511 760 q 368 682 443 693 l 368 679 q 413 673 371 679 q 495 629 454 667 q 536 532 536 592 q 466 412 536 453 q 271 371 396 371 m 858 39 l 915 39 q 933 46 925 39 q 940 68 940 53 l 940 131 l 696 131 l 696 190 q 856 412 778 310 q 975 557 933 514 l 1100 557 l 1100 229 l 1199 229 l 1199 131 l 1100 131 l 1100 68 q 1125 39 1100 39 l 1178 39 l 1178 0 l 858 0 l 858 39 m 940 229 l 940 422 l 938 422 q 867 332 921 400 q 789 229 810 263 l 940 229 z "},"₀":{"ha":561,"x_min":42,"x_max":519,"o":"m 281 -6 q 94 81 147 -6 q 42 275 42 167 q 94 469 42 383 q 281 556 147 556 q 467 469 414 556 q 519 275 519 383 q 467 81 519 167 q 281 -6 414 -6 m 282 32 q 325 60 313 32 q 340 134 338 88 q 342 294 342 181 q 338 427 342 383 q 322 494 335 471 q 281 518 310 518 q 238 486 250 518 q 222 383 225 454 q 219 126 219 313 q 231 67 219 101 q 282 32 243 32 z "},"₁":{"ha":489,"x_min":60,"x_max":443,"o":"m 96 39 l 179 39 q 185 47 182 39 q 189 68 189 56 l 189 439 q 130 417 176 435 q 60 394 83 399 l 60 450 q 144 490 94 460 q 231 550 194 519 l 347 550 l 347 68 q 351 47 347 54 q 360 39 354 39 l 443 39 l 443 0 l 96 0 l 96 39 z "},"₂":{"ha":550,"x_min":36,"x_max":508,"o":"m 36 14 q 66 110 36 65 q 122 176 96 154 q 193 231 149 199 q 284 315 251 271 q 317 421 317 358 q 298 492 317 465 q 249 519 279 519 q 217 496 217 519 q 222 471 217 486 q 226 438 226 456 q 205 383 226 406 q 146 361 183 361 q 87 384 110 361 q 64 446 64 407 q 278 560 64 560 q 497 407 497 560 q 454 305 497 343 q 303 221 411 267 q 199 165 242 194 q 136 108 157 136 l 411 108 q 447 117 435 108 q 474 158 458 125 l 508 158 l 476 0 l 36 0 l 36 14 z "},"₃":{"ha":540,"x_min":32,"x_max":481,"o":"m 215 -6 q 75 19 118 -6 q 32 88 32 43 q 55 144 32 124 q 114 164 78 164 q 167 146 146 164 q 188 96 188 128 q 181 67 188 78 q 174 51 174 56 q 185 39 174 43 q 213 35 196 35 q 300 156 300 35 q 217 278 300 278 q 149 272 207 278 l 149 326 q 178 324 161 325 q 211 322 194 322 q 282 429 282 322 q 271 492 282 468 q 222 515 260 515 q 196 510 206 515 q 186 497 186 506 q 194 480 186 493 q 201 451 201 467 q 182 406 201 425 q 126 386 163 386 q 67 408 89 386 q 46 460 46 429 q 101 532 46 508 q 236 556 156 556 q 389 528 322 556 q 456 429 456 500 q 422 350 456 383 q 313 306 388 317 l 313 303 q 357 297 315 303 q 440 253 399 290 q 481 156 481 215 q 410 35 481 76 q 215 -6 340 -6 z "},"₄":{"ha":553,"x_min":22,"x_max":525,"o":"m 185 39 l 242 39 q 259 46 251 39 q 267 68 267 53 l 267 131 l 22 131 l 22 190 q 182 412 104 310 q 301 557 260 514 l 426 557 l 426 229 l 525 229 l 525 131 l 426 131 l 426 68 q 451 39 426 39 l 504 39 l 504 0 l 185 0 l 185 39 m 267 229 l 267 422 l 264 422 q 193 332 247 400 q 115 229 136 263 l 267 229 z "},"₅":{"ha":542,"x_min":49,"x_max":490,"o":"m 229 -6 q 94 19 139 -6 q 49 88 49 44 q 71 141 49 121 q 124 161 93 161 q 176 142 154 161 q 199 99 199 122 q 192 73 199 88 q 185 54 185 58 q 199 40 185 46 q 232 35 213 35 q 303 71 285 35 q 321 160 321 107 q 297 271 321 232 q 225 310 272 310 q 169 292 192 310 q 124 242 146 275 l 81 242 l 115 550 l 397 550 q 428 553 419 550 q 440 571 438 557 l 479 571 l 449 447 l 146 447 l 128 311 l 129 308 q 196 342 163 331 q 281 354 229 354 q 435 309 381 354 q 490 182 490 264 q 424 44 490 94 q 229 -6 358 -6 z "},"₆":{"ha":599,"x_min":46,"x_max":553,"o":"m 303 -10 q 111 58 176 -10 q 46 249 46 125 q 159 501 46 421 q 454 574 272 581 l 454 535 q 428 536 446 536 q 287 482 344 536 q 224 328 229 428 l 228 326 q 260 338 238 329 q 305 351 283 347 q 353 356 326 356 q 501 308 449 356 q 553 185 553 260 q 489 46 553 101 q 303 -10 425 -10 m 304 35 q 360 69 339 35 q 381 158 381 104 q 356 253 381 217 q 292 290 332 290 q 225 182 225 290 q 245 78 225 121 q 304 35 265 35 z "},"₇":{"ha":535,"x_min":32,"x_max":486,"o":"m 211 -10 q 139 13 168 -10 q 110 78 110 35 q 143 167 110 115 q 265 314 176 219 q 399 446 349 401 l 146 446 q 99 436 119 446 q 75 417 79 426 l 67 399 l 32 399 l 46 550 l 486 550 l 486 482 q 433 428 469 469 q 375 360 396 386 q 297 153 297 257 q 303 89 297 125 q 306 60 306 67 q 278 8 306 26 q 211 -10 250 -10 z "},"₈":{"ha":556,"x_min":36,"x_max":510,"o":"m 261 -7 q 108 25 179 -7 q 36 132 36 57 q 72 215 36 185 q 147 253 107 244 q 82 300 108 268 q 56 379 56 332 q 83 466 56 425 q 164 532 110 507 q 294 557 218 557 q 434 529 376 557 q 492 444 492 501 q 452 370 492 396 q 368 339 413 344 q 471 277 432 314 q 510 175 510 240 q 472 72 510 113 q 378 12 435 31 q 261 -7 321 -7 m 331 357 q 359 392 349 367 q 369 439 369 417 q 343 494 369 472 q 279 517 317 517 q 223 499 244 517 q 201 456 201 481 q 237 399 201 424 q 331 357 272 374 m 265 36 q 338 58 313 36 q 363 107 363 79 q 322 169 363 143 q 190 232 281 194 q 158 144 158 204 q 187 64 158 92 q 265 36 215 36 z "},"₉":{"ha":599,"x_min":46,"x_max":557,"o":"m 144 6 q 167 4 151 4 q 313 61 251 4 q 379 218 374 118 l 375 219 q 344 208 368 217 q 296 194 319 199 q 244 190 272 190 q 98 235 150 190 q 46 358 46 279 q 109 500 46 444 q 294 556 172 556 q 491 488 425 556 q 557 297 557 421 q 443 47 557 128 q 144 -28 329 -35 l 144 6 m 304 256 q 376 364 376 256 q 354 468 376 425 q 293 511 332 511 q 238 476 258 511 q 218 385 218 442 q 241 290 218 325 q 304 256 264 256 z "},"⁰":{"ha":561,"x_min":42,"x_max":519,"o":"m 281 371 q 94 457 147 371 q 42 651 42 543 q 94 846 42 760 q 281 932 147 932 q 467 846 414 932 q 519 651 519 760 q 467 457 519 543 q 281 371 414 371 m 282 408 q 325 436 313 408 q 340 510 338 464 q 342 671 342 557 q 338 803 342 760 q 322 871 335 847 q 281 894 310 894 q 238 863 250 894 q 222 760 225 831 q 219 503 219 689 q 231 443 219 478 q 282 408 243 408 z "},"¹":{"ha":489,"x_min":60,"x_max":443,"o":"m 96 415 l 179 415 q 189 433 189 415 l 189 815 q 130 793 176 811 q 60 771 83 775 l 60 826 q 144 866 94 836 q 231 926 194 896 l 347 926 l 347 433 q 350 418 347 421 q 360 415 353 415 l 443 415 l 443 376 l 96 376 l 96 415 z "},"²":{"ha":568,"x_min":36,"x_max":508,"o":"m 36 390 q 66 486 36 442 q 122 553 96 531 q 193 607 149 575 q 284 691 251 647 q 317 797 317 735 q 298 869 317 842 q 249 896 279 896 q 217 872 217 896 q 222 847 217 863 q 226 814 226 832 q 205 760 226 782 q 146 738 183 738 q 87 760 110 738 q 64 822 64 783 q 278 936 64 936 q 497 783 497 936 q 454 681 497 719 q 303 597 411 643 q 199 542 242 571 q 136 485 157 513 l 411 485 q 447 493 435 485 q 474 535 458 501 l 508 535 l 476 376 l 36 376 l 36 390 z "},"³":{"ha":540,"x_min":32,"x_max":481,"o":"m 215 371 q 75 395 118 371 q 32 464 32 419 q 55 520 32 500 q 114 540 78 540 q 167 522 146 540 q 188 472 188 504 q 181 443 188 454 q 174 428 174 432 q 184 415 174 419 q 213 411 194 411 q 300 532 300 411 q 217 654 300 654 q 149 649 207 654 l 149 703 q 178 700 161 701 q 211 699 194 699 q 282 806 282 699 q 271 868 282 844 q 222 892 260 892 q 196 887 206 892 q 186 874 186 882 q 194 856 186 869 q 201 828 201 843 q 182 782 201 801 q 126 763 163 763 q 67 784 89 763 q 46 836 46 806 q 101 908 46 885 q 236 932 156 932 q 389 904 322 932 q 456 806 456 876 q 422 726 456 760 q 313 682 388 693 l 313 679 q 357 673 315 679 q 440 629 399 667 q 481 532 481 592 q 410 412 481 453 q 215 371 340 371 z "},"⁴":{"ha":553,"x_min":22,"x_max":525,"o":"m 185 415 l 242 415 q 259 422 251 415 q 267 444 267 429 l 267 507 l 22 507 l 22 567 q 182 788 104 686 q 301 933 260 890 l 426 933 l 426 606 l 525 606 l 525 507 l 426 507 l 426 444 q 451 415 426 415 l 504 415 l 504 376 l 185 376 l 185 415 m 267 606 l 267 799 l 264 799 q 193 708 247 776 q 115 606 136 639 l 267 606 z "},"⁵":{"ha":542,"x_min":49,"x_max":490,"o":"m 229 371 q 94 396 139 371 q 49 464 49 421 q 71 517 49 497 q 124 538 93 538 q 176 518 154 538 q 199 475 199 499 q 192 449 199 464 q 185 431 185 435 q 199 417 185 422 q 232 411 213 411 q 303 447 285 411 q 321 536 321 483 q 297 647 321 608 q 225 686 272 686 q 169 669 192 686 q 124 618 146 651 l 81 618 l 115 926 l 397 926 q 428 930 419 926 q 440 947 438 933 l 479 947 l 449 824 l 146 824 l 128 688 l 129 685 q 196 719 163 707 q 281 731 229 731 q 435 685 381 731 q 490 558 490 640 q 424 421 490 471 q 229 371 358 371 z "},"⁶":{"ha":599,"x_min":46,"x_max":553,"o":"m 303 367 q 111 434 176 367 q 46 625 46 501 q 159 877 46 797 q 454 950 272 957 l 454 911 q 428 913 446 913 q 287 858 344 913 q 224 704 229 804 l 228 703 q 260 715 238 706 q 305 728 283 724 q 353 732 326 732 q 501 684 449 732 q 553 561 553 636 q 489 422 553 478 q 303 367 425 367 m 304 411 q 360 446 339 411 q 381 535 381 481 q 356 630 381 593 q 292 667 332 667 q 225 558 225 667 q 245 454 225 497 q 304 411 265 411 z "},"⁷":{"ha":535,"x_min":32,"x_max":486,"o":"m 211 367 q 139 389 168 367 q 110 454 110 411 q 143 544 110 492 q 265 690 176 596 q 399 822 349 778 l 146 822 q 99 813 119 822 q 75 793 79 803 l 67 775 l 32 775 l 46 926 l 486 926 l 486 858 q 433 804 469 846 q 375 736 396 763 q 297 529 297 633 q 303 465 297 501 q 306 436 306 443 q 278 385 306 403 q 211 367 250 367 z "},"⁸":{"ha":556,"x_min":36,"x_max":510,"o":"m 261 369 q 108 401 179 369 q 36 508 36 433 q 72 591 36 561 q 147 629 107 621 q 82 676 108 644 q 56 756 56 708 q 83 842 56 801 q 164 908 110 883 q 294 933 218 933 q 434 906 376 933 q 492 821 492 878 q 452 747 492 772 q 368 715 413 721 q 471 653 432 690 q 510 551 510 617 q 472 448 510 489 q 378 388 435 407 q 261 369 321 369 m 331 733 q 359 768 349 743 q 369 815 369 793 q 343 871 369 849 q 279 893 317 893 q 223 875 244 893 q 201 832 201 857 q 237 775 201 800 q 331 733 272 750 m 265 413 q 338 434 313 413 q 363 483 363 456 q 322 545 363 519 q 190 608 281 571 q 158 521 158 581 q 187 440 158 468 q 265 413 215 413 z "},"⁹":{"ha":599,"x_min":46,"x_max":557,"o":"m 144 382 q 167 381 151 381 q 313 438 251 381 q 379 594 374 494 l 375 596 q 344 584 368 593 q 296 571 319 575 q 244 567 272 567 q 98 611 150 567 q 46 735 46 656 q 109 876 46 821 q 294 932 172 932 q 491 865 425 932 q 557 674 557 797 q 443 423 557 504 q 144 349 329 342 l 144 382 m 304 632 q 376 740 376 632 q 354 844 376 801 q 293 888 332 888 q 238 853 258 888 q 218 761 218 818 q 241 667 218 701 q 304 632 264 632 z "},"*":{"ha":539,"x_min":26,"x_max":511,"o":"m 268 407 q 208 422 229 407 q 188 460 188 436 q 192 479 188 469 l 240 611 l 235 614 l 144 506 q 108 488 131 488 q 43 538 74 488 q 26 590 26 569 q 38 624 26 611 q 68 640 49 638 l 206 665 l 206 669 l 67 693 q 37 710 47 697 q 26 743 26 724 q 43 797 26 767 q 108 847 74 847 q 146 828 129 847 l 236 719 l 240 721 l 192 854 q 188 874 188 865 q 208 912 188 897 q 268 926 229 926 q 328 912 307 926 q 350 874 350 897 q 346 854 350 865 l 296 719 l 299 717 l 393 828 q 431 847 408 847 q 493 797 463 847 q 511 742 511 767 q 500 710 511 722 q 469 693 489 697 l 326 669 l 326 665 l 469 639 q 500 624 489 636 q 511 592 511 611 q 493 538 511 568 q 429 488 464 488 q 392 506 410 488 l 300 615 l 296 614 l 346 479 q 350 460 350 469 q 328 422 350 436 q 268 407 307 407 z "},"\\":{"ha":575,"x_min":13,"x_max":563,"o":"m 13 933 l 154 933 l 563 -17 l 421 -17 l 13 933 z "},"·":{"ha":388,"x_min":83,"x_max":304,"o":"m 193 253 q 115 285 147 253 q 83 363 83 317 q 116 442 83 410 q 193 474 149 474 q 272 441 239 474 q 304 363 304 408 q 272 285 304 317 q 193 253 239 253 z "},"•":{"ha":550,"x_min":46,"x_max":504,"o":"m 275 229 q 158 260 211 229 q 76 344 106 290 q 46 461 46 397 q 76 576 46 524 q 160 658 107 628 q 275 688 213 688 q 390 657 338 688 q 474 574 443 626 q 504 458 504 522 q 474 342 504 394 q 390 260 443 290 q 275 229 338 229 z "},":":{"ha":406,"x_min":93,"x_max":314,"o":"m 203 368 q 125 401 157 368 q 93 481 93 435 q 126 558 93 525 q 203 590 160 590 q 281 558 247 590 q 314 481 314 525 q 281 401 314 433 q 203 368 249 368 m 203 -12 q 126 20 158 -12 q 93 97 93 53 q 126 175 93 142 q 203 208 158 208 q 281 176 247 208 q 314 97 314 143 q 281 20 314 53 q 203 -12 249 -12 z "},",":{"ha":376,"x_min":78,"x_max":299,"o":"m 108 -108 q 171 -85 140 -103 q 201 -42 201 -68 q 194 -23 201 -28 q 168 -12 188 -18 q 103 28 128 0 q 78 97 78 56 q 106 175 78 142 q 186 208 133 208 q 266 177 233 208 q 299 76 299 146 q 248 -76 299 -11 q 114 -153 197 -142 l 108 -108 z "},"…":{"ha":1246,"x_min":83,"x_max":1163,"o":"m 193 -12 q 115 20 147 -12 q 83 97 83 53 q 116 175 83 142 q 193 208 149 208 q 272 176 239 208 q 306 97 306 143 q 272 19 306 51 q 193 -12 239 -12 m 622 -12 q 544 20 576 -12 q 513 97 513 53 q 545 175 513 142 q 622 208 578 208 q 700 176 667 208 q 733 97 733 143 q 701 19 733 51 q 622 -12 668 -12 m 1050 -12 q 973 20 1006 -12 q 940 97 940 53 q 973 175 940 142 q 1050 208 1006 208 q 1129 176 1096 208 q 1163 97 1163 143 q 1129 19 1163 51 q 1050 -12 1096 -12 z "},"!":{"ha":447,"x_min":108,"x_max":339,"o":"m 114 761 q 108 824 108 796 q 224 932 108 932 q 339 824 339 932 q 333 761 339 796 l 257 282 l 190 282 l 114 761 m 224 -12 q 147 19 179 -12 q 114 97 114 51 q 147 176 114 143 q 225 208 179 208 q 303 175 271 208 q 335 97 335 142 q 302 19 335 51 q 224 -12 269 -12 z "},"¡":{"ha":447,"x_min":108,"x_max":339,"o":"m 225 449 q 147 481 179 449 q 114 560 114 514 q 147 638 114 606 q 224 669 179 669 q 302 638 269 669 q 335 560 335 606 q 303 482 335 515 q 225 449 271 449 m 224 -275 q 108 -167 108 -275 q 114 -104 108 -139 l 190 375 l 257 375 l 333 -104 q 339 -167 339 -139 q 224 -275 339 -275 z "},"#":{"ha":694,"x_min":26,"x_max":669,"o":"m 539 542 l 517 378 l 633 378 l 633 267 l 500 267 l 464 0 l 350 0 l 386 267 l 256 267 l 219 0 l 106 0 l 142 267 l 26 267 l 26 378 l 158 378 l 181 542 l 63 542 l 63 653 l 196 653 l 232 917 l 346 917 l 310 653 l 440 653 l 476 917 l 590 917 l 554 653 l 669 653 l 669 542 l 539 542 m 425 542 l 294 542 l 272 378 l 403 378 l 425 542 z "},".":{"ha":406,"x_min":93,"x_max":314,"o":"m 203 -12 q 126 20 158 -12 q 93 97 93 53 q 126 175 93 142 q 203 208 158 208 q 281 176 247 208 q 314 97 314 143 q 281 20 314 53 q 203 -12 249 -12 z "},"?":{"ha":769,"x_min":99,"x_max":693,"o":"m 314 319 q 334 458 314 407 q 393 567 354 510 q 444 658 428 618 q 461 760 461 697 q 436 865 461 836 q 375 894 411 894 q 319 876 342 894 q 296 831 296 857 q 311 794 296 813 q 326 771 321 782 q 331 742 331 760 q 299 669 331 699 q 217 639 268 639 q 131 672 163 639 q 99 757 99 706 q 193 890 99 847 q 406 932 288 932 q 608 885 524 932 q 693 738 693 838 q 671 650 693 688 q 616 586 649 613 q 529 525 583 560 q 444 465 475 490 q 391 403 413 439 q 369 319 369 367 l 369 283 l 314 283 l 314 319 m 346 -12 q 267 20 300 -12 q 235 97 235 53 q 268 175 235 142 q 346 208 301 208 q 424 176 390 208 q 457 97 457 143 q 424 20 457 53 q 346 -12 390 -12 z "},"¿":{"ha":769,"x_min":76,"x_max":671,"o":"m 424 449 q 346 481 379 449 q 313 560 313 514 q 346 637 313 604 q 424 669 379 669 q 502 637 469 669 q 535 560 535 604 q 501 482 535 515 q 424 449 468 449 m 364 -275 q 161 -228 246 -275 q 76 -81 76 -181 q 99 7 76 -31 q 153 71 121 44 q 240 132 186 97 q 326 192 294 167 q 378 254 357 218 q 400 338 400 290 l 400 374 l 456 374 l 456 338 q 435 199 456 250 q 376 90 415 147 q 325 -1 342 39 q 308 -103 308 -40 q 333 -208 308 -179 q 394 -237 358 -237 q 451 -219 428 -237 q 474 -174 474 -200 q 458 -137 474 -156 q 444 -114 449 -125 q 439 -85 439 -103 q 470 -12 439 -42 q 553 18 501 18 q 639 -15 607 18 q 671 -100 671 -49 q 576 -233 671 -190 q 364 -275 482 -275 z "},"\"":{"ha":514,"x_min":56,"x_max":458,"o":"m 135 575 q 102 587 114 575 q 89 611 90 599 l 61 815 q 56 864 56 857 q 74 915 56 893 q 135 938 92 938 q 196 915 178 938 q 214 864 214 893 q 208 815 214 857 l 181 611 q 168 587 179 599 q 135 575 157 575 m 379 575 q 347 586 357 575 q 335 611 336 597 l 306 815 q 301 863 301 847 q 319 916 301 894 q 379 938 336 938 q 440 915 422 938 q 458 864 458 893 q 453 815 458 857 l 425 611 q 413 586 424 597 q 379 575 401 575 z "},"'":{"ha":268,"x_min":56,"x_max":213,"o":"m 133 575 q 101 586 111 575 q 89 611 90 597 l 60 815 q 56 863 56 847 q 73 916 56 894 q 133 938 90 938 q 194 915 176 938 q 213 864 213 893 q 207 815 213 857 l 179 611 q 167 586 178 597 q 133 575 156 575 z "},";":{"ha":378,"x_min":78,"x_max":300,"o":"m 188 369 q 110 402 143 369 q 78 479 78 435 q 110 557 78 524 q 188 590 143 590 q 265 558 232 590 q 299 479 299 525 q 266 402 299 435 q 188 369 233 369 m 110 -108 q 172 -85 142 -103 q 203 -42 203 -68 q 196 -23 203 -28 q 169 -12 189 -18 q 104 28 129 0 q 79 97 79 56 q 107 175 79 142 q 188 208 135 208 q 267 177 235 208 q 300 76 300 146 q 249 -76 300 -11 q 115 -153 199 -142 l 110 -108 z "},"/":{"ha":575,"x_min":13,"x_max":563,"o":"m 421 933 l 563 933 l 154 -17 l 13 -17 l 421 933 z "},"_":{"ha":756,"x_min":56,"x_max":700,"o":"m 56 -97 l 700 -97 l 700 -161 l 56 -161 l 56 -97 z "},"{":{"ha":446,"x_min":56,"x_max":404,"o":"m 339 -181 q 187 -130 236 -181 q 138 -4 138 -79 l 138 247 q 116 324 138 299 q 56 349 94 349 l 56 393 q 115 417 93 393 q 138 483 138 440 l 138 740 q 188 868 138 819 q 335 917 238 917 l 404 917 l 404 871 q 338 844 356 871 q 321 769 321 817 l 321 517 q 315 453 321 476 q 281 408 308 429 q 196 374 254 388 l 196 367 q 281 335 254 354 q 314 292 307 315 q 321 231 321 269 l 321 -29 q 338 -109 321 -83 q 404 -135 356 -135 l 404 -181 l 339 -181 z "}}}
